<svg width="105" height="38" viewBox="0 0 105 38" fill="none" xmlns="http://www.w3.org/2000/svg">
<g filter="url(#filter0_dd_61_86144)">
<g clip-path="url(#clip0_61_86144)">
<rect x="3" y="2" width="32" height="32" rx="8" fill="#444CE7"/>
<path fill-rule="evenodd" clip-rule="evenodd" d="M24.6713 27.4593C24.6711 27.4593 24.671 27.4594 24.6708 27.4595C19.3726 30.5185 12.5977 28.7031 9.53873 23.4049C6.47977 18.1066 8.29509 11.3318 13.5934 8.27279C13.6177 8.25873 13.6421 8.24478 13.6665 8.23092L27.9225 0.000200389L39 19.1869L24.6714 27.4595L24.6713 27.4593Z" fill="url(#paint0_linear_61_86144)"/>
<circle cx="19.1321" cy="17.8662" r="11.0775" transform="rotate(-30 19.1321 17.8662)" fill="#6979F9"/>
<circle cx="19.2029" cy="17.9393" r="9.35635" transform="rotate(-30 19.2029 17.9393)" fill="#A4BCFD"/>
<circle cx="19.2054" cy="17.9395" r="6.8904" transform="rotate(-30 19.2054 17.9395)" fill="#F9FAFB"/>
</g>
</g>
<path d="M91.3516 22.1055H94.3398C94.3984 22.4805 94.5449 22.8438 94.7793 23.1953C95.0254 23.5469 95.3359 23.8223 95.7109 24.0215C96.4609 24.4785 97.3457 24.6719 98.3652 24.6016C99.127 24.543 99.7422 24.3145 100.211 23.916C100.68 23.5176 100.92 23.0137 100.932 22.4043C100.943 21.8301 100.744 21.373 100.334 21.0332C99.9238 20.6816 99.3789 20.4297 98.6992 20.2773L96.3965 19.7324C94.791 19.2988 93.6016 18.6543 92.8281 17.7988C92.0664 16.9316 91.7559 15.7539 91.8965 14.2656C92.0137 13.0469 92.6406 12.0273 93.7773 11.207C94.9141 10.3867 96.2324 9.97656 97.7324 9.97656C98.4707 9.97656 99.1621 10.0645 99.8066 10.2402C100.451 10.416 101.043 10.6914 101.582 11.0664C102.133 11.4297 102.578 11.9219 102.918 12.543C103.27 13.1641 103.48 13.8906 103.551 14.7227H100.422C100.34 14.1133 100.053 13.6445 99.5605 13.3164C99.0684 12.9883 98.4824 12.8242 97.8027 12.8242C97.1816 12.8242 96.6309 12.9648 96.1504 13.2461C95.6816 13.5273 95.3887 13.8906 95.2715 14.3359C95.1309 14.8633 95.1426 15.3086 95.3066 15.6719C95.5645 16.2227 96.2266 16.6504 97.293 16.9551L99.7715 17.5703C102.678 18.2852 104.131 19.9199 104.131 22.4746C104.131 23.9863 103.498 25.2051 102.232 26.1309C100.967 27.0449 99.4258 27.502 97.6094 27.502C96.5781 27.502 95.5996 27.3027 94.6738 26.9043C93.748 26.4941 92.9688 25.8672 92.3359 25.0234C91.7148 24.1797 91.3867 23.207 91.3516 22.1055Z" fill="white"/>
<path d="M80.7969 13.1055V10.3457H83.8203V4H87.1074V10.3457H90.6582V13.1055H87.1074V27.1504H83.8203V13.1055H80.7969Z" fill="white"/>
<path d="M61.2031 18.7305C61.2031 16.9961 61.5957 15.4551 62.3809 14.1074C63.166 12.7598 64.2031 11.7344 65.4922 11.0312C66.7812 10.3281 68.1992 9.97656 69.7461 9.97656C70.9766 9.97656 72.1309 10.2285 73.209 10.7324C74.2988 11.2246 75.1074 11.9336 75.6348 12.8594V10.3457H78.8867V27.1504H75.6348V24.5664C75.0957 25.4922 74.2812 26.2129 73.1914 26.7285C72.1133 27.2441 70.9648 27.502 69.7461 27.502C67.3789 27.502 65.3633 26.6875 63.6992 25.0586C62.0352 23.4297 61.2031 21.3203 61.2031 18.7305ZM64.5605 18.6953C64.5605 20.3242 65.0879 21.666 66.1426 22.7207C67.1973 23.7754 68.4922 24.3027 70.0273 24.3027C71.5859 24.3027 72.9043 23.7988 73.9824 22.791C75.0605 21.7832 75.5996 20.418 75.5996 18.6953C75.5996 17.5469 75.3184 16.5449 74.7559 15.6895C74.1934 14.8223 73.4961 14.1895 72.6641 13.791C71.8438 13.3809 70.9648 13.1758 70.0273 13.1758C68.4805 13.1758 67.1797 13.6855 66.125 14.7051C65.082 15.7246 64.5605 17.0547 64.5605 18.6953Z" fill="white"/>
<path d="M42 18.6953C42 16.0938 42.8203 13.9902 44.4609 12.3848C46.1133 10.7793 48.1641 9.97656 50.6133 9.97656C53.0391 9.97656 55.0371 10.7734 56.6074 12.3672C58.1777 13.9609 58.9629 16.0703 58.9629 18.6953C58.9629 19.3164 58.9512 19.7441 58.9277 19.9785H45.2871C45.4863 21.373 46.084 22.4863 47.0801 23.3184C48.0762 24.1504 49.2891 24.5664 50.7188 24.5664C51.7383 24.5664 52.6816 24.3379 53.5488 23.8809C54.416 23.4238 55.0781 22.7852 55.5352 21.9648C55.8633 22.0938 56.3672 22.293 57.0469 22.5625C57.7266 22.8203 58.1602 22.9844 58.3477 23.0547C57.6445 24.4844 56.5957 25.5859 55.2012 26.3594C53.8184 27.1211 52.2891 27.502 50.6133 27.502C48.1758 27.502 46.1309 26.6875 44.4785 25.0586C42.8262 23.4297 42 21.3086 42 18.6953ZM45.2871 17.4297H55.7109C55.5117 16.0352 54.9492 14.9395 54.0234 14.1426C53.1094 13.334 51.9727 12.9297 50.6133 12.9297C49.207 12.9297 48.0176 13.334 47.0449 14.1426C46.0723 14.9395 45.4863 16.0352 45.2871 17.4297Z" fill="white"/>
<defs>
<filter id="filter0_dd_61_86144" x="0" y="0" width="38" height="38" filterUnits="userSpaceOnUse" color-interpolation-filters="sRGB">
<feFlood flood-opacity="0" result="BackgroundImageFix"/>
<feColorMatrix in="SourceAlpha" type="matrix" values="0 0 0 0 0 0 0 0 0 0 0 0 0 0 0 0 0 0 127 0" result="hardAlpha"/>
<feOffset dy="1"/>
<feGaussianBlur stdDeviation="1"/>
<feColorMatrix type="matrix" values="0 0 0 0 0.0627451 0 0 0 0 0.0941176 0 0 0 0 0.156863 0 0 0 0.06 0"/>
<feBlend mode="normal" in2="BackgroundImageFix" result="effect1_dropShadow_61_86144"/>
<feColorMatrix in="SourceAlpha" type="matrix" values="0 0 0 0 0 0 0 0 0 0 0 0 0 0 0 0 0 0 127 0" result="hardAlpha"/>
<feOffset dy="1"/>
<feGaussianBlur stdDeviation="1.5"/>
<feColorMatrix type="matrix" values="0 0 0 0 0.0627451 0 0 0 0 0.0941176 0 0 0 0 0.156863 0 0 0 0.1 0"/>
<feBlend mode="normal" in2="effect1_dropShadow_61_86144" result="effect2_dropShadow_61_86144"/>
<feBlend mode="normal" in="SourceGraphic" in2="effect2_dropShadow_61_86144" result="shape"/>
</filter>
<linearGradient id="paint0_linear_61_86144" x1="37.5339" y1="7.94883" x2="19.2761" y2="17.7831" gradientUnits="userSpaceOnUse">
<stop offset="0.275" stop-color="#A4BCFD" stop-opacity="0"/>
<stop offset="1" stop-color="#6979F9"/>
</linearGradient>
<clipPath id="clip0_61_86144">
<rect x="3" y="2" width="32" height="32" rx="8" fill="white"/>
</clipPath>
</defs>
</svg>
