<svg width="20" height="20" viewBox="0 0 20 20" fill="none" xmlns="http://www.w3.org/2000/svg">
<path d="M11.6654 1.66602H4.9987C4.55667 1.66602 4.13275 1.84161 3.82019 2.15417C3.50763 2.46673 3.33203 2.89065 3.33203 3.33268V16.666C3.33203 17.108 3.50763 17.532 3.82019 17.8445C4.13275 18.1571 4.55667 18.3327 4.9987 18.3327H14.9987C15.4407 18.3327 15.8646 18.1571 16.1772 17.8445C16.4898 17.532 16.6654 17.108 16.6654 16.666V6.66602M11.6654 1.66602L16.6654 6.66602M11.6654 1.66602V6.66602H16.6654M13.332 10.8327H6.66536M13.332 14.166H6.66536M8.33203 7.49935H6.66536" stroke="#F9FAFB" stroke-width="2" stroke-linecap="round" stroke-linejoin="round"/>
</svg>
