<svg width="202" height="360" viewBox="0 0 202 360" fill="none" xmlns="http://www.w3.org/2000/svg">
<path fill-rule="evenodd" clip-rule="evenodd" d="M172.818 277.415C172.818 277.415 168.812 275.468 156.906 268.513C156.301 268.158 155.689 267.804 155.063 267.435C150.953 265.029 148.449 265.696 144.93 266.524C139.547 267.79 128.434 270.182 111.639 260.974C84.7799 246.252 66.3433 251.85 51.7248 258.728C38.3372 265.029 27.6202 272.102 27.6202 272.102C24.1429 274.23 24.129 277.617 27.5785 279.668L75.0574 307.994C93.8765 320.241 122.376 314.309 129.512 309.691L174.508 284.217C178.145 282.054 176.448 279.543 172.818 277.422V277.415Z" fill="#B7BFF2"/>
<path fill-rule="evenodd" clip-rule="evenodd" d="M97.3657 61.0645C97.3657 61.0645 97.5534 64.507 96.0095 66.1622C94.4726 67.8173 91.0579 70.1193 92.2888 72.616C93.5198 75.1127 95.3349 76.0168 95.3349 76.0168C95.3349 76.0168 92.9217 73.9443 93.9788 71.2599C95.0359 68.5754 97.8177 68.5406 98.0402 67.8591C98.2628 67.1775 98.7148 63.4429 98.7148 63.4429L97.3587 61.0645H97.3657Z" fill="#491B3C"/>
<path fill-rule="evenodd" clip-rule="evenodd" d="M129.713 57.3086C129.713 57.3086 129.811 61.6204 132.356 63.9363C134.902 66.2591 135.242 66.1757 135.402 68.0117C135.562 69.8477 134.046 72.7686 134.046 72.7686C134.046 72.7686 135.124 69.7295 134.046 68.0117C132.968 66.2939 130.423 65.8488 129.985 64.2771C128.246 61.5439 129.706 57.3086 129.706 57.3086H129.713Z" fill="#491B3C"/>
<path fill-rule="evenodd" clip-rule="evenodd" d="M96.5886 67.1013C96.5886 67.1013 98.3621 65.7452 96.9294 60.6475C95.455 55.4107 99.0575 50.9806 99.9755 49.7775C102.639 46.2793 114.608 44.8049 118.238 45.0205C121.869 45.2292 130.833 44.0678 129.741 58.9506C129.296 64.9802 131.445 61.7394 132.446 68.1237C133.093 72.2408 133.531 73.0266 131.09 75.5998C128.92 77.8879 127.098 78.8059 121.618 80.016C120.13 80.3428 123.141 75.7598 111.812 75.9406C105.727 76.038 101.805 78.4234 97.9448 76.2814C94.4744 74.355 94.1754 71.4201 96.5886 67.1083V67.1013Z" fill="#491B3C"/>
<mask id="mask0_54_54227" style="mask-type:luminance" maskUnits="userSpaceOnUse" x="95" y="45" width="38" height="36">
<path d="M96.5847 67.1013C96.5847 67.1013 98.3582 65.7452 96.9255 60.6475C95.4511 55.4107 99.0536 50.9806 99.9716 49.7775C102.635 46.2793 114.604 44.8049 118.234 45.0205C121.865 45.2292 130.829 44.0678 129.737 58.9506C129.292 64.9802 131.441 61.7394 132.443 68.1237C133.089 72.2408 133.527 73.0266 131.086 75.5998C128.917 77.8879 127.094 78.8059 121.614 80.016C120.126 80.3428 123.137 75.7598 111.808 75.9406C105.723 76.038 101.801 78.4234 97.9409 76.2814C94.4705 74.355 94.1715 71.4201 96.5847 67.1083V67.1013Z" fill="white"/>
</mask>
<g mask="url(#mask0_54_54227)">
<path fill-rule="evenodd" clip-rule="evenodd" d="M100.76 81.8939C98.3049 84.8427 95.8082 88.1878 97.0252 88.5843C98.8473 89.1684 113.062 99.5586 113.062 99.5586C113.062 99.5586 116.818 98.6545 117.333 96.8115C117.847 94.9686 119.356 93.8141 120.379 90.0169C121.811 84.6688 120.267 85.1765 121.999 78.82C124.774 68.6177 123.508 69.7791 123.084 67.2476C122.66 64.6744 113.883 54.1591 113.883 54.1591L107.186 55.0145C107.186 55.0145 105.016 52.5456 103.159 54.2843C101.066 56.2455 99.9322 58.5613 100.085 62.8314C100.558 76.0591 105.732 75.913 100.767 81.8939H100.76Z" fill="#1B0306"/>
</g>
<path fill-rule="evenodd" clip-rule="evenodd" d="M109.531 73.6799C110.032 72.6576 116.486 70.0148 116.861 71.2249C117.237 72.435 116.096 74.7579 116.861 76.5382C117.626 78.3186 118.085 78.1726 118.085 78.1726C118.12 78.1726 120.13 79.6608 123.371 81.4969C126.597 83.319 128.781 85.0437 127.863 85.5305C126.945 86.0173 123.065 85.76 119.719 88.3958C116.374 91.0246 108.995 90.8716 105.873 88.8061C102.083 86.3025 102.124 85.2384 101.797 82.6722C101.575 80.9057 102.799 79.2018 105.052 78.1726C107.09 77.2407 109.531 76.9416 109.531 76.9416C109.531 76.9416 109.03 74.6883 109.531 73.673V73.6799Z" fill="#FEDFC6"/>
<mask id="mask1_54_54227" style="mask-type:luminance" maskUnits="userSpaceOnUse" x="101" y="70" width="28" height="21">
<path d="M109.531 73.6799C110.032 72.6576 116.486 70.0148 116.861 71.2249C117.237 72.435 116.096 74.7579 116.861 76.5382C117.626 78.3186 118.085 78.1726 118.085 78.1726C118.12 78.1726 120.13 79.6608 123.371 81.4969C126.597 83.319 128.781 85.0437 127.863 85.5305C126.945 86.0173 123.065 85.76 119.719 88.3958C116.374 91.0246 108.995 90.8716 105.873 88.8061C102.083 86.3025 102.124 85.2384 101.797 82.6722C101.575 80.9057 102.799 79.2018 105.052 78.1726C107.09 77.2407 109.531 76.9416 109.531 76.9416C109.531 76.9416 109.03 74.6883 109.531 73.673V73.6799Z" fill="white"/>
</mask>
<g mask="url(#mask1_54_54227)">
<path fill-rule="evenodd" clip-rule="evenodd" d="M103.785 74.4589C103.785 74.4589 109.036 76.0237 111.115 74.8692C113.194 73.7147 118.855 72.0039 118.855 72.0039C118.855 72.0039 115.399 82.6027 112.339 83.0478C109.279 83.4859 107.151 80.7597 107.45 78.5482C107.756 76.3436 103.785 74.4589 103.785 74.4589Z" fill="#F8C39B"/>
<g style="mix-blend-mode:soft-light">
<path d="M103.785 74.4589C103.785 74.4589 109.036 76.0237 111.115 74.8692C113.194 73.7147 118.855 72.0039 118.855 72.0039C118.855 72.0039 115.399 82.6027 112.339 83.0478C109.279 83.4859 107.151 80.7597 107.45 78.5482C107.756 76.3436 103.785 74.4589 103.785 74.4589Z" fill="url(#paint0_linear_54_54227)"/>
<path d="M103.785 74.4589C103.785 74.4589 109.036 76.0237 111.115 74.8692C113.194 73.7147 118.855 72.0039 118.855 72.0039C118.855 72.0039 115.399 82.6027 112.339 83.0478C109.279 83.4859 107.151 80.7597 107.45 78.5482C107.756 76.3436 103.785 74.4589 103.785 74.4589Z" fill="url(#paint1_linear_54_54227)"/>
</g>
</g>
<path fill-rule="evenodd" clip-rule="evenodd" d="M104.549 55.5702C104.549 55.5702 101.579 65.2649 103.325 70.7034C104.605 74.6883 106.677 76.9347 108.617 77.2476C111.135 77.651 119.133 74.5562 121.24 71.524C123.347 68.4918 127.395 57.6357 120.83 52.7119C114.264 47.788 104.535 55.5772 104.535 55.5772L104.549 55.5702Z" fill="#FEDFC6"/>
<mask id="mask2_54_54227" style="mask-type:luminance" maskUnits="userSpaceOnUse" x="102" y="51" width="23" height="27">
<path d="M104.545 55.5722C104.545 55.5722 101.575 65.2668 103.321 70.7053C104.601 74.6903 106.673 76.9366 108.613 77.2496C111.131 77.6529 119.129 74.5582 121.236 71.526C123.343 68.4938 127.391 57.6377 120.826 52.7138C114.261 47.79 104.531 55.5791 104.531 55.5791L104.545 55.5722Z" fill="white"/>
</mask>
<g mask="url(#mask2_54_54227)">
<path fill-rule="evenodd" clip-rule="evenodd" d="M106.953 55.4933C106.953 55.4933 108.824 51.8839 109.805 53.859C110.785 55.8341 109.832 59.7982 112.246 62.8582C114.666 65.9113 117.684 69.0061 118.762 69.4025C119.84 69.7989 119.986 68.5818 119.986 68.5818L122.024 71.0368L124.465 64.4925L120.8 54.6727L107.767 49.3594L106.953 55.4933Z" fill="#F8C39B"/>
<g style="mix-blend-mode:soft-light">
<path d="M106.953 55.4933C106.953 55.4933 108.824 51.8839 109.805 53.859C110.785 55.8341 109.832 59.7982 112.246 62.8582C114.666 65.9113 117.684 69.0061 118.762 69.4025C119.84 69.7989 119.986 68.5818 119.986 68.5818L122.024 71.0368L124.465 64.4925L120.8 54.6727L107.767 49.3594L106.953 55.4933Z" fill="url(#paint2_linear_54_54227)"/>
<path d="M106.953 55.4933C106.953 55.4933 108.824 51.8839 109.805 53.859C110.785 55.8341 109.832 59.7982 112.246 62.8582C114.666 65.9113 117.684 69.0061 118.762 69.4025C119.84 69.7989 119.986 68.5818 119.986 68.5818L122.024 71.0368L124.465 64.4925L120.8 54.6727L107.767 49.3594L106.953 55.4933Z" fill="url(#paint3_linear_54_54227)"/>
</g>
</g>
<path fill-rule="evenodd" clip-rule="evenodd" d="M122.642 61.3917C122.642 61.3917 126.273 59.507 127.378 62.0733C128.227 64.0414 126.947 66.552 125.688 67.171C124.43 67.7899 122.489 68.388 122.489 68.388L122.649 61.3987L122.642 61.3917Z" fill="#FEDFC6"/>
<g style="mix-blend-mode:soft-light">
<path fill-rule="evenodd" clip-rule="evenodd" d="M123.219 63.8333C123.219 63.8333 125.827 59.8622 125.925 63.4925C125.987 65.7319 123.219 66.5525 123.219 66.5525L121.863 66.8933L123.219 63.8333Z" fill="#150005"/>
</g>
<g style="mix-blend-mode:soft-light">
<path d="M123.219 63.8333C123.219 63.8333 125.827 59.8622 125.925 63.4925C125.987 65.7319 123.219 66.5525 123.219 66.5525L121.863 66.8933L123.219 63.8333Z" fill="url(#paint4_linear_54_54227)"/>
</g>
<path fill-rule="evenodd" clip-rule="evenodd" d="M106.716 54.3688C106.716 54.3688 107.724 52.9083 110.325 54.341C112.439 55.5024 112.502 57.547 114.387 60.7948C115.854 63.3333 119.025 65.058 121.355 67.054C122.016 67.6173 123.177 69.9679 123.177 69.9679L124.867 57.7348C124.867 57.7348 123.539 47.2682 117.704 47.0039C112.307 46.7675 108.35 45.8564 106.298 48.6382C102.967 53.1518 106.709 54.3619 106.709 54.3619L106.716 54.3688Z" fill="#491B3C"/>
<path fill-rule="evenodd" clip-rule="evenodd" d="M122.927 71.1832C122.865 69.6253 122.482 67.5807 122.586 65.7447C122.746 62.9559 123.261 57.9277 123.261 57.9277C123.261 57.9277 124.506 61.4815 124.276 66.4193C124.186 68.3874 123.261 70.1539 123.261 70.1539L122.92 71.1762L122.927 71.1832Z" fill="#1B0306"/>
<path fill-rule="evenodd" clip-rule="evenodd" d="M107.145 53.5195C107.145 53.5195 109.336 53.3596 110.247 56.2944C111.332 59.2571 109.823 63.5828 115.303 65.0015C118.05 65.7457 119.747 66.4203 120.616 66.9141C121.493 67.4148 122.585 68.3676 122.605 68.3606C122.376 67.9294 121.194 66.8445 120.881 66.4829C121.444 66.3785 115.915 65.8083 113.766 61.1557C112.813 58.6798 112.869 58.1096 111.68 56.1623C110.63 54.4584 107.764 52.7754 107.757 52.7754C107.556 53.0188 107.354 53.2692 107.152 53.5126L107.145 53.5195Z" fill="#491B3C"/>
<path fill-rule="evenodd" clip-rule="evenodd" d="M101.208 78.7435C98.5309 80.2179 97.5016 84.2585 94.2816 90.6011C92.1049 94.899 91.4233 113.377 91.8406 117.592C92.2509 121.813 91.8197 125.291 92.6543 126.591C93.0229 127.168 97.6059 130.979 103.037 132.363C109.714 134.067 119.019 132.913 120.758 132.315C129.514 129.331 129.785 123.475 131.753 116.368C133.86 108.76 134.903 94.9547 132.977 90.1908C131.051 85.4269 127.385 82.9511 126.05 82.0122C124.965 81.2541 124.145 85.7885 118.72 86.9221C115.215 87.6524 106.244 96.7003 104.7 96.7837C104.373 96.8046 101.959 92.0894 103.684 85.2322C104.602 81.6019 107.718 77.5195 107.718 77.5195C107.718 77.5195 102.738 77.902 101.201 78.7435H101.208Z" fill="#FEA3B4"/>
<path fill-rule="evenodd" clip-rule="evenodd" d="M89.4134 127.147C89.629 125.047 90.4566 121.249 91.4511 120.603C92.0353 120.22 92.1327 122.397 94.7128 124.692C97.2721 126.973 112.725 134.213 121.592 130.005C126.433 127.71 128.422 123.774 129.333 124.692C130.244 125.603 138.36 134.331 139.514 151.683C140.669 169.041 140.717 186.768 139.514 188.493C138.311 190.211 135.328 200.205 116.71 195.851C98.0928 191.504 90.5679 187.589 89.4204 185.628C87.647 182.589 88.6832 134.359 89.4204 127.147H89.4134Z" fill="#6C86B5"/>
<g style="mix-blend-mode:multiply">
<path fill-rule="evenodd" clip-rule="evenodd" d="M93.3409 117.598C93.3409 117.598 96.3383 86.636 96.5956 85.6972C96.8529 84.7583 106.395 78.1862 107.591 77.9289C108.787 77.6716 108.029 78.4227 106.367 80.7942C104.705 83.1657 103.585 84.2923 102.702 86.9281C101.819 89.5639 99.607 101.435 99.447 108.195C99.2801 114.955 99.447 122.097 99.447 122.097C99.3914 122.097 99.4192 154.061 101.457 165.918C103.488 177.741 103.849 214.795 104.336 218.62C104.823 222.438 93.3409 217.799 93.3409 217.799C93.3409 217.799 91.8943 177.984 91.7135 176.9C91.5327 175.815 93.3409 117.598 93.3409 117.598ZM119.817 82.8319C121.952 80.7664 125.52 82.4216 125.52 82.4216L128.371 120.046C128.371 120.046 127.425 189.87 127.557 192.026C127.69 194.182 123.482 219.016 123.482 219.016C123.482 219.016 116.319 187.693 115.338 181.803C114.358 175.912 112.848 132.189 112.487 122.09C112.132 111.992 112.765 94.8563 114.525 91.0105C116.277 87.1646 117.682 84.8974 119.817 82.8319Z" fill="#CACDD8"/>
</g>
<path fill-rule="evenodd" clip-rule="evenodd" d="M105.037 77.8393C102.951 78.2357 92.7693 77.0743 87.9289 90.9278C85.8773 96.8045 80.564 117.654 79.3748 117.919C77.2328 118.405 73.519 117.369 72.0446 117.508C69.4228 117.766 64.9301 122.94 68.3796 126.097C73.0531 130.381 92.1225 134.206 92.818 115.464C93.9655 84.6131 107.84 77.3038 105.037 77.8393Z" fill="#BDCEF9"/>
<mask id="mask3_54_54227" style="mask-type:luminance" maskUnits="userSpaceOnUse" x="67" y="77" width="39" height="53">
<path d="M105.037 77.8413C102.951 78.2377 92.7693 77.0763 87.9289 90.9298C85.8773 96.8064 80.564 117.656 79.3748 117.921C77.2328 118.407 73.519 117.371 72.0446 117.51C69.4228 117.768 64.9301 122.942 68.3796 126.099C73.0531 130.383 92.1225 134.208 92.818 115.466C93.9655 84.615 107.84 77.3058 105.037 77.8413Z" fill="white"/>
</mask>
<g mask="url(#mask3_54_54227)">
<path fill-rule="evenodd" clip-rule="evenodd" d="M71.5106 115.667C71.1976 115.939 62.9912 116.662 66.6354 116.078C68.7844 115.73 74.2368 116.384 75.586 120.167C76.9213 123.922 72.7485 125.932 73.1449 126.301C73.8195 126.927 75.8016 126.6 77.5889 126.127C77.7975 126.071 79.1328 125.112 79.6614 123.846C80.1829 122.594 79.8839 120.633 80.0717 120.577C80.2108 120.536 80.7045 122.573 80.482 123.846C80.3012 124.868 79.3832 125.599 79.4805 125.571C80.3151 125.293 80.8854 125.077 80.8854 125.077C88.3407 121.134 88.2016 98.9764 92.6942 94.8106C95.49 92.2235 97.5764 109.888 99.2107 108.713C100.219 107.99 114.281 93.99 114.281 93.99C114.281 93.99 112.807 74.8996 112.244 74.7675C111.68 74.6354 86.1778 76.8121 86.1778 76.8121L71.5175 115.667H71.5106Z" fill="#E9F3FE"/>
</g>
<path fill-rule="evenodd" clip-rule="evenodd" d="M122.655 80.7741C125.367 80.4542 133.219 84.8634 135.285 92.2214C138.282 102.945 142.545 135.381 143.025 151.113C143.442 164.834 149.555 215.554 148.728 218.593C147.893 221.639 146.266 226.702 137.322 229.227C128.893 231.605 119.282 231.139 117.773 229.637C117.001 228.865 115.068 165.843 114.108 149.478C113.148 133.107 111.549 97.6459 114.922 90.1767C118.295 82.7075 119.95 81.094 122.662 80.7672L122.655 80.7741Z" fill="#E9F3FE"/>
<path fill-rule="evenodd" clip-rule="evenodd" d="M83.5567 158.479C84.0227 141.037 86.0186 93.523 91.7005 85.2748C96.0054 79.0227 107.161 76.6442 108.398 77.5066C109.636 78.362 104.817 80.5735 101.882 85.6852C98.9472 90.8037 97.2016 105.867 96.1793 126.585C95.1569 147.303 101.868 222.398 101.472 223.511C101.075 224.624 93.2931 221.953 88.8491 218.198C84.0435 214.136 84.2313 210.805 83.9601 208.385C83.6262 205.422 83.1603 173.035 83.5497 158.493L83.5567 158.479Z" fill="#E9F3FE"/>
<path fill-rule="evenodd" clip-rule="evenodd" d="M113.614 131.57C113.614 131.57 119.776 127.696 120.645 123.955C121.737 119.26 122.085 117.021 121.765 113.745C121.139 107.452 120.979 100.831 120.951 98.3549C120.84 89.6617 124.317 86.4904 125.84 86.6086C127.753 86.7547 126.654 90.2528 126.654 90.2528L128.691 111.722L121.765 128.329L113.621 131.57H113.614Z" fill="#BDCEF9"/>
<mask id="mask4_54_54227" style="mask-type:luminance" maskUnits="userSpaceOnUse" x="112" y="80" width="37" height="151">
<path d="M122.655 80.7741C125.367 80.4542 133.219 84.8634 135.285 92.2214C138.282 102.945 142.545 135.381 143.025 151.113C143.442 164.834 149.555 215.554 148.728 218.593C147.893 221.639 146.266 226.702 137.322 229.227C128.893 231.605 119.282 231.139 117.773 229.637C117.001 228.865 115.068 165.843 114.108 149.478C113.148 133.107 111.549 97.6459 114.922 90.1767C118.295 82.7075 119.95 81.094 122.662 80.7672L122.655 80.7741Z" fill="white"/>
</mask>
<g mask="url(#mask4_54_54227)">
<path fill-rule="evenodd" clip-rule="evenodd" d="M143.851 105.491C143.469 104.288 136.924 94.8574 136.924 94.8574C136.924 94.8574 140.45 138.101 141.403 152.525C142.356 166.949 147.057 205.957 146.696 209.782C146.334 213.607 145.472 221.236 145.472 221.236C145.472 221.236 154.123 222.571 154.429 221.646C154.742 220.721 157.086 154.479 156.467 152.942C155.848 151.398 144.227 106.708 143.844 105.498L143.851 105.491Z" fill="#BDCEF9"/>
</g>
<mask id="mask5_54_54227" style="mask-type:luminance" maskUnits="userSpaceOnUse" x="83" y="77" width="26" height="147">
<path d="M83.5567 158.479C84.0227 141.037 86.0186 93.523 91.7005 85.2748C96.0054 79.0227 107.161 76.6442 108.398 77.5066C109.636 78.362 104.817 80.5735 101.882 85.6852C98.9472 90.8037 97.2016 105.867 96.1793 126.585C95.1569 147.303 101.868 222.398 101.472 223.511C101.075 224.624 93.2931 221.953 88.8491 218.198C84.0435 214.136 84.2313 210.805 83.9601 208.385C83.6262 205.422 83.1603 173.035 83.5497 158.493L83.5567 158.479Z" fill="white"/>
</mask>
<g mask="url(#mask5_54_54227)">
<g style="mix-blend-mode:multiply">
<path fill-rule="evenodd" clip-rule="evenodd" d="M119.917 81.2976C119.917 81.2976 126.149 79.6007 124.786 81.2976C119.229 88.2035 122.038 99.8177 122.344 102.975C122.504 104.672 122.796 108.754 121.433 108.003C120.654 107.572 112.594 107.718 112.594 107.718C112.42 109.672 117.761 116.321 117.372 117.392C117.087 118.171 111.433 135.988 111.433 135.988L96.6056 130.724C96.6056 130.724 92.2381 113.08 91.9529 112.051C91.6678 111.021 95.7571 103.337 95.7571 103.337C95.7571 103.337 92.1755 99.1709 91.9321 98.1347C91.5843 96.6603 98.1634 88.9407 98.1634 88.9407C98.1634 88.9407 107.024 79.6702 107.239 79.6563C107.455 79.6424 119.917 81.3046 119.917 81.3046V81.2976Z" fill="#BDC8EC"/>
</g>
<path fill-rule="evenodd" clip-rule="evenodd" d="M120.226 80.4968C120.226 80.4968 126.457 78.7999 125.094 80.4968C119.537 87.4027 122.347 99.0169 122.653 102.174C122.813 103.871 123.105 107.954 121.742 107.202C120.963 106.771 112.903 106.917 112.903 106.917C112.729 108.872 118.07 115.52 117.681 116.591C117.395 117.37 111.741 135.188 111.741 135.188L96.9141 129.923C96.9141 129.923 92.5467 112.279 92.2615 111.25C91.9764 110.221 96.0657 102.536 96.0657 102.536C96.0657 102.536 92.4841 98.3701 92.2407 97.3339C91.8929 95.8595 98.472 88.1399 98.472 88.1399C98.472 88.1399 107.332 78.8695 107.548 78.8556C107.763 78.8416 120.226 80.5038 120.226 80.5038V80.4968Z" fill="#CCD9F2"/>
</g>
<mask id="mask6_54_54227" style="mask-type:luminance" maskUnits="userSpaceOnUse" x="112" y="80" width="37" height="151">
<path d="M122.655 80.7741C125.367 80.4542 133.219 84.8634 135.285 92.2214C138.282 102.945 142.545 135.381 143.025 151.113C143.442 164.834 149.555 215.554 148.728 218.593C147.893 221.639 146.266 226.702 137.322 229.227C128.893 231.605 119.282 231.139 117.773 229.637C117.001 228.865 115.068 165.843 114.108 149.478C113.148 133.107 111.549 97.6459 114.922 90.1767C118.295 82.7075 119.95 81.094 122.662 80.7672L122.655 80.7741Z" fill="white"/>
</mask>
<g mask="url(#mask6_54_54227)">
<g style="mix-blend-mode:multiply">
<path fill-rule="evenodd" clip-rule="evenodd" d="M120.355 81.4979C120.355 81.4979 126.586 79.801 125.223 81.4979C119.666 88.4038 122.476 100.018 122.782 103.175C122.942 104.872 123.234 108.955 121.871 108.204C121.092 107.772 113.032 107.918 113.032 107.918C112.858 109.873 118.199 116.521 117.809 117.585C117.524 118.364 111.87 136.182 111.87 136.182L97.043 130.917C97.043 130.917 92.6756 113.273 92.3904 112.244C92.1053 111.215 96.1946 103.53 96.1946 103.53C96.1946 103.53 92.613 99.3642 92.3696 98.328C92.0218 96.8536 98.6009 89.1341 98.6009 89.1341C98.6009 89.1341 107.461 79.8636 107.677 79.8497C107.892 79.8358 120.355 81.4979 120.355 81.4979Z" fill="#BDC8EC"/>
</g>
<path fill-rule="evenodd" clip-rule="evenodd" d="M119.605 79.9597C119.605 79.9597 125.836 78.2628 124.473 79.9597C118.916 86.8656 121.726 98.4798 122.032 101.637C122.192 103.334 122.484 107.416 121.121 106.665C120.342 106.234 112.282 106.38 112.282 106.38C112.108 108.334 117.449 114.983 117.059 116.054C116.774 116.833 111.12 134.651 111.12 134.651L96.293 129.386C96.293 129.386 91.9256 111.742 91.6404 110.713C91.3553 109.684 95.4446 101.999 95.4446 101.999C95.4446 101.999 91.863 97.833 91.6196 96.7968C91.2718 95.3224 97.8509 87.6028 97.8509 87.6028C97.8509 87.6028 106.711 78.3324 106.927 78.3184C107.142 78.3045 119.605 79.9667 119.605 79.9667V79.9597Z" fill="#CCD9F2"/>
</g>
<path fill-rule="evenodd" clip-rule="evenodd" d="M107.92 119.128C107.245 118.731 100.701 113.446 98.2388 110.949C96.2707 108.946 94.0591 108.793 92.8907 108.327C92.397 108.133 89.5247 105.462 88.9197 104.196C88.3077 102.924 88.4468 102.082 88.5441 101.053C88.7319 99.1055 89.2326 98.2014 90.2341 98.6744C90.3662 98.737 89.7195 97.5129 89.8933 96.6367C90.1645 95.3153 91.5833 93.7088 91.5833 95.9551C91.5833 96.5671 92.4039 97.5547 93.2732 98.6744C94.2677 99.954 96.4167 100.865 96.3889 100.371C96.375 100.037 97.1678 99.1055 97.3278 98.3336C97.599 97.0192 97.4251 95.816 98.3431 96.2959C98.983 96.6228 98.9343 96.7132 99.3585 97.659C99.5532 98.0902 99.9566 99.5159 100.374 100.037C102.787 103.077 102.092 101.853 102.53 104.391C103.371 109.287 112.53 111.207 112.211 112.57C111.891 113.933 108.58 119.531 107.906 119.135L107.92 119.128Z" fill="#FEDFC6"/>
<mask id="mask7_54_54227" style="mask-type:luminance" maskUnits="userSpaceOnUse" x="88" y="94" width="25" height="26">
<path d="M107.923 119.128C107.249 118.731 100.705 113.446 98.2427 110.949C96.2746 108.946 94.063 108.793 92.8946 108.327C92.4009 108.133 89.5286 105.462 88.9236 104.196C88.3116 102.924 88.4507 102.082 88.548 101.053C88.7358 99.1055 89.2365 98.2014 90.238 98.6744C90.3701 98.737 89.7234 97.5129 89.8972 96.6367C90.1685 95.3153 91.5872 93.7088 91.5872 95.9551C91.5872 96.5671 92.4078 97.5547 93.2771 98.6744C94.2717 99.954 96.4206 100.865 96.3928 100.371C96.3789 100.037 97.1717 99.1055 97.3317 98.3336C97.6029 97.0192 97.429 95.816 98.347 96.2959C98.9869 96.6228 98.9382 96.7132 99.3624 97.659C99.5571 98.0902 99.9605 99.5159 100.378 100.037C102.791 103.077 102.096 101.853 102.534 104.391C103.375 109.287 112.534 111.207 112.214 112.57C111.895 113.933 108.584 119.531 107.91 119.135L107.923 119.128Z" fill="white"/>
</mask>
<g mask="url(#mask7_54_54227)">
<path fill-rule="evenodd" clip-rule="evenodd" d="M89.6214 95.8008C89.6214 95.8008 91.52 97.7828 89.8509 100.412C88.9955 101.754 89.7257 103.597 89.7257 103.597L91.9094 106.664L95.797 109.07L97.8626 109.835L99.017 109.779L101.458 106.483L102.64 107.005C102.64 107.005 100.874 108.083 100.721 109.119C100.568 110.155 99.9837 111.755 99.9837 111.755L105.965 115.496L107.293 118.897L94.8304 118.654L82.5486 104.828L89.6214 95.8147V95.8008Z" fill="#F8C39B"/>
<g style="mix-blend-mode:soft-light">
<path d="M89.6214 95.8008C89.6214 95.8008 91.52 97.7828 89.8509 100.412C88.9955 101.754 89.7257 103.597 89.7257 103.597L91.9094 106.664L95.797 109.07L97.8626 109.835L99.017 109.779L101.458 106.483L102.64 107.005C102.64 107.005 100.874 108.083 100.721 109.119C100.568 110.155 99.9837 111.755 99.9837 111.755L105.965 115.496L107.293 118.897L94.8304 118.654L82.5486 104.828L89.6214 95.8147V95.8008Z" fill="url(#paint5_linear_54_54227)"/>
<path d="M89.6214 95.8008C89.6214 95.8008 91.52 97.7828 89.8509 100.412C88.9955 101.754 89.7257 103.597 89.7257 103.597L91.9094 106.664L95.797 109.07L97.8626 109.835L99.017 109.779L101.458 106.483L102.64 107.005C102.64 107.005 100.874 108.083 100.721 109.119C100.568 110.155 99.9837 111.755 99.9837 111.755L105.965 115.496L107.293 118.897L94.8304 118.654L82.5486 104.828L89.6214 95.8147V95.8008Z" fill="url(#paint6_linear_54_54227)"/>
</g>
</g>
<path fill-rule="evenodd" clip-rule="evenodd" d="M104.176 106.464C104.176 106.464 102.486 103.807 99.8848 105.754C97.2838 107.702 95.7468 109.517 95.8303 111.617C95.9207 113.954 98.9459 113.53 98.9459 113.53L98.3618 112.452C98.3618 112.452 96.4075 111.86 97.4229 110.129C98.8625 107.66 101.241 106.262 102.361 106.631C103.383 106.964 104.127 107.931 104.127 107.931L104.176 106.464Z" fill="#6172F3"/>
<path fill-rule="evenodd" clip-rule="evenodd" d="M105.236 106.582C105.236 106.582 102.871 104.496 100.917 107.083C98.963 109.67 97.9893 111.833 98.65 113.836C99.3872 116.054 102.176 114.816 102.176 114.816L101.314 113.94C101.314 113.94 99.2759 113.912 99.7628 111.965C100.458 109.197 102.357 107.194 103.539 107.243C104.617 107.285 105.598 108.001 105.598 108.001L105.236 106.575V106.582Z" fill="#FC9D8B"/>
<path fill-rule="evenodd" clip-rule="evenodd" d="M72.5986 117.105C72.6056 114.559 71.4094 109.573 70.1576 108.516C68.9058 107.459 68.3772 103.682 67.3062 103.606C66.0892 103.516 65.5537 104.093 67.2784 109.274C67.6122 110.289 59.1068 102.229 57.5281 101.972C55.9494 101.714 55.6503 103.279 56.3041 104.016C56.9648 104.753 62.4102 109.74 62.4102 109.74C62.4102 109.74 54.8923 105.797 53.8561 106.061C52.8198 106.325 53.6683 109.163 53.8561 110.971C54.0438 112.779 55.5738 113.6 57.1178 113.836C58.4669 114.045 60.7828 115.881 60.7828 115.881C60.7828 115.881 56.4988 115.199 55.8937 115.47C55.546 115.63 54.3985 116.208 55.0801 117.105C55.6851 117.905 57.2429 118.377 61.1862 119.149C62.5771 119.421 68.864 123.197 69.33 123.649C69.796 124.101 74.4625 124.185 75.0327 122.015C76.0342 118.197 72.5778 119.33 72.5917 117.105H72.5986Z" fill="#FEDFC6"/>
<mask id="mask8_54_54227" style="mask-type:luminance" maskUnits="userSpaceOnUse" x="53" y="101" width="23" height="23">
<path d="M72.5986 117.105C72.6056 114.559 71.4094 109.573 70.1576 108.516C68.9058 107.459 68.3772 103.682 67.3062 103.606C66.0892 103.516 65.5537 104.093 67.2784 109.274C67.6122 110.289 59.1068 102.229 57.5281 101.972C55.9494 101.714 55.6503 103.279 56.3041 104.016C56.9648 104.753 62.4102 109.74 62.4102 109.74C62.4102 109.74 54.8923 105.797 53.8561 106.061C52.8198 106.325 53.6683 109.163 53.8561 110.971C54.0438 112.779 55.5738 113.6 57.1178 113.836C58.4669 114.045 60.7828 115.881 60.7828 115.881C60.7828 115.881 56.4988 115.199 55.8937 115.47C55.546 115.63 54.3985 116.208 55.0801 117.105C55.6851 117.905 57.2429 118.377 61.1862 119.149C62.5771 119.421 68.864 123.197 69.33 123.649C69.796 124.101 74.4625 124.185 75.0327 122.015C76.0342 118.197 72.5778 119.33 72.5917 117.105H72.5986Z" fill="white"/>
</mask>
<g mask="url(#mask8_54_54227)">
<path fill-rule="evenodd" clip-rule="evenodd" d="M67.2925 103.058C67.2925 103.058 65.4078 103.273 66.0685 104.692C66.7292 106.111 66.8822 109.602 66.8822 109.602C66.8822 109.602 65.9016 111.368 66.4719 112.871C67.0491 114.373 67.6959 116.55 67.6959 116.55C67.6959 116.55 65.3661 113.566 65.2548 112.05C65.1436 110.534 65.6651 108.371 65.6651 108.371L57.9247 101.013L54.2596 101.423C54.2596 101.423 54.3153 102.522 55.4836 103.468C56.652 104.414 62.8138 110.012 62.8138 110.012H61.1864L53.8563 105.102L51.8186 106.326C51.8186 106.326 51.4083 108.128 52.2289 108.371C53.0495 108.614 55.0803 110.005 55.0803 110.005C55.0803 110.005 51.443 109.372 51.8186 110.005C52.1941 110.638 52.4723 112.252 53.446 112.46C54.4196 112.669 57.3266 113.232 58.7384 114.095C60.1502 114.957 60.3658 115.729 60.3658 115.729H58.7384L50.5946 114.505C50.5946 114.505 52.361 115.847 53.446 116.55C54.5309 117.252 60.1988 118.768 61.1864 118.594C62.1739 118.42 65.7138 120.813 66.8892 121.46C68.0645 122.099 69.2398 122.329 69.7405 121.87C70.2413 121.411 70.1508 122.691 70.1508 122.691L71.7782 124.325C71.7782 124.325 70.1995 125.166 69.7405 125.549C69.2885 125.938 50.1912 118.594 50.1912 118.594L44.8988 111.229C44.8988 111.229 48.3969 100.234 48.9742 100.185C49.5514 100.137 58.7523 94.8652 58.7523 94.8652L68.1201 99.3648L75.0469 110.409L67.3064 103.044L67.2925 103.058Z" fill="#F8C39B"/>
<g style="mix-blend-mode:soft-light">
<path d="M67.2925 103.058C67.2925 103.058 65.4078 103.273 66.0685 104.692C66.7292 106.111 66.8822 109.602 66.8822 109.602C66.8822 109.602 65.9016 111.368 66.4719 112.871C67.0491 114.373 67.6959 116.55 67.6959 116.55C67.6959 116.55 65.3661 113.566 65.2548 112.05C65.1436 110.534 65.6651 108.371 65.6651 108.371L57.9247 101.013L54.2596 101.423C54.2596 101.423 54.3153 102.522 55.4836 103.468C56.652 104.414 62.8138 110.012 62.8138 110.012H61.1864L53.8563 105.102L51.8186 106.326C51.8186 106.326 51.4083 108.128 52.2289 108.371C53.0495 108.614 55.0803 110.005 55.0803 110.005C55.0803 110.005 51.443 109.372 51.8186 110.005C52.1941 110.638 52.4723 112.252 53.446 112.46C54.4196 112.669 57.3266 113.232 58.7384 114.095C60.1502 114.957 60.3658 115.729 60.3658 115.729H58.7384L50.5946 114.505C50.5946 114.505 52.361 115.847 53.446 116.55C54.5309 117.252 60.1988 118.768 61.1864 118.594C62.1739 118.42 65.7138 120.813 66.8892 121.46C68.0645 122.099 69.2398 122.329 69.7405 121.87C70.2413 121.411 70.1508 122.691 70.1508 122.691L71.7782 124.325C71.7782 124.325 70.1995 125.166 69.7405 125.549C69.2885 125.938 50.1912 118.594 50.1912 118.594L44.8988 111.229C44.8988 111.229 48.3969 100.234 48.9742 100.185C49.5514 100.137 58.7523 94.8652 58.7523 94.8652L68.1201 99.3648L75.0469 110.409L67.3064 103.044L67.2925 103.058Z" fill="url(#paint7_linear_54_54227)"/>
<path d="M67.2925 103.058C67.2925 103.058 65.4078 103.273 66.0685 104.692C66.7292 106.111 66.8822 109.602 66.8822 109.602C66.8822 109.602 65.9016 111.368 66.4719 112.871C67.0491 114.373 67.6959 116.55 67.6959 116.55C67.6959 116.55 65.3661 113.566 65.2548 112.05C65.1436 110.534 65.6651 108.371 65.6651 108.371L57.9247 101.013L54.2596 101.423C54.2596 101.423 54.3153 102.522 55.4836 103.468C56.652 104.414 62.8138 110.012 62.8138 110.012H61.1864L53.8563 105.102L51.8186 106.326C51.8186 106.326 51.4083 108.128 52.2289 108.371C53.0495 108.614 55.0803 110.005 55.0803 110.005C55.0803 110.005 51.443 109.372 51.8186 110.005C52.1941 110.638 52.4723 112.252 53.446 112.46C54.4196 112.669 57.3266 113.232 58.7384 114.095C60.1502 114.957 60.3658 115.729 60.3658 115.729H58.7384L50.5946 114.505C50.5946 114.505 52.361 115.847 53.446 116.55C54.5309 117.252 60.1988 118.768 61.1864 118.594C62.1739 118.42 65.7138 120.813 66.8892 121.46C68.0645 122.099 69.2398 122.329 69.7405 121.87C70.2413 121.411 70.1508 122.691 70.1508 122.691L71.7782 124.325C71.7782 124.325 70.1995 125.166 69.7405 125.549C69.2885 125.938 50.1912 118.594 50.1912 118.594L44.8988 111.229C44.8988 111.229 48.3969 100.234 48.9742 100.185C49.5514 100.137 58.7523 94.8652 58.7523 94.8652L68.1201 99.3648L75.0469 110.409L67.3064 103.044L67.2925 103.058Z" fill="url(#paint8_linear_54_54227)"/>
</g>
</g>
<path fill-rule="evenodd" clip-rule="evenodd" d="M132.092 86.5263C127.502 83.9045 123.163 85.9213 120.687 93.0706C118.329 99.893 124.602 116.25 122.829 117.794C121.751 118.733 107.39 108.141 104.566 107.939C102.299 107.78 98.7381 113.246 99.4892 115.756C100.331 118.552 126.876 141.454 135.34 131.05C148.776 114.532 136.536 89.0717 132.085 86.5333L132.092 86.5263Z" fill="#E9F3FE"/>
<path fill-rule="evenodd" clip-rule="evenodd" d="M123.189 116.764C123.189 116.764 122.73 117.591 123.53 118.801C124.329 120.012 125.56 122.202 125.56 122.202C125.56 122.202 124.601 119.671 124.545 119.142C124.489 118.614 126.416 120.081 126.576 119.483C126.736 118.885 125.491 118.259 124.886 117.445C124.274 116.632 123.196 116.764 123.196 116.764H123.189Z" fill="#BDCEF9"/>
<mask id="mask9_54_54227" style="mask-type:luminance" maskUnits="userSpaceOnUse" x="99" y="85" width="43" height="49">
<path d="M132.096 86.5244C127.506 83.9025 123.166 85.9193 120.691 93.0686C118.333 99.8911 124.606 116.248 122.833 117.792C121.755 118.731 107.393 108.139 104.57 107.938C102.303 107.778 98.742 113.244 99.4931 115.754C100.335 118.55 126.88 141.452 135.344 131.048C148.78 114.53 136.54 89.0698 132.089 86.5313L132.096 86.5244Z" fill="white"/>
</mask>
<g mask="url(#mask9_54_54227)">
<path fill-rule="evenodd" clip-rule="evenodd" d="M132.134 85.8496C132.134 85.8496 142.747 111.345 136.537 124.121C130.743 136.041 120.597 129.204 116.918 127.181C113.913 125.525 106.611 119.343 106.639 118.599C106.66 118.001 106.764 116.638 107.202 115.706C107.856 114.315 108.92 113.39 108.92 113.39C108.92 113.39 107.32 114.28 106.333 115.42C105.505 116.38 105.304 117.646 104.9 117.451C104.379 117.201 102.876 116.088 101.722 114.857C100.908 113.988 101.423 111.679 101.423 111.679L97.132 118.926C97.132 118.926 119.561 148.156 130.493 139.838C140.487 132.237 144.75 118.981 144.75 118.981V103.848C144.75 103.848 142.351 92.4773 139.458 89.5355C136.564 86.5937 132.127 85.8566 132.127 85.8566L132.134 85.8496Z" fill="#BDCEF9"/>
</g>
<path fill-rule="evenodd" clip-rule="evenodd" d="M32.1608 175.636C32.1608 166.303 35.5407 164.947 35.5407 164.947C35.5407 163.069 38.7467 164.202 40.6106 165.287L100.114 194.044C101.414 194.796 104.669 195.804 106.519 196.979L106.568 194.65C106.568 192.772 108.084 190.379 109.948 189.295L165.042 157.331C166.906 156.246 168.422 156.893 168.422 158.764V276.846C168.429 278.723 166.92 281.123 165.049 282.208L131.222 302.557C131.166 302.592 131.09 302.626 130.992 302.654C123.579 307.933 94.3834 310.04 79.4728 303.231C46.4802 288.175 35.499 277.374 35.499 277.374C33.6282 276.289 32.119 273.89 32.119 272.012C32.119 272.012 32.1608 199.073 32.1608 175.629V175.636Z" fill="#FEA3B4"/>
<mask id="mask10_54_54227" style="mask-type:luminance" maskUnits="userSpaceOnUse" x="32" y="156" width="137" height="152">
<path d="M32.1569 175.636C32.1569 166.303 35.5368 164.947 35.5368 164.947C35.5368 163.069 38.7428 164.202 40.6067 165.287L100.11 194.044C101.411 194.796 104.665 195.804 106.515 196.979L106.564 194.65C106.564 192.772 108.08 190.379 109.944 189.295L165.038 157.331C166.902 156.246 168.418 156.893 168.418 158.764V276.846C168.425 278.723 166.916 281.123 165.045 282.208L131.218 302.557C131.162 302.592 131.086 302.626 130.988 302.654C123.575 307.933 94.3795 310.04 79.4689 303.231C46.4763 288.175 35.4951 277.374 35.4951 277.374C33.6243 276.289 32.1151 273.89 32.1151 272.012C32.1151 272.012 32.1569 199.073 32.1569 175.629V175.636Z" fill="white"/>
</mask>
<g mask="url(#mask10_54_54227)">
<g style="mix-blend-mode:soft-light">
<path fill-rule="evenodd" clip-rule="evenodd" d="M27.2192 171.102C27.2192 171.102 43.938 181.86 64.0854 191.826C76.555 197.995 81.145 200.304 103.998 199.984C105.354 199.963 106.654 199.914 107.906 199.831C108.789 199.775 108.567 311.181 109.408 311.09C119.027 310.068 157.91 288.683 166.568 284.246C184.852 274.885 170.289 169.739 170.289 169.739L157.437 155.127L32.2891 162.603L27.2192 171.095V171.102Z" fill="#554F6E"/>
</g>
</g>
<path fill-rule="evenodd" clip-rule="evenodd" d="M49.5592 195.331L75.0686 210.214C78.5042 212.217 81.293 217.453 81.293 221.904V254.959C81.293 259.41 78.5111 261.392 75.0686 259.39L49.5592 244.5C46.1236 242.497 43.3349 237.26 43.3349 232.809V199.754C43.3349 195.303 46.1167 193.321 49.5592 195.324V195.331Z" fill="#FD6F8E"/>
<mask id="mask11_54_54227" style="mask-type:luminance" maskUnits="userSpaceOnUse" x="43" y="194" width="39" height="67">
<path d="M49.5553 195.331L75.0647 210.214C78.5003 212.217 81.2891 217.453 81.2891 221.904V254.959C81.2891 259.41 78.5072 261.392 75.0647 259.39L49.5553 244.5C46.1197 242.497 43.331 237.26 43.331 232.809V199.754C43.331 195.303 46.1128 193.321 49.5553 195.324V195.331Z" fill="white"/>
</mask>
<g mask="url(#mask11_54_54227)">
<path fill-rule="evenodd" clip-rule="evenodd" d="M53.2488 192.076L78.7999 206.945C82.2425 208.948 85.0312 214.178 85.0312 218.622V251.635C85.0312 256.079 82.2425 258.061 78.7999 256.058L53.2488 241.189C49.8063 239.186 47.0175 233.957 47.0175 229.513V196.499C47.0175 192.055 49.8063 190.073 53.2488 192.076Z" fill="#FEA3B4" fill-opacity="0.5"/>
<path fill-rule="evenodd" clip-rule="evenodd" d="M53.0004 208.093C53.522 208.023 54.1201 208.162 54.7599 208.524L59.5446 211.271L60.407 202.946C60.407 201.34 62.403 200.255 63.3349 199.921C63.9399 199.699 64.691 199.796 65.4978 200.255L69.1976 202.383C71.2422 203.558 72.8974 206.66 72.8974 209.324V218.949L80.3041 223.198C82.3487 224.373 84.0039 227.475 84.0039 230.139V234.951C84.0039 235.779 83.844 236.467 83.5588 236.982C82.9329 238.123 79.1705 238.762 77.7656 237.956L72.8974 236.335V242.525C72.8974 243.443 72.7027 244.187 72.355 244.716C71.7013 245.724 68.9055 247.706 67.5633 246.941L65.4908 243.081C63.4462 241.906 61.791 238.804 61.791 236.147L61.0121 227.579L54.7529 222.969C52.7083 221.793 51.0531 218.691 51.0531 216.035L48.5842 212.168C48.5425 209.539 51.839 208.253 53.0004 208.1V208.093Z" fill="#6172F3"/>
<path fill-rule="evenodd" clip-rule="evenodd" d="M52.1791 209.941L59.2241 213.996V204.343C59.2241 201.679 60.8862 200.469 62.9309 201.645L66.6377 203.78C68.6823 204.955 70.3445 208.071 70.3445 210.741V220.394L77.7581 224.657C79.8027 225.833 81.4648 228.948 81.4648 231.619V236.445C81.4648 239.109 79.8027 240.319 77.7581 239.144L70.3445 234.881V244.054C70.3445 246.717 68.6823 247.927 66.6377 246.745L62.9309 244.61C60.8862 243.435 59.2241 240.319 59.2241 237.649V228.475L52.1791 224.421C50.1345 223.246 48.4723 220.13 48.4723 217.459V212.633C48.4723 209.969 50.1345 208.759 52.1791 209.935V209.941Z" fill="#8098F9"/>
</g>
<path fill-rule="evenodd" clip-rule="evenodd" d="M170.373 158.115C170.373 158.115 165.943 155.778 151.102 147.579C150.546 147.273 126.469 153.594 116.281 153.017C88.4971 151.438 77.5853 143.893 72.6476 140.381C70.7142 139.004 65.6235 139.706 63.544 140.784C52.2011 146.626 28.7642 160.166 28.7642 160.166C26.9699 161.21 27.4359 165.466 27.4011 166.794C27.3663 168.067 28.1522 169.319 29.7726 170.257C29.7726 170.257 48.1883 181.204 65.1645 190.391C74.6714 195.537 86.7863 197.665 98.9915 197.867C114.173 198.118 118.096 196.497 128.416 191.073C147.555 181.002 168.635 168.449 168.635 168.449C170.325 167.469 171.243 166.217 171.368 164.965C171.507 163.616 172.077 159.116 170.359 158.115H170.373Z" fill="#CAD1F2"/>
<mask id="mask12_54_54227" style="mask-type:luminance" maskUnits="userSpaceOnUse" x="27" y="139" width="145" height="59">
<path d="M170.373 158.115C170.373 158.115 165.943 155.778 151.102 147.579C150.546 147.273 126.469 153.594 116.281 153.017C88.4971 151.438 77.5853 143.893 72.6476 140.381C70.7142 139.004 65.6235 139.706 63.544 140.784C52.2011 146.626 28.7642 160.166 28.7642 160.166C26.9699 161.21 27.4359 165.466 27.4011 166.794C27.3663 168.067 28.1522 169.319 29.7726 170.257C29.7726 170.257 48.1883 181.204 65.1645 190.391C74.6714 195.537 86.7863 197.665 98.9915 197.867C114.173 198.118 118.096 196.497 128.416 191.073C147.555 181.002 168.635 168.449 168.635 168.449C170.325 167.469 171.243 166.217 171.368 164.965C171.507 163.616 172.077 159.116 170.359 158.115H170.373Z" fill="white"/>
</mask>
<g mask="url(#mask12_54_54227)">
<path fill-rule="evenodd" clip-rule="evenodd" d="M-45.3693 114.538C-45.3693 114.538 -48.0468 116.694 -45.3693 118.613C-43.1438 120.206 30.5121 163.276 65.744 181.81C73.9157 186.108 81.9969 191.588 100.621 190.642C107.924 190.273 120.184 187.645 125.296 184.863C139.873 176.941 148.316 172.797 154.032 169.236C161.752 164.416 172.26 160.348 172.281 155.647C172.295 153.47 148.914 105.115 146.598 102.98C144.282 100.851 19.4752 42.2939 21.5477 42.5025C23.6201 42.7111 -28.8104 77.1572 -28.8104 77.1572L-45.3693 114.531V114.538Z" fill="#DFE7FE"/>
</g>
<path fill-rule="evenodd" clip-rule="evenodd" d="M100.868 153.574L120.598 166.558C121.238 166.982 121.238 167.587 120.598 167.914L91.855 182.567C91.2152 182.894 90.1789 182.818 89.5322 182.393L69.802 169.409C69.1622 168.985 69.1622 168.38 69.802 168.053L98.5453 153.4C99.1851 153.073 100.221 153.149 100.868 153.574Z" fill="#D5D4F2"/>
<path fill-rule="evenodd" clip-rule="evenodd" d="M99.1884 153.804L118.919 166.788C119.558 167.213 119.558 167.818 118.919 168.144L90.1753 182.798C89.5355 183.125 88.4992 183.048 87.8525 182.624L68.1223 169.64C67.4825 169.215 67.4825 168.61 68.1223 168.284L96.8656 153.63C97.5054 153.303 98.5417 153.38 99.1884 153.804Z" fill="#E9F3FE"/>
<path fill-rule="evenodd" clip-rule="evenodd" d="M96.5108 152.594L118.786 160.71C119.51 160.974 119.649 161.565 119.092 162.031L94.2714 182.888C93.722 183.354 92.6857 183.514 91.9625 183.25L69.6869 175.134C68.9637 174.87 68.8246 174.278 69.3809 173.813L94.2018 152.956C94.7582 152.49 95.7875 152.33 96.5108 152.594Z" fill="#D5D4F2"/>
<path fill-rule="evenodd" clip-rule="evenodd" d="M95.885 151.258L118.091 159.374C118.814 159.638 118.953 160.23 118.397 160.696L93.6526 181.552C93.1032 182.018 92.0669 182.178 91.3506 181.914L69.1446 173.798C68.4214 173.534 68.2823 172.943 68.8386 172.477L93.583 151.62C94.1324 151.154 95.1687 150.994 95.885 151.258Z" fill="#E9F3FE"/>
<path fill-rule="evenodd" clip-rule="evenodd" d="M94.2932 151.009L116.909 158.312C117.647 158.548 117.807 159.132 117.264 159.612L93.1109 181.276C92.5754 181.755 91.5391 181.957 90.8089 181.721L68.1926 174.418C67.4554 174.182 67.2955 173.598 67.8379 173.118L91.9912 151.454C92.5267 150.974 93.5629 150.773 94.2932 151.009Z" fill="#D5D4F2"/>
<path fill-rule="evenodd" clip-rule="evenodd" d="M93.7818 150.43L116.329 157.754C117.059 157.99 117.219 158.574 116.683 159.061L92.6064 180.787C92.0709 181.274 91.0417 181.469 90.3114 181.232L67.7647 173.909C67.0345 173.673 66.8745 173.088 67.41 172.602L91.4868 150.875C92.0223 150.389 93.0515 150.194 93.7818 150.43Z" fill="#E9F3FE"/>
<path d="M90.0381 155.973L107.781 161.232L107.584 161.899L89.8405 156.64L90.0381 155.973Z" fill="#D5D4F2"/>
<path d="M87.3858 158.078L105.07 163.363L104.871 164.03L87.1867 158.744L87.3858 158.078Z" fill="#D5D4F2"/>
<path d="M85.0658 160.493L102.703 165.814L102.502 166.48L84.8649 161.159L85.0658 160.493Z" fill="#D5D4F2"/>
<path d="M82.4212 162.571L99.9922 167.92L99.7897 168.585L82.2186 163.237L82.4212 162.571Z" fill="#D5D4F2"/>
<path d="M79.4532 164.999L96.957 170.377L96.7528 171.042L79.249 165.664L79.4532 164.999Z" fill="#D5D4F2"/>
<path d="M76.8137 167.066L94.2578 172.473L94.0519 173.137L76.6078 167.73L76.8137 167.066Z" fill="#D5D4F2"/>
<path d="M74.5095 169.478L91.9062 174.92L91.6986 175.584L74.3019 170.142L74.5095 169.478Z" fill="#D5D4F2"/>
<path d="M71.8779 171.525L89.2148 176.994L89.0056 177.657L71.6687 172.188L71.8779 171.525Z" fill="#D5D4F2"/>
<defs>
<linearGradient id="paint0_linear_54_54227" x1="116.401" y1="82.7348" x2="112.951" y2="76.281" gradientUnits="userSpaceOnUse">
<stop stop-color="#808080"/>
<stop offset="1" stop-color="#3E2C66"/>
</linearGradient>
<linearGradient id="paint1_linear_54_54227" x1="116.401" y1="82.7348" x2="112.951" y2="76.281" gradientUnits="userSpaceOnUse">
<stop stop-color="#808080"/>
<stop offset="1" stop-color="#3E2C66"/>
</linearGradient>
<linearGradient id="paint2_linear_54_54227" x1="124.061" y1="79.8622" x2="116.836" y2="62.281" gradientUnits="userSpaceOnUse">
<stop stop-color="#808080"/>
<stop offset="1" stop-color="#3E2C66"/>
</linearGradient>
<linearGradient id="paint3_linear_54_54227" x1="124.061" y1="79.8622" x2="116.836" y2="62.281" gradientUnits="userSpaceOnUse">
<stop stop-color="#808080"/>
<stop offset="1" stop-color="#3E2C66"/>
</linearGradient>
<linearGradient id="paint4_linear_54_54227" x1="122.559" y1="72.603" x2="124.283" y2="63.2213" gradientUnits="userSpaceOnUse">
<stop stop-color="#808080"/>
<stop offset="1" stop-color="#3E2C66"/>
</linearGradient>
<linearGradient id="paint5_linear_54_54227" x1="84.468" y1="100.62" x2="96.7985" y2="111.115" gradientUnits="userSpaceOnUse">
<stop stop-color="#808080"/>
<stop offset="1" stop-color="#3E2C66"/>
</linearGradient>
<linearGradient id="paint6_linear_54_54227" x1="84.468" y1="100.62" x2="96.7985" y2="111.115" gradientUnits="userSpaceOnUse">
<stop stop-color="#808080"/>
<stop offset="1" stop-color="#3E2C66"/>
</linearGradient>
<linearGradient id="paint7_linear_54_54227" x1="53.6963" y1="104.935" x2="73.3986" y2="119.575" gradientUnits="userSpaceOnUse">
<stop stop-color="#808080"/>
<stop offset="1" stop-color="#3E2C66"/>
</linearGradient>
<linearGradient id="paint8_linear_54_54227" x1="53.6963" y1="104.935" x2="73.3986" y2="119.575" gradientUnits="userSpaceOnUse">
<stop stop-color="#808080"/>
<stop offset="1" stop-color="#3E2C66"/>
</linearGradient>
</defs>
</svg>
