<svg width="80" height="80" viewBox="0 0 80 80" fill="none" xmlns="http://www.w3.org/2000/svg">
<path d="M51.6676 24.9998L63.3343 13.3332M70.0009 6.6665L63.3343 13.3332L70.0009 6.6665ZM37.9676 38.6998C39.6887 40.3981 41.0569 42.42 41.9934 44.6491C42.9299 46.8783 43.4162 49.2707 43.4243 51.6886C43.4324 54.1065 42.9622 56.5021 42.0406 58.7375C41.1191 60.9729 39.7645 63.0039 38.0547 64.7137C36.345 66.4234 34.314 67.778 32.0786 68.6995C29.8432 69.6211 27.4476 70.0914 25.0297 70.0833C22.6118 70.0752 20.2194 69.5889 17.9902 68.6524C15.761 67.7159 13.7391 66.3476 12.0409 64.6265C8.70135 61.1688 6.85345 56.5378 6.89522 51.7308C6.937 46.9239 8.86509 42.3256 12.2642 38.9265C15.6634 35.5273 20.2616 33.5993 25.0686 33.5575C29.8755 33.5157 34.5065 35.3636 37.9643 38.7032L37.9676 38.6998ZM37.9676 38.6998L51.6676 24.9998L37.9676 38.6998ZM51.6676 24.9998L61.6676 34.9998L73.3343 23.3332L63.3343 13.3332L51.6676 24.9998Z" stroke="#667085" stroke-width="6" stroke-linecap="round" stroke-linejoin="round"/>
</svg>
