<svg width="57" height="23" viewBox="0 0 57 23" fill="none" xmlns="http://www.w3.org/2000/svg">
<g id="Letters">
<path id="Vector" d="M44.6914 17.2203H47.3867C47.4396 17.5602 47.5717 17.8894 47.7831 18.208C48.0051 18.5266 48.2852 18.7762 48.6234 18.9567C49.2999 19.3709 50.0979 19.5461 51.0175 19.4824C51.7045 19.4293 52.2594 19.2222 52.6822 18.8611C53.105 18.5001 53.3217 18.0434 53.3323 17.4911C53.3428 16.9708 53.1631 16.5566 52.7932 16.2486C52.4233 15.93 51.9318 15.7017 51.3187 15.5636L49.2417 15.0698C47.7937 14.6768 46.7208 14.0927 46.0232 13.3174C45.3362 12.5316 45.0561 11.4642 45.1829 10.1155C45.2886 9.01099 45.8541 8.08704 46.8794 7.34363C47.9046 6.60022 49.0938 6.22852 50.4467 6.22852C51.1126 6.22852 51.7362 6.30817 52.3176 6.46747C52.8989 6.62677 53.4327 6.87634 53.9189 7.21619C54.4157 7.54541 54.8173 7.99146 55.1239 8.55432C55.441 9.11719 55.6312 9.77563 55.6946 10.5297H52.8725C52.7985 9.97742 52.5395 9.55261 52.0956 9.25525C51.6517 8.95789 51.1232 8.8092 50.5101 8.8092C49.9499 8.8092 49.4531 8.93665 49.0198 9.19153C48.597 9.44641 48.3327 9.77563 48.227 10.1792C48.1002 10.6571 48.1108 11.0607 48.2587 11.3899C48.4913 11.889 49.0885 12.2767 50.0503 12.5528L52.2858 13.1104C54.9072 13.7582 56.2178 15.2397 56.2178 17.5549C56.2178 18.9249 55.6471 20.0294 54.5055 20.8683C53.364 21.6967 51.974 22.1109 50.3357 22.1109C49.4056 22.1109 48.523 21.9304 47.688 21.5693C46.8529 21.1976 46.15 20.6294 45.5793 19.8647C45.0191 19.1001 44.7231 18.2186 44.6914 17.2203Z" fill="white"/>
<path id="Vector_2" d="M35.168 9.06433V6.56329H37.895V0.8125H40.8598V6.56329H44.0625V9.06433H40.8598V21.7925H37.895V9.06433H35.168Z" fill="white"/>
<path id="Vector_3" d="M17.4961 14.1617C17.4961 12.59 17.8502 11.1934 18.5584 9.97211C19.2665 8.75079 20.202 7.82153 21.3647 7.18433C22.5273 6.54712 23.8063 6.22852 25.2015 6.22852C26.3113 6.22852 27.3525 6.45685 28.3249 6.91351C29.3079 7.35956 30.0372 8.00208 30.5129 8.84106V6.56305H33.446V21.7923H30.5129V19.4506C30.0267 20.2896 29.292 20.9427 28.3091 21.41C27.3366 21.8773 26.3008 22.1109 25.2015 22.1109C23.0664 22.1109 21.2484 21.3728 19.7475 19.8966C18.2466 18.4204 17.4961 16.5088 17.4961 14.1617ZM20.5244 14.1299C20.5244 15.6061 21 16.8221 21.9513 17.7779C22.9026 18.7337 24.0705 19.2116 25.4552 19.2116C26.861 19.2116 28.0501 18.7549 29.0225 17.8416C29.9949 16.9283 30.4812 15.691 30.4812 14.1299C30.4812 13.0891 30.2275 12.1811 29.7201 11.4058C29.2128 10.6199 28.5839 10.0464 27.8334 9.68536C27.0935 9.31366 26.3008 9.12781 25.4552 9.12781C24.06 9.12781 22.8867 9.58978 21.9354 10.5137C20.9947 11.4377 20.5244 12.6431 20.5244 14.1299Z" fill="white"/>
<path id="Vector_4" d="M0.175781 14.1299C0.175781 11.7722 0.915671 9.86591 2.39545 8.41095C3.8858 6.95599 5.73552 6.22852 7.94462 6.22852C10.1326 6.22852 11.9347 6.95068 13.3511 8.39502C14.7675 9.83936 15.4756 11.751 15.4756 14.1299C15.4756 14.6927 15.4651 15.0804 15.4439 15.2928H3.14063C3.32031 16.5566 3.85938 17.5655 4.75781 18.3195C5.65625 19.0735 6.75023 19.4506 8.03975 19.4506C8.95933 19.4506 9.8102 19.2435 10.5924 18.8293C11.3745 18.4151 11.9717 17.8363 12.384 17.0929C12.6799 17.2097 13.1344 17.3903 13.7475 17.6345C14.3605 17.8682 14.7516 18.0168 14.9207 18.0806C14.2865 19.3762 13.3405 20.3745 12.0827 21.0754C10.8355 21.7657 9.45611 22.1109 7.94462 22.1109C5.74609 22.1109 3.90165 21.3728 2.41131 19.8966C0.920956 18.4204 0.175781 16.4982 0.175781 14.1299ZM3.14063 12.9829H12.5425C12.3628 11.7191 11.8555 10.7261 11.0205 10.004C10.196 9.27118 9.17073 8.90479 7.94462 8.90479C6.67624 8.90479 5.6034 9.27118 4.7261 10.004C3.84881 10.7261 3.32031 11.7191 3.14063 12.9829Z" fill="white"/>
</g>
</svg>
