<svg width="73" height="21" viewBox="0 0 73 21" fill="none" xmlns="http://www.w3.org/2000/svg">
<g clip-path="url(#clip0_563_11065)">
<path d="M5.33241 10.5785V13.2454H12.4777C13.9506 13.2454 15.1431 12.0161 15.1431 10.5019C15.1431 8.98784 13.9487 7.75848 12.4777 7.75848H2.66509C2.63838 7.75848 2.61167 7.76241 2.58496 7.76241C2.65365 7.76045 2.72424 7.75848 2.79484 7.76241C4.22961 7.83114 5.33241 9.1037 5.33241 10.5805V10.5785Z" fill="#FCFCFD" fill-opacity="0.9"/>
<path d="M1.83203 8.0138C1.87401 7.99416 1.91598 7.97452 1.95796 7.95685C1.91407 7.97452 1.87401 7.99416 1.83203 8.0138Z" fill="#FCFCFD" fill-opacity="0.9"/>
<path d="M0.679688 9.07038C0.704491 9.02914 0.729294 8.9879 0.756005 8.94666C0.729294 8.98593 0.704491 9.02914 0.679688 9.07038Z" fill="#FCFCFD" fill-opacity="0.9"/>
<path d="M0.994141 8.64223C1.02467 8.60688 1.0571 8.57153 1.08954 8.53815C1.0571 8.57153 1.02658 8.60688 0.994141 8.64223Z" fill="#FCFCFD" fill-opacity="0.9"/>
<path d="M0.826172 8.84846C0.854791 8.81115 0.881502 8.77187 0.91203 8.73456C0.881502 8.77187 0.854791 8.80918 0.826172 8.84846Z" fill="#FCFCFD" fill-opacity="0.9"/>
<path d="M0.286133 10.4882C0.286133 10.3959 0.292033 10.3056 0.299899 10.2153C0.290066 10.3056 0.286133 10.3959 0.286133 10.4882Z" fill="#FCFCFD" fill-opacity="0.9"/>
<path d="M1.38184 8.28677C1.41809 8.25927 1.45625 8.23178 1.4944 8.20428C1.45625 8.22981 1.41999 8.25731 1.38184 8.28677Z" fill="#FCFCFD" fill-opacity="0.9"/>
<path d="M1.59863 8.13948C1.6387 8.11592 1.67686 8.09235 1.71883 8.06879C1.67877 8.09039 1.6387 8.11395 1.59863 8.13948Z" fill="#FCFCFD" fill-opacity="0.9"/>
<path d="M0.314453 10.1171C0.32232 10.0581 0.330186 9.99727 0.341986 9.93835C0.330186 9.99727 0.32232 10.0562 0.314453 10.1171Z" fill="#FCFCFD" fill-opacity="0.9"/>
<path d="M0.370117 9.82836C0.383473 9.77534 0.394921 9.72428 0.410184 9.67322C0.394921 9.72428 0.383473 9.7773 0.370117 9.82836Z" fill="#FCFCFD" fill-opacity="0.9"/>
<path d="M2.33105 7.83312C2.37685 7.82133 2.42264 7.81152 2.46843 7.8017C2.42264 7.80955 2.37685 7.82133 2.33105 7.83312Z" fill="#FCFCFD" fill-opacity="0.9"/>
<path d="M2.59668 7.78402C2.64438 7.77813 2.69017 7.77224 2.73787 7.76831C2.69017 7.77224 2.64247 7.77813 2.59668 7.78402Z" fill="#FCFCFD" fill-opacity="0.9"/>
<path d="M0.450195 9.56133C0.467367 9.51223 0.48263 9.4651 0.503618 9.41797C0.484538 9.4651 0.467367 9.5142 0.450195 9.56133Z" fill="#FCFCFD" fill-opacity="0.9"/>
<path d="M14.4813 0.953857H2.6654C1.19438 0.953857 0 2.18321 0 3.69732C0 5.21143 1.19438 6.44078 2.6654 6.44078H14.4813C15.9543 6.44078 17.1467 5.21143 17.1467 3.69732C17.1467 2.18321 15.9543 0.953857 14.4813 0.953857Z" fill="#FCFCFD" fill-opacity="0.9"/>
<path d="M2.20703 7.86652C2.2471 7.85473 2.28907 7.84491 2.33105 7.83313C2.28907 7.84295 2.24901 7.85277 2.20703 7.86652Z" fill="#FCFCFD" fill-opacity="0.9"/>
<path d="M1.71875 8.06878C1.755 8.04914 1.79316 8.03147 1.83132 8.01379C1.79316 8.03147 1.75691 8.04914 1.71875 8.06878Z" fill="#FCFCFD" fill-opacity="0.9"/>
<path d="M1.49414 8.20428C1.52848 8.18072 1.56473 8.15911 1.59908 8.13751C1.56283 8.15911 1.52848 8.18072 1.49414 8.20428Z" fill="#FCFCFD" fill-opacity="0.9"/>
<path d="M1.28418 8.36143C1.31661 8.3359 1.34905 8.31037 1.38149 8.2868C1.34905 8.31233 1.31471 8.3359 1.28418 8.36143Z" fill="#FCFCFD" fill-opacity="0.9"/>
<path d="M0.341797 9.9403C0.349663 9.90298 0.361463 9.86763 0.36933 9.83032C0.359497 9.86763 0.347697 9.90298 0.341797 9.9403Z" fill="#FCFCFD" fill-opacity="0.9"/>
<path d="M0.299805 10.2153C0.303738 10.1819 0.309638 10.1505 0.315538 10.1171C0.311605 10.1505 0.303738 10.1819 0.299805 10.2153Z" fill="#FCFCFD" fill-opacity="0.9"/>
<path d="M0.410156 9.67322C0.421604 9.6359 0.436867 9.59859 0.450223 9.56128C0.436867 9.59859 0.421604 9.63394 0.410156 9.67322Z" fill="#FCFCFD" fill-opacity="0.9"/>
<path d="M0.912109 8.73451C0.938821 8.70309 0.965532 8.67363 0.994151 8.64221C0.96744 8.67363 0.938821 8.70309 0.912109 8.73451Z" fill="#FCFCFD" fill-opacity="0.9"/>
<path d="M0.755859 8.94664C0.778755 8.91326 0.803558 8.87987 0.828361 8.84845C0.803558 8.88183 0.778755 8.91326 0.755859 8.94664Z" fill="#FCFCFD" fill-opacity="0.9"/>
<path d="M0.618164 9.17641C0.637244 9.14106 0.660139 9.10571 0.679218 9.07233C0.658231 9.10768 0.637244 9.14106 0.618164 9.17641Z" fill="#FCFCFD" fill-opacity="0.9"/>
<path d="M1.95801 7.9549C1.99617 7.93919 2.03623 7.92544 2.0763 7.90973C2.03623 7.92348 1.99617 7.93722 1.95801 7.9549Z" fill="#FCFCFD" fill-opacity="0.9"/>
<path d="M14.405 14.5592H5.96997C5.617 14.5592 5.33081 14.2647 5.33081 13.9013V13.2435H2.6654C1.19438 13.2454 0 12.0161 0 10.5V13.9013C0 17.2948 2.67304 20.0462 5.96997 20.0462H14.4813C15.9962 20.0462 17.2173 18.7461 17.1448 17.1692C17.078 15.6924 15.8417 14.5573 14.4069 14.5573L14.405 14.5592Z" fill="#FCFCFD" fill-opacity="0.9"/>
<path d="M2.46875 7.8037C2.51072 7.79584 2.55461 7.78995 2.59658 7.78406C2.5527 7.78995 2.51072 7.79584 2.46875 7.8037Z" fill="#FCFCFD" fill-opacity="0.9"/>
<path d="M2.74023 7.76634C2.78412 7.76241 2.828 7.76045 2.87188 7.75848C2.828 7.75848 2.78412 7.76241 2.74023 7.76634Z" fill="#FCFCFD" fill-opacity="0.9"/>
<path d="M2.66536 13.2454H5.33076V10.5786C5.33076 9.10177 4.22797 7.82921 2.79319 7.76047C2.7226 7.75655 2.65391 7.76047 2.58332 7.76047C2.53943 7.76047 2.49555 7.7644 2.45167 7.76833C2.40397 7.77226 2.35627 7.77815 2.31048 7.78404C2.2666 7.78993 2.22462 7.79582 2.18265 7.80368C2.13686 7.81153 2.09107 7.82332 2.04528 7.8351C2.0033 7.84492 1.96323 7.85474 1.92126 7.86848C1.87738 7.88223 1.83349 7.89794 1.78961 7.91365C1.74954 7.9274 1.70948 7.94115 1.67132 7.95882C1.62743 7.97649 1.58737 7.99613 1.54539 8.01577C1.50723 8.03345 1.47098 8.05112 1.43282 8.07076C1.39276 8.09236 1.35269 8.11593 1.31262 8.14146C1.27637 8.16306 1.24203 8.18466 1.20769 8.20823C1.16953 8.23376 1.13328 8.26125 1.09512 8.29071C1.06268 8.31624 1.02834 8.3398 0.997812 8.36533C0.961561 8.39479 0.927218 8.42621 0.892875 8.45763C0.862347 8.48512 0.83182 8.51262 0.803201 8.54208C0.770766 8.57546 0.740239 8.61081 0.707804 8.64616C0.681092 8.67758 0.652473 8.70704 0.625762 8.73846C0.595235 8.77577 0.568523 8.81308 0.539904 8.85236C0.515101 8.88575 0.490298 8.91717 0.467402 8.95055C0.440691 8.98983 0.415888 9.03303 0.391084 9.07427C0.370097 9.10962 0.349109 9.14301 0.33003 9.17836C0.307135 9.22156 0.286147 9.26673 0.26516 9.3119C0.247988 9.34921 0.228909 9.38456 0.213645 9.42187C0.194566 9.469 0.177394 9.5181 0.160222 9.56523C0.146867 9.60254 0.131603 9.63789 0.120156 9.67717C0.104892 9.72823 0.0934443 9.78125 0.0800886 9.83231C0.0705489 9.86962 0.0591012 9.90497 0.0533774 9.94228C0.0419297 10.0012 0.0342979 10.0601 0.0266661 10.121C0.0228502 10.1544 0.0152184 10.1858 0.0114025 10.2192C0.00186277 10.3095 -0.00195312 10.3999 -0.00195312 10.4922C-0.00195312 10.4961 -0.00195312 10.5 -0.00195312 10.5039C-4.51768e-05 12.0161 1.19433 13.2454 2.66536 13.2454Z" fill="white"/>
<path d="M61.7605 10.5C61.7605 8.98395 62.9549 7.75656 64.4259 7.75656H61.8235C61.4705 7.75656 61.1843 7.46198 61.1843 7.09868C61.1843 6.73537 61.4705 6.44079 61.8235 6.44079H68.2552C69.69 6.44079 70.9263 5.3057 70.9931 3.82891C71.0656 2.25392 69.8445 0.951904 68.3296 0.951904H61.8235C58.5266 0.951904 55.8535 3.70322 55.8535 7.09671C55.8535 10.4902 58.5266 13.2415 61.8235 13.2415H64.4259C62.953 13.2415 61.7605 12.0122 61.7605 10.4981V10.5Z" fill="#FCFCFD" fill-opacity="0.9"/>
<path d="M67.0305 7.75653H64.4281C65.901 7.75653 67.0935 8.98589 67.0935 10.5C67.0935 12.0141 65.8991 13.2435 64.4281 13.2435H67.0305C67.3835 13.2435 67.6697 13.538 67.6697 13.9013C67.6697 14.2646 67.3835 14.5592 67.0305 14.5592H58.5955C57.1607 14.5592 55.9243 15.6943 55.8576 17.1711C55.7851 18.7461 57.0061 20.0481 58.5211 20.0481H67.0324C70.3293 20.0481 73.0024 17.2968 73.0024 13.9033C73.0024 10.5098 70.3293 7.7585 67.0324 7.7585L67.0305 7.75653Z" fill="#FCFCFD" fill-opacity="0.9"/>
<path d="M52.1004 0.953857H45.9492C47.4222 0.953857 48.6146 2.18321 48.6146 3.69732V6.44078H52.1004C53.5734 6.44078 54.7658 5.21143 54.7658 3.69732C54.7658 2.18321 53.5715 0.953857 52.1004 0.953857Z" fill="#FCFCFD" fill-opacity="0.9"/>
<path d="M45.9494 0.953857H39.7982C38.3253 0.953857 37.1328 2.18321 37.1328 3.69732C37.1328 5.21143 38.3272 6.44078 39.7982 6.44078H43.284V3.69732C43.284 2.18125 44.4784 0.953857 45.9494 0.953857Z" fill="#FCFCFD" fill-opacity="0.9"/>
<path d="M43.2841 17.3027C43.2841 18.8188 44.4785 20.0462 45.9495 20.0462C47.4206 20.0462 48.6149 18.8168 48.6149 17.3027V6.44275H43.2822V17.3027H43.2841Z" fill="#FCFCFD" fill-opacity="0.9"/>
<path d="M45.9496 0.953857C44.4766 0.953857 43.2842 2.18321 43.2842 3.69732V6.44078H48.6169V3.69732C48.6169 2.18125 47.4225 0.953857 45.9515 0.953857H45.9496Z" fill="white"/>
<path d="M27.829 1.32108C28.0655 1.18165 28.3136 1.0815 28.5654 1.02258C27.8633 1.18362 27.226 1.63333 26.8368 2.32656L19.1688 15.9987C18.1595 17.7976 19.4206 20.0481 21.4392 20.0481C22.3703 20.0481 23.2327 19.5395 23.704 18.7108L29.1531 9.12336L26.8521 5.07199C26.1156 3.76015 26.5525 2.08108 27.827 1.32305L27.829 1.32108Z" fill="#FCFCFD" fill-opacity="0.9"/>
<path d="M29.7197 1.01868C29.7197 1.01868 29.7355 1.02262 29.7434 1.0246C29.7355 1.0246 29.7276 1.02065 29.7197 1.01868Z" fill="black"/>
<path d="M28.875 0.971561C28.9284 0.965669 28.9818 0.961742 29.0372 0.959778C28.9838 0.961742 28.9284 0.965669 28.875 0.971561Z" fill="black"/>
<path d="M29.4355 0.971558C29.4601 0.9735 29.4846 0.977385 29.5091 0.98127C29.4846 0.977385 29.4601 0.975443 29.4355 0.971558Z" fill="black"/>
<path d="M28.5889 1.01864C28.6595 1.00293 28.7301 0.991142 28.7987 0.981323C28.7281 0.991142 28.6576 1.00293 28.5889 1.01864Z" fill="black"/>
<path d="M29.1553 0.955811C29.1953 0.955811 29.2354 0.955811 29.2736 0.957774C29.2335 0.957774 29.1934 0.955811 29.1553 0.955811Z" fill="black"/>
<path d="M31.4714 2.32656C31.0841 1.6353 30.445 1.18558 29.7428 1.02258C29.9947 1.0815 30.2446 1.18165 30.4793 1.32108C31.7538 2.07912 32.1907 3.75623 31.4543 5.07003L29.1514 9.1214L34.5967 18.7088C35.0679 19.5375 35.9284 20.0462 36.8614 20.0462H36.8671C38.8857 20.0462 40.1488 17.7956 39.1376 15.9967L31.4714 2.32656Z" fill="#FCFCFD" fill-opacity="0.9"/>
<path d="M29.0352 0.959727C29.0752 0.959727 29.1153 0.957764 29.1535 0.957764C29.1134 0.957764 29.0733 0.957764 29.0352 0.959727Z" fill="black"/>
<path d="M28.5654 1.02264C28.5654 1.02264 28.5812 1.0187 28.5891 1.01672C28.5812 1.01672 28.5733 1.02067 28.5654 1.02264Z" fill="black"/>
<path d="M28.7988 0.98127C28.8234 0.977385 28.8479 0.975443 28.8724 0.971558C28.8479 0.9735 28.8234 0.977385 28.7988 0.98127Z" fill="black"/>
<path d="M29.5098 0.981323C29.5804 0.991142 29.651 1.00293 29.7196 1.01864C29.649 1.00293 29.5804 0.991142 29.5098 0.981323Z" fill="black"/>
<path d="M29.2734 0.959778C29.3269 0.961742 29.3822 0.965669 29.4356 0.971561C29.3822 0.965669 29.3288 0.961742 29.2734 0.959778Z" fill="black"/>
<path d="M30.4791 1.32108C30.2425 1.18165 29.9944 1.0815 29.7426 1.02258C29.735 1.02258 29.7273 1.01865 29.7197 1.01669C29.6491 1.00098 29.5785 0.989196 29.5098 0.979376C29.485 0.975449 29.4602 0.973485 29.4354 0.969557C29.382 0.963666 29.3286 0.959738 29.2732 0.957774C29.2332 0.957774 29.1931 0.955811 29.155 0.955811C29.1149 0.955811 29.0748 0.955811 29.0367 0.957774C28.9832 0.959738 28.9298 0.963666 28.8745 0.969557C28.8497 0.971521 28.8249 0.975449 28.8001 0.979376C28.7295 0.989196 28.6589 1.00098 28.5902 1.01669C28.5826 1.01669 28.5749 1.02062 28.5673 1.02258C28.3155 1.0815 28.0655 1.18165 27.8308 1.32108C26.5563 2.07912 26.1194 3.75622 26.8559 5.07002L29.1569 9.1214L31.4598 5.07002C32.1962 3.75819 31.7593 2.07912 30.4848 1.32108H30.4791Z" fill="white"/>
<path d="M29.571 20.0144C31.0249 19.7774 32.0169 18.3721 31.7866 16.8756C31.5563 15.3791 30.191 14.358 28.7371 14.5951C27.2831 14.8321 26.2912 16.2374 26.5215 17.7339C26.7517 19.2304 28.1171 20.2515 29.571 20.0144Z" fill="white"/>
<path d="M64.4261 13.2435C65.8982 13.2435 67.0915 12.0152 67.0915 10.5C67.0915 8.98482 65.8982 7.75653 64.4261 7.75653C62.9541 7.75653 61.7607 8.98482 61.7607 10.5C61.7607 12.0152 62.9541 13.2435 64.4261 13.2435Z" fill="white"/>
</g>
<defs>
<clipPath id="clip0_563_11065">
<rect width="73" height="19.0923" fill="white" transform="translate(0 0.953857)"/>
</clipPath>
</defs>
</svg>
