<svg width="63" height="24" viewBox="0 0 63 24" fill="none" xmlns="http://www.w3.org/2000/svg">
<g id="Letters">
<path id="Vector" d="M49.3516 18.1055H52.3398C52.3984 18.4805 52.5449 18.8438 52.7793 19.1953C53.0254 19.5469 53.3359 19.8223 53.7109 20.0215C54.4609 20.4785 55.3457 20.6719 56.3652 20.6016C57.127 20.543 57.7422 20.3145 58.2109 19.916C58.6797 19.5176 58.9199 19.0137 58.9316 18.4043C58.9434 17.8301 58.7441 17.373 58.334 17.0332C57.9238 16.6816 57.3789 16.4297 56.6992 16.2773L54.3965 15.7324C52.791 15.2988 51.6016 14.6543 50.8281 13.7988C50.0664 12.9316 49.7559 11.7539 49.8965 10.2656C50.0137 9.04688 50.6406 8.02734 51.7773 7.20703C52.9141 6.38672 54.2324 5.97656 55.7324 5.97656C56.4707 5.97656 57.1621 6.06445 57.8066 6.24023C58.4512 6.41602 59.043 6.69141 59.582 7.06641C60.1328 7.42969 60.5781 7.92188 60.918 8.54297C61.2695 9.16406 61.4805 9.89062 61.5508 10.7227H58.4219C58.3398 10.1133 58.0527 9.64453 57.5605 9.31641C57.0684 8.98828 56.4824 8.82422 55.8027 8.82422C55.1816 8.82422 54.6309 8.96484 54.1504 9.24609C53.6816 9.52734 53.3887 9.89062 53.2715 10.3359C53.1309 10.8633 53.1426 11.3086 53.3066 11.6719C53.5645 12.2227 54.2266 12.6504 55.293 12.9551L57.7715 13.5703C60.6777 14.2852 62.1309 15.9199 62.1309 18.4746C62.1309 19.9863 61.498 21.2051 60.2324 22.1309C58.9668 23.0449 57.4258 23.502 55.6094 23.502C54.5781 23.502 53.5996 23.3027 52.6738 22.9043C51.748 22.4941 50.9688 21.8672 50.3359 21.0234C49.7148 20.1797 49.3867 19.207 49.3516 18.1055Z" fill="#3538CD"/>
<path id="Vector_2" d="M38.7969 9.10547V6.3457H41.8203V0H45.1074V6.3457H48.6582V9.10547H45.1074V23.1504H41.8203V9.10547H38.7969Z" fill="#3538CD"/>
<path id="Vector_3" d="M19.2031 14.7305C19.2031 12.9961 19.5957 11.4551 20.3809 10.1074C21.166 8.75977 22.2031 7.73438 23.4922 7.03125C24.7812 6.32812 26.1992 5.97656 27.7461 5.97656C28.9766 5.97656 30.1309 6.22852 31.209 6.73242C32.2988 7.22461 33.1074 7.93359 33.6348 8.85938V6.3457H36.8867V23.1504H33.6348V20.5664C33.0957 21.4922 32.2812 22.2129 31.1914 22.7285C30.1133 23.2441 28.9648 23.502 27.7461 23.502C25.3789 23.502 23.3633 22.6875 21.6992 21.0586C20.0352 19.4297 19.2031 17.3203 19.2031 14.7305ZM22.5605 14.6953C22.5605 16.3242 23.0879 17.666 24.1426 18.7207C25.1973 19.7754 26.4922 20.3027 28.0273 20.3027C29.5859 20.3027 30.9043 19.7988 31.9824 18.791C33.0605 17.7832 33.5996 16.418 33.5996 14.6953C33.5996 13.5469 33.3184 12.5449 32.7559 11.6895C32.1934 10.8223 31.4961 10.1895 30.6641 9.79102C29.8438 9.38086 28.9648 9.17578 28.0273 9.17578C26.4805 9.17578 25.1797 9.68555 24.125 10.7051C23.082 11.7246 22.5605 13.0547 22.5605 14.6953Z" fill="#3538CD"/>
<path id="Vector_4" d="M0 14.6953C0 12.0938 0.820312 9.99023 2.46094 8.38477C4.11328 6.7793 6.16406 5.97656 8.61328 5.97656C11.0391 5.97656 13.0371 6.77344 14.6074 8.36719C16.1777 9.96094 16.9629 12.0703 16.9629 14.6953C16.9629 15.3164 16.9512 15.7441 16.9277 15.9785H3.28711C3.48633 17.373 4.08398 18.4863 5.08008 19.3184C6.07617 20.1504 7.28906 20.5664 8.71875 20.5664C9.73828 20.5664 10.6816 20.3379 11.5488 19.8809C12.416 19.4238 13.0781 18.7852 13.5352 17.9648C13.8633 18.0938 14.3672 18.293 15.0469 18.5625C15.7266 18.8203 16.1602 18.9844 16.3477 19.0547C15.6445 20.4844 14.5957 21.5859 13.2012 22.3594C11.8184 23.1211 10.2891 23.502 8.61328 23.502C6.17578 23.502 4.13086 22.6875 2.47852 21.0586C0.826172 19.4297 0 17.3086 0 14.6953ZM3.28711 13.4297H13.7109C13.5117 12.0352 12.9492 10.9395 12.0234 10.1426C11.1094 9.33398 9.97266 8.92969 8.61328 8.92969C7.20703 8.92969 6.01758 9.33398 5.04492 10.1426C4.07227 10.9395 3.48633 12.0352 3.28711 13.4297Z" fill="#3538CD"/>
</g>
</svg>
