<svg width="73" height="20" viewBox="0 0 73 20" fill="none" xmlns="http://www.w3.org/2000/svg">
<g clip-path="url(#clip0_577_237)">
<path d="M5.33241 10.0785V12.7454H12.4777C13.9506 12.7454 15.1431 11.5161 15.1431 10.0019C15.1431 8.48784 13.9487 7.25848 12.4777 7.25848H2.66509C2.63838 7.25848 2.61167 7.26241 2.58496 7.26241C2.65365 7.26045 2.72424 7.25848 2.79484 7.26241C4.22961 7.33114 5.33241 8.6037 5.33241 10.0805V10.0785Z" fill="#3538CD"/>
<path d="M1.83203 7.5138C1.87401 7.49416 1.91598 7.47452 1.95796 7.45685C1.91407 7.47452 1.87401 7.49416 1.83203 7.5138Z" fill="#3538CD"/>
<path d="M0.679688 8.57038C0.704491 8.52914 0.729294 8.4879 0.756005 8.44666C0.729294 8.48593 0.704491 8.52914 0.679688 8.57038Z" fill="#3538CD"/>
<path d="M0.994141 8.14223C1.02467 8.10688 1.0571 8.07153 1.08954 8.03815C1.0571 8.07153 1.02658 8.10688 0.994141 8.14223Z" fill="#3538CD"/>
<path d="M0.826172 8.34846C0.854791 8.31115 0.881502 8.27187 0.91203 8.23456C0.881502 8.27187 0.854791 8.30918 0.826172 8.34846Z" fill="#3538CD"/>
<path d="M0.286133 9.98824C0.286133 9.89594 0.292033 9.80561 0.299899 9.71527C0.290066 9.80561 0.286133 9.89594 0.286133 9.98824Z" fill="#3538CD"/>
<path d="M1.38184 7.78677C1.41809 7.75927 1.45625 7.73178 1.4944 7.70428C1.45625 7.72981 1.41999 7.75731 1.38184 7.78677Z" fill="#3538CD"/>
<path d="M1.59863 7.63948C1.6387 7.61592 1.67686 7.59235 1.71883 7.56879C1.67877 7.59039 1.6387 7.61395 1.59863 7.63948Z" fill="#3538CD"/>
<path d="M0.314453 9.61706C0.32232 9.55815 0.330186 9.49727 0.341986 9.43835C0.330186 9.49727 0.32232 9.55618 0.314453 9.61706Z" fill="#3538CD"/>
<path d="M0.370117 9.32836C0.383473 9.27534 0.394921 9.22428 0.410184 9.17322C0.394921 9.22428 0.383473 9.2773 0.370117 9.32836Z" fill="#3538CD"/>
<path d="M2.33105 7.33312C2.37685 7.32133 2.42264 7.31152 2.46843 7.3017C2.42264 7.30955 2.37685 7.32133 2.33105 7.33312Z" fill="#3538CD"/>
<path d="M2.59668 7.28402C2.64438 7.27813 2.69017 7.27224 2.73787 7.26831C2.69017 7.27224 2.64247 7.27813 2.59668 7.28402Z" fill="#3538CD"/>
<path d="M0.450195 9.06133C0.467367 9.01223 0.48263 8.9651 0.503618 8.91797C0.484538 8.9651 0.467367 9.0142 0.450195 9.06133Z" fill="#3538CD"/>
<path d="M14.4813 0.453857H2.6654C1.19438 0.453857 0 1.68321 0 3.19732C0 4.71143 1.19438 5.94078 2.6654 5.94078H14.4813C15.9543 5.94078 17.1467 4.71143 17.1467 3.19732C17.1467 1.68321 15.9543 0.453857 14.4813 0.453857Z" fill="#3538CD"/>
<path d="M2.20703 7.36652C2.2471 7.35473 2.28907 7.34491 2.33105 7.33313C2.28907 7.34295 2.24901 7.35277 2.20703 7.36652Z" fill="#3538CD"/>
<path d="M1.71875 7.56878C1.755 7.54914 1.79316 7.53147 1.83132 7.51379C1.79316 7.53147 1.75691 7.54914 1.71875 7.56878Z" fill="#3538CD"/>
<path d="M1.49414 7.70428C1.52848 7.68072 1.56473 7.65911 1.59908 7.63751C1.56283 7.65911 1.52848 7.68072 1.49414 7.70428Z" fill="#3538CD"/>
<path d="M1.28418 7.86143C1.31661 7.8359 1.34905 7.81037 1.38149 7.7868C1.34905 7.81233 1.31471 7.8359 1.28418 7.86143Z" fill="#3538CD"/>
<path d="M0.341797 9.4403C0.349663 9.40298 0.361463 9.36763 0.36933 9.33032C0.359497 9.36763 0.347697 9.40298 0.341797 9.4403Z" fill="#3538CD"/>
<path d="M0.299805 9.71526C0.303738 9.68187 0.309638 9.65045 0.315538 9.61707C0.311605 9.65045 0.303738 9.68187 0.299805 9.71526Z" fill="#3538CD"/>
<path d="M0.410156 9.17322C0.421604 9.1359 0.436867 9.09859 0.450223 9.06128C0.436867 9.09859 0.421604 9.13394 0.410156 9.17322Z" fill="#3538CD"/>
<path d="M0.912109 8.23451C0.938821 8.20309 0.965532 8.17363 0.994151 8.14221C0.96744 8.17363 0.938821 8.20309 0.912109 8.23451Z" fill="#3538CD"/>
<path d="M0.755859 8.44664C0.778755 8.41326 0.803558 8.37987 0.828361 8.34845C0.803558 8.38183 0.778755 8.41326 0.755859 8.44664Z" fill="#3538CD"/>
<path d="M0.618164 8.67641C0.637244 8.64106 0.660139 8.60571 0.679218 8.57233C0.658231 8.60768 0.637244 8.64106 0.618164 8.67641Z" fill="#3538CD"/>
<path d="M1.95801 7.4549C1.99617 7.43919 2.03623 7.42544 2.0763 7.40973C2.03623 7.42348 1.99617 7.43722 1.95801 7.4549Z" fill="#3538CD"/>
<path d="M14.405 14.0592H5.96997C5.617 14.0592 5.33081 13.7647 5.33081 13.4013V12.7435H2.6654C1.19438 12.7454 0 11.5161 0 10V13.4013C0 16.7948 2.67304 19.5462 5.96997 19.5462H14.4813C15.9962 19.5462 17.2173 18.2461 17.1448 16.6692C17.078 15.1924 15.8417 14.0573 14.4069 14.0573L14.405 14.0592Z" fill="#3538CD"/>
<path d="M2.46875 7.3037C2.51072 7.29584 2.55461 7.28995 2.59658 7.28406C2.5527 7.28995 2.51072 7.29584 2.46875 7.3037Z" fill="#3538CD"/>
<path d="M2.74023 7.26634C2.78412 7.26241 2.828 7.26045 2.87188 7.25848C2.828 7.25848 2.78412 7.26241 2.74023 7.26634Z" fill="#3538CD"/>
<path d="M2.66536 12.7454H5.33076V10.0786C5.33076 8.60177 4.22797 7.32921 2.79319 7.26047C2.7226 7.25655 2.65391 7.26047 2.58332 7.26047C2.53943 7.26047 2.49555 7.2644 2.45167 7.26833C2.40397 7.27226 2.35627 7.27815 2.31048 7.28404C2.2666 7.28993 2.22462 7.29582 2.18265 7.30368C2.13686 7.31153 2.09107 7.32332 2.04528 7.3351C2.0033 7.34492 1.96323 7.35474 1.92126 7.36848C1.87738 7.38223 1.83349 7.39794 1.78961 7.41365C1.74954 7.4274 1.70948 7.44115 1.67132 7.45882C1.62743 7.47649 1.58737 7.49613 1.54539 7.51577C1.50723 7.53345 1.47098 7.55112 1.43282 7.57076C1.39276 7.59236 1.35269 7.61593 1.31262 7.64146C1.27637 7.66306 1.24203 7.68466 1.20769 7.70823C1.16953 7.73376 1.13328 7.76125 1.09512 7.79071C1.06268 7.81624 1.02834 7.8398 0.997812 7.86533C0.961561 7.89479 0.927218 7.92621 0.892875 7.95763C0.862347 7.98512 0.83182 8.01262 0.803201 8.04208C0.770766 8.07546 0.740239 8.11081 0.707804 8.14616C0.681092 8.17758 0.652473 8.20704 0.625762 8.23846C0.595235 8.27577 0.568523 8.31308 0.539904 8.35236C0.515101 8.38575 0.490298 8.41717 0.467402 8.45055C0.440691 8.48983 0.415888 8.53303 0.391084 8.57427C0.370097 8.60962 0.349109 8.64301 0.33003 8.67836C0.307135 8.72156 0.286147 8.76673 0.26516 8.8119C0.247988 8.84921 0.228909 8.88456 0.213645 8.92187C0.194566 8.969 0.177394 9.0181 0.160222 9.06523C0.146867 9.10254 0.131603 9.13789 0.120156 9.17717C0.104892 9.22823 0.0934443 9.28125 0.0800886 9.33231C0.0705489 9.36962 0.0591012 9.40497 0.0533774 9.44228C0.0419297 9.5012 0.0342979 9.56011 0.0266661 9.62099C0.0228502 9.65438 0.0152184 9.6858 0.0114025 9.71918C0.00186277 9.80952 -0.00195312 9.89985 -0.00195312 9.99215C-0.00195312 9.99608 -0.00195312 10 -0.00195312 10.0039C-4.51768e-05 11.5161 1.19433 12.7454 2.66536 12.7454Z" fill="#444CE7"/>
<path d="M61.7605 10C61.7605 8.48395 62.9549 7.25656 64.4259 7.25656H61.8235C61.4705 7.25656 61.1843 6.96198 61.1843 6.59868C61.1843 6.23537 61.4705 5.94079 61.8235 5.94079H68.2552C69.69 5.94079 70.9263 4.8057 70.9931 3.32891C71.0656 1.75392 69.8445 0.451904 68.3296 0.451904H61.8235C58.5266 0.451904 55.8535 3.20322 55.8535 6.59671C55.8535 9.9902 58.5266 12.7415 61.8235 12.7415H64.4259C62.953 12.7415 61.7605 11.5122 61.7605 9.99806V10Z" fill="#3538CD"/>
<path d="M67.0305 7.25653H64.4281C65.901 7.25653 67.0935 8.48589 67.0935 9.99999C67.0935 11.5141 65.8991 12.7435 64.4281 12.7435H67.0305C67.3835 12.7435 67.6697 13.038 67.6697 13.4013C67.6697 13.7646 67.3835 14.0592 67.0305 14.0592H58.5955C57.1607 14.0592 55.9243 15.1943 55.8576 16.6711C55.7851 18.2461 57.0061 19.5481 58.5211 19.5481H67.0324C70.3293 19.5481 73.0024 16.7968 73.0024 13.4033C73.0024 10.0098 70.3293 7.2585 67.0324 7.2585L67.0305 7.25653Z" fill="#3538CD"/>
<path d="M52.1004 0.453857H45.9492C47.4222 0.453857 48.6146 1.68321 48.6146 3.19732V5.94078H52.1004C53.5734 5.94078 54.7658 4.71143 54.7658 3.19732C54.7658 1.68321 53.5715 0.453857 52.1004 0.453857Z" fill="#3538CD"/>
<path d="M45.9494 0.453857H39.7982C38.3253 0.453857 37.1328 1.68321 37.1328 3.19732C37.1328 4.71143 38.3272 5.94078 39.7982 5.94078H43.284V3.19732C43.284 1.68125 44.4784 0.453857 45.9494 0.453857Z" fill="#3538CD"/>
<path d="M43.2841 16.8027C43.2841 18.3188 44.4785 19.5462 45.9495 19.5462C47.4206 19.5462 48.6149 18.3168 48.6149 16.8027V5.94275H43.2822V16.8027H43.2841Z" fill="#3538CD"/>
<path d="M45.9496 0.453857C44.4766 0.453857 43.2842 1.68321 43.2842 3.19732V5.94078H48.6169V3.19732C48.6169 1.68125 47.4225 0.453857 45.9515 0.453857H45.9496Z" fill="#444CE7"/>
<path d="M27.829 0.821084C28.0655 0.681653 28.3136 0.581498 28.5654 0.522583C27.8633 0.683617 27.226 1.13333 26.8368 1.82656L19.1688 15.4987C18.1595 17.2976 19.4206 19.5481 21.4392 19.5481C22.3703 19.5481 23.2327 19.0395 23.704 18.2108L29.1531 8.62336L26.8521 4.57199C26.1156 3.26015 26.5525 1.58108 27.827 0.823048L27.829 0.821084Z" fill="#3538CD"/>
<path d="M29.7197 0.518677C29.7197 0.518677 29.7355 0.522622 29.7434 0.524595C29.7355 0.524595 29.7276 0.52065 29.7197 0.518677Z" fill="black"/>
<path d="M28.875 0.471561C28.9284 0.465669 28.9818 0.461742 29.0372 0.459778C28.9838 0.461742 28.9284 0.465669 28.875 0.471561Z" fill="black"/>
<path d="M29.4355 0.471558C29.4601 0.4735 29.4846 0.477385 29.5091 0.48127C29.4846 0.477385 29.4601 0.475443 29.4355 0.471558Z" fill="black"/>
<path d="M28.5889 0.518636C28.6595 0.502925 28.7301 0.491142 28.7987 0.481323C28.7281 0.491142 28.6576 0.502925 28.5889 0.518636Z" fill="black"/>
<path d="M29.1553 0.455811C29.1953 0.455811 29.2354 0.455811 29.2736 0.457774C29.2335 0.457774 29.1934 0.455811 29.1553 0.455811Z" fill="black"/>
<path d="M31.4714 1.82656C31.0841 1.1353 30.445 0.68558 29.7428 0.522583C29.9947 0.581498 30.2446 0.681653 30.4793 0.821084C31.7538 1.57912 32.1907 3.25623 31.4543 4.57003L29.1514 8.6214L34.5967 18.2088C35.0679 19.0375 35.9284 19.5462 36.8614 19.5462H36.8671C38.8857 19.5462 40.1488 17.2956 39.1376 15.4967L31.4714 1.82656Z" fill="#3538CD"/>
<path d="M29.0352 0.459727C29.0752 0.459727 29.1153 0.457764 29.1535 0.457764C29.1134 0.457764 29.0733 0.457764 29.0352 0.459727Z" fill="black"/>
<path d="M28.5654 0.522642C28.5654 0.522642 28.5812 0.518696 28.5891 0.516724C28.5812 0.516724 28.5733 0.520669 28.5654 0.522642Z" fill="black"/>
<path d="M28.7988 0.48127C28.8234 0.477385 28.8479 0.475443 28.8724 0.471558C28.8479 0.4735 28.8234 0.477385 28.7988 0.48127Z" fill="black"/>
<path d="M29.5098 0.481323C29.5804 0.491142 29.651 0.502925 29.7196 0.518636C29.649 0.502925 29.5804 0.491142 29.5098 0.481323Z" fill="black"/>
<path d="M29.2734 0.459778C29.3269 0.461742 29.3822 0.465669 29.4356 0.471561C29.3822 0.465669 29.3288 0.461742 29.2734 0.459778Z" fill="black"/>
<path d="M30.4791 0.821082C30.2425 0.68165 29.9944 0.581495 29.7426 0.522581C29.735 0.522581 29.7273 0.518653 29.7197 0.516689C29.6491 0.500979 29.5785 0.489196 29.5098 0.479376C29.485 0.475449 29.4602 0.473485 29.4354 0.469557C29.382 0.463666 29.3286 0.459738 29.2732 0.457774C29.2332 0.457774 29.1931 0.455811 29.155 0.455811C29.1149 0.455811 29.0748 0.455811 29.0367 0.457774C28.9832 0.459738 28.9298 0.463666 28.8745 0.469557C28.8497 0.471521 28.8249 0.475449 28.8001 0.479376C28.7295 0.489196 28.6589 0.500979 28.5902 0.516689C28.5826 0.516689 28.5749 0.520617 28.5673 0.522581C28.3155 0.581495 28.0655 0.68165 27.8308 0.821082C26.5563 1.57912 26.1194 3.25622 26.8559 4.57002L29.1569 8.6214L31.4598 4.57002C32.1962 3.25819 31.7593 1.57912 30.4848 0.821082H30.4791Z" fill="#444CE7"/>
<path d="M29.571 19.5144C31.0249 19.2774 32.0169 17.8721 31.7866 16.3756C31.5563 14.8791 30.191 13.858 28.7371 14.0951C27.2831 14.3321 26.2912 15.7374 26.5215 17.2339C26.7517 18.7304 28.1171 19.7515 29.571 19.5144Z" fill="#444CE7"/>
<path d="M64.4261 12.7435C65.8982 12.7435 67.0915 11.5152 67.0915 9.99999C67.0915 8.48482 65.8982 7.25653 64.4261 7.25653C62.9541 7.25653 61.7607 8.48482 61.7607 9.99999C61.7607 11.5152 62.9541 12.7435 64.4261 12.7435Z" fill="#444CE7"/>
</g>
<defs>
<clipPath id="clip0_577_237">
<rect width="73" height="19.0923" fill="white" transform="translate(0 0.453857)"/>
</clipPath>
</defs>
</svg>
