<svg width="35" height="35" viewBox="0 0 35 35" fill="none" xmlns="http://www.w3.org/2000/svg">
<g id="Logo" filter="url(#filter0_dd_170_3586)">
<g clip-path="url(#clip0_170_3586)">
<rect x="3" y="2" width="28.8627" height="29" rx="8" fill="#444CE7"/>
<path id="Union" fill-rule="evenodd" clip-rule="evenodd" d="M22.5474 25.0721C22.5473 25.0721 22.5471 25.0722 22.547 25.0723C17.7682 27.8445 11.6575 26.1993 8.89844 21.3978C6.13938 16.5962 7.77673 10.4565 12.5556 7.68433C12.5775 7.67159 12.5995 7.65894 12.6215 7.64639L25.4799 0.187296L35.4714 17.5753L22.5475 25.0723L22.5474 25.0721Z" fill="url(#paint0_linear_170_3586)"/>
<ellipse id="Ellipse 5" cx="10.0033" cy="10.0271" rx="10.0033" ry="10.0271" transform="matrix(0.864995 -0.50178 0.498222 0.86705 3.90234 12.7051)" fill="#6979F9"/>
<ellipse id="Ellipse 6" cx="8.44911" cy="8.46917" rx="8.44911" ry="8.46917" transform="matrix(0.864995 -0.50178 0.498222 0.86705 6.08984 13.3418)" fill="#A4BCFD"/>
<ellipse id="Ellipse 7" cx="6.22227" cy="6.23705" rx="6.22227" ry="6.23705" transform="matrix(0.864995 -0.50178 0.498222 0.86705 9.125 14.1602)" fill="#F9FAFB"/>
</g>
</g>
<defs>
<filter id="filter0_dd_170_3586" x="0" y="0" width="34.8633" height="35" filterUnits="userSpaceOnUse" color-interpolation-filters="sRGB">
<feFlood flood-opacity="0" result="BackgroundImageFix"/>
<feColorMatrix in="SourceAlpha" type="matrix" values="0 0 0 0 0 0 0 0 0 0 0 0 0 0 0 0 0 0 127 0" result="hardAlpha"/>
<feOffset dy="1"/>
<feGaussianBlur stdDeviation="1"/>
<feColorMatrix type="matrix" values="0 0 0 0 0.0627451 0 0 0 0 0.0941176 0 0 0 0 0.156863 0 0 0 0.06 0"/>
<feBlend mode="normal" in2="BackgroundImageFix" result="effect1_dropShadow_170_3586"/>
<feColorMatrix in="SourceAlpha" type="matrix" values="0 0 0 0 0 0 0 0 0 0 0 0 0 0 0 0 0 0 127 0" result="hardAlpha"/>
<feOffset dy="1"/>
<feGaussianBlur stdDeviation="1.5"/>
<feColorMatrix type="matrix" values="0 0 0 0 0.0627451 0 0 0 0 0.0941176 0 0 0 0 0.156863 0 0 0 0.1 0"/>
<feBlend mode="normal" in2="effect1_dropShadow_170_3586" result="effect2_dropShadow_170_3586"/>
<feBlend mode="normal" in="SourceGraphic" in2="effect2_dropShadow_170_3586" result="shape"/>
</filter>
<linearGradient id="paint0_linear_170_3586" x1="34.1828" y1="7.39942" x2="17.6826" y2="16.2889" gradientUnits="userSpaceOnUse">
<stop offset="0.275" stop-color="#A4BCFD" stop-opacity="0"/>
<stop offset="1" stop-color="#6979F9"/>
</linearGradient>
<clipPath id="clip0_170_3586">
<rect x="3" y="2" width="28.8627" height="29" rx="8" fill="white"/>
</clipPath>
</defs>
</svg>
