<svg width="110" height="31" viewBox="0 0 110 31" fill="none" xmlns="http://www.w3.org/2000/svg">
<g filter="url(#filter0_dd_563_11057)">
<g clip-path="url(#clip0_563_11057)">
<rect x="3" y="2" width="26" height="25" rx="6" fill="#444CE7"/>
<path fill-rule="evenodd" clip-rule="evenodd" d="M11.6667 6.86794L23.2497 0.437697L32.2501 15.4273L20.6082 21.8903L20.608 21.8901C20.6079 21.8902 20.6078 21.8902 20.6077 21.8903C16.3028 24.2801 10.7983 22.8619 8.31285 18.7226C5.82745 14.5833 7.3024 9.29047 11.6072 6.90066C11.627 6.88968 11.6468 6.87877 11.6667 6.86794Z" fill="url(#paint0_linear_563_11057)"/>
<ellipse cx="8.91515" cy="8.74209" rx="8.91515" ry="8.74209" transform="matrix(0.87431 -0.485368 0.514776 0.857325 3.8125 11.2278)" fill="#6979F9"/>
<ellipse cx="7.53" cy="7.38383" rx="7.53" ry="7.38383" transform="matrix(0.87431 -0.485368 0.514776 0.857325 5.78223 11.7772)" fill="#A4BCFD"/>
<ellipse cx="5.5454" cy="5.43775" rx="5.5454" ry="5.43775" transform="matrix(0.87431 -0.485368 0.514776 0.857325 8.51855 12.4823)" fill="#F9FAFB"/>
</g>
</g>
<g clip-path="url(#clip1_563_11057)">
<path d="M42.3324 14.5785V17.2454H49.4777C50.9506 17.2454 52.1431 16.0161 52.1431 14.5019C52.1431 12.9878 50.9487 11.7585 49.4777 11.7585H39.6651C39.6384 11.7585 39.6117 11.7624 39.585 11.7624C39.6536 11.7604 39.7242 11.7585 39.7948 11.7624C41.2296 11.8311 42.3324 13.1037 42.3324 14.5805V14.5785Z" fill="#FCFCFD" fill-opacity="0.9"/>
<path d="M38.832 12.0138C38.874 11.9942 38.916 11.9745 38.958 11.9568C38.9141 11.9745 38.874 11.9942 38.832 12.0138Z" fill="#FCFCFD" fill-opacity="0.9"/>
<path d="M37.6797 13.0704C37.7045 13.0291 37.7293 12.9879 37.756 12.9467C37.7293 12.9859 37.7045 13.0291 37.6797 13.0704Z" fill="#FCFCFD" fill-opacity="0.9"/>
<path d="M37.9941 12.6422C38.0247 12.6069 38.0571 12.5715 38.0895 12.5381C38.0571 12.5715 38.0266 12.6069 37.9941 12.6422Z" fill="#FCFCFD" fill-opacity="0.9"/>
<path d="M37.8262 12.8485C37.8548 12.8111 37.8815 12.7719 37.912 12.7346C37.8815 12.7719 37.8548 12.8092 37.8262 12.8485Z" fill="#FCFCFD" fill-opacity="0.9"/>
<path d="M37.2861 14.4882C37.2861 14.3959 37.292 14.3056 37.2999 14.2153C37.2901 14.3056 37.2861 14.3959 37.2861 14.4882Z" fill="#FCFCFD" fill-opacity="0.9"/>
<path d="M38.3818 12.2868C38.4181 12.2593 38.4562 12.2318 38.4944 12.2043C38.4562 12.2298 38.42 12.2573 38.3818 12.2868Z" fill="#FCFCFD" fill-opacity="0.9"/>
<path d="M38.5986 12.1395C38.6387 12.1159 38.6769 12.0924 38.7188 12.0688C38.6788 12.0904 38.6387 12.114 38.5986 12.1395Z" fill="#FCFCFD" fill-opacity="0.9"/>
<path d="M37.3145 14.1171C37.3223 14.0581 37.3302 13.9973 37.342 13.9384C37.3302 13.9973 37.3223 14.0562 37.3145 14.1171Z" fill="#FCFCFD" fill-opacity="0.9"/>
<path d="M37.3701 13.8284C37.3835 13.7753 37.3949 13.7243 37.4102 13.6732C37.3949 13.7243 37.3835 13.7773 37.3701 13.8284Z" fill="#FCFCFD" fill-opacity="0.9"/>
<path d="M39.3311 11.8331C39.3768 11.8213 39.4226 11.8115 39.4684 11.8017C39.4226 11.8096 39.3768 11.8213 39.3311 11.8331Z" fill="#FCFCFD" fill-opacity="0.9"/>
<path d="M39.5967 11.784C39.6444 11.7781 39.6902 11.7722 39.7379 11.7683C39.6902 11.7722 39.6425 11.7781 39.5967 11.784Z" fill="#FCFCFD" fill-opacity="0.9"/>
<path d="M37.4502 13.5613C37.4674 13.5122 37.4826 13.4651 37.5036 13.418C37.4845 13.4651 37.4674 13.5142 37.4502 13.5613Z" fill="#FCFCFD" fill-opacity="0.9"/>
<path d="M51.4813 4.95386H39.6654C38.1944 4.95386 37 6.18321 37 7.69732C37 9.21143 38.1944 10.4408 39.6654 10.4408H51.4813C52.9543 10.4408 54.1467 9.21143 54.1467 7.69732C54.1467 6.18321 52.9543 4.95386 51.4813 4.95386Z" fill="#FCFCFD" fill-opacity="0.9"/>
<path d="M39.207 11.8665C39.2471 11.8547 39.2891 11.8449 39.331 11.8331C39.2891 11.8429 39.249 11.8528 39.207 11.8665Z" fill="#FCFCFD" fill-opacity="0.9"/>
<path d="M38.7188 12.0688C38.755 12.0491 38.7932 12.0315 38.8313 12.0138C38.7932 12.0315 38.7569 12.0491 38.7188 12.0688Z" fill="#FCFCFD" fill-opacity="0.9"/>
<path d="M38.4941 12.2043C38.5285 12.1807 38.5647 12.1591 38.5991 12.1375C38.5628 12.1591 38.5285 12.1807 38.4941 12.2043Z" fill="#FCFCFD" fill-opacity="0.9"/>
<path d="M38.2842 12.3614C38.3166 12.3359 38.349 12.3104 38.3815 12.2868C38.349 12.3123 38.3147 12.3359 38.2842 12.3614Z" fill="#FCFCFD" fill-opacity="0.9"/>
<path d="M37.3418 13.9403C37.3497 13.903 37.3615 13.8676 37.3693 13.8303C37.3595 13.8676 37.3477 13.903 37.3418 13.9403Z" fill="#FCFCFD" fill-opacity="0.9"/>
<path d="M37.2998 14.2153C37.3037 14.1819 37.3096 14.1505 37.3155 14.1171C37.3116 14.1505 37.3037 14.1819 37.2998 14.2153Z" fill="#FCFCFD" fill-opacity="0.9"/>
<path d="M37.4102 13.6732C37.4216 13.6359 37.4369 13.5986 37.4502 13.5613C37.4369 13.5986 37.4216 13.6339 37.4102 13.6732Z" fill="#FCFCFD" fill-opacity="0.9"/>
<path d="M37.9121 12.7345C37.9388 12.7031 37.9655 12.6736 37.9942 12.6422C37.9674 12.6736 37.9388 12.7031 37.9121 12.7345Z" fill="#FCFCFD" fill-opacity="0.9"/>
<path d="M37.7559 12.9466C37.7788 12.9133 37.8036 12.8799 37.8284 12.8484C37.8036 12.8818 37.7788 12.9133 37.7559 12.9466Z" fill="#FCFCFD" fill-opacity="0.9"/>
<path d="M37.6182 13.1764C37.6372 13.1411 37.6601 13.1057 37.6792 13.0723C37.6582 13.1077 37.6372 13.1411 37.6182 13.1764Z" fill="#FCFCFD" fill-opacity="0.9"/>
<path d="M38.958 11.9549C38.9962 11.9392 39.0362 11.9254 39.0763 11.9097C39.0362 11.9235 38.9962 11.9372 38.958 11.9549Z" fill="#FCFCFD" fill-opacity="0.9"/>
<path d="M51.405 18.5592H42.97C42.617 18.5592 42.3308 18.2647 42.3308 17.9013V17.2435H39.6654C38.1944 17.2454 37 16.0161 37 14.5V17.9013C37 21.2948 39.673 24.0462 42.97 24.0462H51.4813C52.9962 24.0462 54.2173 22.7461 54.1448 21.1692C54.078 19.6924 52.8417 18.5573 51.4069 18.5573L51.405 18.5592Z" fill="#FCFCFD" fill-opacity="0.9"/>
<path d="M39.4688 11.8037C39.5107 11.7958 39.5546 11.7899 39.5966 11.7841C39.5527 11.7899 39.5107 11.7958 39.4688 11.8037Z" fill="#FCFCFD" fill-opacity="0.9"/>
<path d="M39.7402 11.7663C39.7841 11.7624 39.828 11.7604 39.8719 11.7585C39.828 11.7585 39.7841 11.7624 39.7402 11.7663Z" fill="#FCFCFD" fill-opacity="0.9"/>
<path d="M39.6654 17.2454H42.3308V14.5786C42.3308 13.1018 41.228 11.8292 39.7932 11.7605C39.7226 11.7565 39.6539 11.7605 39.5833 11.7605C39.5394 11.7605 39.4956 11.7644 39.4517 11.7683C39.404 11.7723 39.3563 11.7781 39.3105 11.784C39.2666 11.7899 39.2246 11.7958 39.1826 11.8037C39.1369 11.8115 39.0911 11.8233 39.0453 11.8351C39.0033 11.8449 38.9632 11.8547 38.9213 11.8685C38.8774 11.8822 38.8335 11.8979 38.7896 11.9137C38.7495 11.9274 38.7095 11.9411 38.6713 11.9588C38.6274 11.9765 38.5874 11.9961 38.5454 12.0158C38.5072 12.0334 38.471 12.0511 38.4328 12.0708C38.3928 12.0924 38.3527 12.1159 38.3126 12.1415C38.2764 12.1631 38.242 12.1847 38.2077 12.2082C38.1695 12.2338 38.1333 12.2612 38.0951 12.2907C38.0627 12.3162 38.0283 12.3398 37.9978 12.3653C37.9616 12.3948 37.9272 12.4262 37.8929 12.4576C37.8623 12.4851 37.8318 12.5126 37.8032 12.5421C37.7708 12.5755 37.7402 12.6108 37.7078 12.6462C37.6811 12.6776 37.6525 12.707 37.6258 12.7385C37.5952 12.7758 37.5685 12.8131 37.5399 12.8524C37.5151 12.8857 37.4903 12.9172 37.4674 12.9506C37.4407 12.9898 37.4159 13.033 37.3911 13.0743C37.3701 13.1096 37.3491 13.143 37.33 13.1784C37.3071 13.2216 37.2861 13.2667 37.2652 13.3119C37.248 13.3492 37.2289 13.3846 37.2136 13.4219C37.1946 13.469 37.1774 13.5181 37.1602 13.5652C37.1469 13.6025 37.1316 13.6379 37.1202 13.6772C37.1049 13.7282 37.0934 13.7812 37.0801 13.8323C37.0705 13.8696 37.0591 13.905 37.0534 13.9423C37.0419 14.0012 37.0343 14.0601 37.0267 14.121C37.0229 14.1544 37.0152 14.1858 37.0114 14.2192C37.0019 14.3095 36.998 14.3999 36.998 14.4922C36.998 14.4961 36.998 14.5 36.998 14.5039C37 16.0161 38.1943 17.2454 39.6654 17.2454Z" fill="white"/>
<path d="M98.7605 14.5C98.7605 12.9839 99.9549 11.7566 101.426 11.7566H98.8235C98.4705 11.7566 98.1843 11.462 98.1843 11.0987C98.1843 10.7354 98.4705 10.4408 98.8235 10.4408H105.255C106.69 10.4408 107.926 9.3057 107.993 7.82891C108.066 6.25392 106.845 4.9519 105.33 4.9519H98.8235C95.5266 4.9519 92.8535 7.70322 92.8535 11.0967C92.8535 14.4902 95.5266 17.2415 98.8235 17.2415H101.426C99.953 17.2415 98.7605 16.0122 98.7605 14.4981V14.5Z" fill="#FCFCFD" fill-opacity="0.9"/>
<path d="M104.031 11.7565H101.428C102.901 11.7565 104.093 12.9859 104.093 14.5C104.093 16.0141 102.899 17.2435 101.428 17.2435H104.031C104.383 17.2435 104.67 17.538 104.67 17.9013C104.67 18.2646 104.383 18.5592 104.031 18.5592H95.5955C94.1607 18.5592 92.9243 19.6943 92.8576 21.1711C92.7851 22.7461 94.0061 24.0481 95.5211 24.0481H104.032C107.329 24.0481 110.002 21.2968 110.002 17.9033C110.002 14.5098 107.329 11.7585 104.032 11.7585L104.031 11.7565Z" fill="#FCFCFD" fill-opacity="0.9"/>
<path d="M89.1004 4.95386H82.9492C84.4222 4.95386 85.6146 6.18321 85.6146 7.69732V10.4408H89.1004C90.5734 10.4408 91.7658 9.21143 91.7658 7.69732C91.7658 6.18321 90.5715 4.95386 89.1004 4.95386Z" fill="#FCFCFD" fill-opacity="0.9"/>
<path d="M82.9494 4.95386H76.7982C75.3253 4.95386 74.1328 6.18321 74.1328 7.69732C74.1328 9.21143 75.3272 10.4408 76.7982 10.4408H80.284V7.69732C80.284 6.18125 81.4784 4.95386 82.9494 4.95386Z" fill="#FCFCFD" fill-opacity="0.9"/>
<path d="M80.2841 21.3027C80.2841 22.8188 81.4785 24.0462 82.9495 24.0462C84.4206 24.0462 85.6149 22.8168 85.6149 21.3027V10.4427H80.2822V21.3027H80.2841Z" fill="#FCFCFD" fill-opacity="0.9"/>
<path d="M82.9496 4.95386C81.4766 4.95386 80.2842 6.18321 80.2842 7.69732V10.4408H85.6169V7.69732C85.6169 6.18125 84.4225 4.95386 82.9515 4.95386H82.9496Z" fill="white"/>
<path d="M64.829 5.32108C65.0655 5.18165 65.3136 5.0815 65.5654 5.02258C64.8633 5.18362 64.226 5.63333 63.8368 6.32656L56.1688 19.9987C55.1595 21.7976 56.4206 24.0481 58.4392 24.0481C59.3703 24.0481 60.2327 23.5395 60.704 22.7108L66.1531 13.1234L63.8521 9.07199C63.1156 7.76015 63.5525 6.08108 64.827 5.32305L64.829 5.32108Z" fill="#FCFCFD" fill-opacity="0.9"/>
<path d="M66.7197 5.01868C66.7197 5.01868 66.7355 5.02262 66.7434 5.0246C66.7355 5.0246 66.7276 5.02065 66.7197 5.01868Z" fill="black"/>
<path d="M65.875 4.97156C65.9284 4.96567 65.9818 4.96174 66.0372 4.95978C65.9838 4.96174 65.9284 4.96567 65.875 4.97156Z" fill="black"/>
<path d="M66.4355 4.97156C66.4601 4.9735 66.4846 4.97739 66.5091 4.98127C66.4846 4.97739 66.4601 4.97544 66.4355 4.97156Z" fill="black"/>
<path d="M65.5889 5.01864C65.6595 5.00293 65.7301 4.99114 65.7987 4.98132C65.7281 4.99114 65.6576 5.00293 65.5889 5.01864Z" fill="black"/>
<path d="M66.1553 4.95581C66.1953 4.95581 66.2354 4.95581 66.2736 4.95777C66.2335 4.95777 66.1934 4.95581 66.1553 4.95581Z" fill="black"/>
<path d="M68.4714 6.32656C68.0841 5.6353 67.445 5.18558 66.7428 5.02258C66.9947 5.0815 67.2446 5.18165 67.4793 5.32108C68.7538 6.07912 69.1907 7.75623 68.4543 9.07003L66.1514 13.1214L71.5967 22.7088C72.0679 23.5375 72.9284 24.0462 73.8614 24.0462H73.8671C75.8857 24.0462 77.1488 21.7956 76.1376 19.9967L68.4714 6.32656Z" fill="#FCFCFD" fill-opacity="0.9"/>
<path d="M66.0352 4.95973C66.0752 4.95973 66.1153 4.95776 66.1535 4.95776C66.1134 4.95776 66.0733 4.95776 66.0352 4.95973Z" fill="black"/>
<path d="M65.5654 5.02264C65.5654 5.02264 65.5812 5.0187 65.5891 5.01672C65.5812 5.01672 65.5733 5.02067 65.5654 5.02264Z" fill="black"/>
<path d="M65.7988 4.98127C65.8234 4.97739 65.8479 4.97544 65.8724 4.97156C65.8479 4.9735 65.8234 4.97739 65.7988 4.98127Z" fill="black"/>
<path d="M66.5098 4.98132C66.5804 4.99114 66.651 5.00293 66.7196 5.01864C66.649 5.00293 66.5804 4.99114 66.5098 4.98132Z" fill="black"/>
<path d="M66.2734 4.95978C66.3269 4.96174 66.3822 4.96567 66.4356 4.97156C66.3822 4.96567 66.3288 4.96174 66.2734 4.95978Z" fill="black"/>
<path d="M67.4791 5.32108C67.2425 5.18165 66.9944 5.0815 66.7426 5.02258C66.735 5.02258 66.7273 5.01865 66.7197 5.01669C66.6491 5.00098 66.5785 4.9892 66.5098 4.97938C66.485 4.97545 66.4602 4.97348 66.4354 4.96956C66.382 4.96367 66.3286 4.95974 66.2732 4.95777C66.2332 4.95777 66.1931 4.95581 66.155 4.95581C66.1149 4.95581 66.0748 4.95581 66.0367 4.95777C65.9832 4.95974 65.9298 4.96367 65.8745 4.96956C65.8497 4.97152 65.8249 4.97545 65.8001 4.97938C65.7295 4.9892 65.6589 5.00098 65.5902 5.01669C65.5826 5.01669 65.5749 5.02062 65.5673 5.02258C65.3155 5.0815 65.0655 5.18165 64.8308 5.32108C63.5563 6.07912 63.1194 7.75622 63.8559 9.07002L66.1569 13.1214L68.4598 9.07002C69.1962 7.75819 68.7593 6.07912 67.4848 5.32108H67.4791Z" fill="white"/>
<path d="M66.571 24.0144C68.0249 23.7774 69.0169 22.3721 68.7866 20.8756C68.5563 19.3791 67.191 18.358 65.7371 18.5951C64.2831 18.8321 63.2912 20.2374 63.5215 21.7339C63.7517 23.2304 65.1171 24.2515 66.571 24.0144Z" fill="white"/>
<path d="M101.426 17.2435C102.898 17.2435 104.092 16.0152 104.092 14.5C104.092 12.9848 102.898 11.7565 101.426 11.7565C99.9541 11.7565 98.7607 12.9848 98.7607 14.5C98.7607 16.0152 99.9541 17.2435 101.426 17.2435Z" fill="white"/>
</g>
<defs>
<filter id="filter0_dd_563_11057" x="0" y="0" width="32" height="31" filterUnits="userSpaceOnUse" color-interpolation-filters="sRGB">
<feFlood flood-opacity="0" result="BackgroundImageFix"/>
<feColorMatrix in="SourceAlpha" type="matrix" values="0 0 0 0 0 0 0 0 0 0 0 0 0 0 0 0 0 0 127 0" result="hardAlpha"/>
<feOffset dy="1"/>
<feGaussianBlur stdDeviation="1"/>
<feColorMatrix type="matrix" values="0 0 0 0 0.0627451 0 0 0 0 0.0941176 0 0 0 0 0.156863 0 0 0 0.06 0"/>
<feBlend mode="normal" in2="BackgroundImageFix" result="effect1_dropShadow_563_11057"/>
<feColorMatrix in="SourceAlpha" type="matrix" values="0 0 0 0 0 0 0 0 0 0 0 0 0 0 0 0 0 0 127 0" result="hardAlpha"/>
<feOffset dy="1"/>
<feGaussianBlur stdDeviation="1.5"/>
<feColorMatrix type="matrix" values="0 0 0 0 0.0627451 0 0 0 0 0.0941176 0 0 0 0 0.156863 0 0 0 0.1 0"/>
<feBlend mode="normal" in2="effect1_dropShadow_563_11057" result="effect2_dropShadow_563_11057"/>
<feBlend mode="normal" in="SourceGraphic" in2="effect2_dropShadow_563_11057" result="shape"/>
</filter>
<linearGradient id="paint0_linear_563_11057" x1="31.1196" y1="6.42176" x2="16.3248" y2="14.383" gradientUnits="userSpaceOnUse">
<stop offset="0.275" stop-color="#A4BCFD" stop-opacity="0"/>
<stop offset="1" stop-color="#6979F9"/>
</linearGradient>
<clipPath id="clip0_563_11057">
<rect x="3" y="2" width="26" height="25" rx="6" fill="white"/>
</clipPath>
<clipPath id="clip1_563_11057">
<rect width="73" height="19.0923" fill="white" transform="translate(37 4.95386)"/>
</clipPath>
</defs>
</svg>
