<svg width="107" height="39" viewBox="0 0 107 39" fill="none" xmlns="http://www.w3.org/2000/svg">
<g filter="url(#filter0_dd_372_5146)">
<g clip-path="url(#clip0_372_5146)">
<rect x="3" y="3" width="32" height="32" rx="8" fill="white"/>
<path fill-rule="evenodd" clip-rule="evenodd" d="M24.6713 28.4602C24.6711 28.4603 24.671 28.4604 24.6708 28.4605C19.3726 31.5194 12.5977 29.7041 9.53873 24.4059C6.47977 19.1076 8.29509 12.3327 13.5934 9.27377C13.6177 9.25971 13.6421 9.24575 13.6665 9.2319L27.9225 1.00118L39 20.1879L24.6714 28.4605L24.6713 28.4602Z" fill="url(#paint0_linear_372_5146)"/>
<circle cx="19.1321" cy="18.8671" r="11.0775" transform="rotate(-30 19.1321 18.8671)" fill="#A4BCFD"/>
<circle cx="19.2029" cy="18.9403" r="9.35635" transform="rotate(-30 19.2029 18.9403)" fill="#6172F3"/>
<circle cx="19.2054" cy="18.94" r="6.8904" transform="rotate(-30 19.2054 18.94)" fill="#3538CD"/>
</g>
</g>
<path d="M43.9773 18.5449C43.9773 15.9434 44.7977 13.8398 46.4383 12.2344C48.0906 10.6289 50.1414 9.82617 52.5906 9.82617C55.0164 9.82617 57.0145 10.623 58.5848 12.2168C60.1551 13.8105 60.9402 15.9199 60.9402 18.5449C60.9402 19.166 60.9285 19.5938 60.9051 19.8281H47.2645C47.4637 21.2227 48.0613 22.3359 49.0574 23.168C50.0535 24 51.2664 24.416 52.6961 24.416C53.7156 24.416 54.659 24.1875 55.5262 23.7305C56.3934 23.2734 57.0555 22.6348 57.5125 21.8145C57.8406 21.9434 58.3445 22.1426 59.0242 22.4121C59.7039 22.6699 60.1375 22.834 60.325 22.9043C59.6219 24.334 58.573 25.4355 57.1785 26.209C55.7957 26.9707 54.2664 27.3516 52.5906 27.3516C50.1531 27.3516 48.1082 26.5371 46.4559 24.9082C44.8035 23.2793 43.9773 21.1582 43.9773 18.5449ZM47.2645 17.2793H57.6883C57.4891 15.8848 56.9266 14.7891 56.0008 13.9922C55.0867 13.1836 53.95 12.7793 52.5906 12.7793C51.1844 12.7793 49.9949 13.1836 49.0223 13.9922C48.0496 14.7891 47.4637 15.8848 47.2645 17.2793ZM62.1813 18.5801C62.1813 16.8457 62.5738 15.3047 63.359 13.957C64.1441 12.6094 65.1813 11.584 66.4703 10.8809C67.7594 10.1777 69.1773 9.82617 70.7242 9.82617C71.9547 9.82617 73.109 10.0781 74.1871 10.582C75.277 11.0742 76.0855 11.7832 76.6129 12.709V10.1953H79.8648V27H76.6129V24.416C76.0738 25.3418 75.2594 26.0625 74.1695 26.5781C73.0914 27.0938 71.943 27.3516 70.7242 27.3516C68.357 27.3516 66.3414 26.5371 64.6773 24.9082C63.0133 23.2793 62.1813 21.1699 62.1813 18.5801ZM65.5387 18.5449C65.5387 20.1738 66.066 21.5156 67.1207 22.5703C68.1754 23.625 69.4703 24.1523 71.0055 24.1523C72.5641 24.1523 73.8824 23.6484 74.9605 22.6406C76.0387 21.6328 76.5777 20.2676 76.5777 18.5449C76.5777 17.3965 76.2965 16.3945 75.734 15.5391C75.1715 14.6719 74.4742 14.0391 73.6422 13.6406C72.8219 13.2305 71.943 13.0254 71.0055 13.0254C69.4586 13.0254 68.1578 13.5352 67.1031 14.5547C66.0602 15.5742 65.5387 16.9043 65.5387 18.5449ZM81.7738 12.9551V10.1953H84.7973V3.84961H88.0844V10.1953H91.6352V12.9551H88.0844V27H84.7973V12.9551H81.7738ZM92.3312 21.9551H95.3195C95.3781 22.3301 95.5246 22.6934 95.759 23.0449C96.0051 23.3965 96.3156 23.6719 96.6906 23.8711C97.4406 24.3281 98.3254 24.5215 99.3449 24.4512C100.107 24.3926 100.722 24.1641 101.191 23.7656C101.659 23.3672 101.9 22.8633 101.911 22.2539C101.923 21.6797 101.724 21.2227 101.314 20.8828C100.904 20.5312 100.359 20.2793 99.6789 20.127L97.3762 19.582C95.7707 19.1484 94.5812 18.5039 93.8078 17.6484C93.0461 16.7812 92.7355 15.6035 92.8762 14.1152C92.9934 12.8965 93.6203 11.877 94.757 11.0566C95.8937 10.2363 97.2121 9.82617 98.7121 9.82617C99.4504 9.82617 100.142 9.91406 100.786 10.0898C101.431 10.2656 102.023 10.541 102.562 10.916C103.112 11.2793 103.558 11.7715 103.898 12.3926C104.249 13.0137 104.46 13.7402 104.53 14.5723H101.402C101.32 13.9629 101.032 13.4941 100.54 13.166C100.048 12.8379 99.4621 12.6738 98.7824 12.6738C98.1613 12.6738 97.6105 12.8145 97.1301 13.0957C96.6613 13.377 96.3684 13.7402 96.2512 14.1855C96.1105 14.7129 96.1223 15.1582 96.2863 15.5215C96.5441 16.0723 97.2062 16.5 98.2727 16.8047L100.751 17.4199C103.657 18.1348 105.111 19.7695 105.111 22.3242C105.111 23.8359 104.478 25.0547 103.212 25.9805C101.946 26.8945 100.405 27.3516 98.5891 27.3516C97.5578 27.3516 96.5793 27.1523 95.6535 26.7539C94.7277 26.3438 93.9484 25.7168 93.3156 24.873C92.6945 24.0293 92.3664 23.0566 92.3312 21.9551Z" fill="#F5F8FF"/>
<defs>
<filter id="filter0_dd_372_5146" x="0" y="1" width="38" height="38" filterUnits="userSpaceOnUse" color-interpolation-filters="sRGB">
<feFlood flood-opacity="0" result="BackgroundImageFix"/>
<feColorMatrix in="SourceAlpha" type="matrix" values="0 0 0 0 0 0 0 0 0 0 0 0 0 0 0 0 0 0 127 0" result="hardAlpha"/>
<feOffset dy="1"/>
<feGaussianBlur stdDeviation="1"/>
<feColorMatrix type="matrix" values="0 0 0 0 0.0627451 0 0 0 0 0.0941176 0 0 0 0 0.156863 0 0 0 0.06 0"/>
<feBlend mode="normal" in2="BackgroundImageFix" result="effect1_dropShadow_372_5146"/>
<feColorMatrix in="SourceAlpha" type="matrix" values="0 0 0 0 0 0 0 0 0 0 0 0 0 0 0 0 0 0 127 0" result="hardAlpha"/>
<feOffset dy="1"/>
<feGaussianBlur stdDeviation="1.5"/>
<feColorMatrix type="matrix" values="0 0 0 0 0.0627451 0 0 0 0 0.0941176 0 0 0 0 0.156863 0 0 0 0.1 0"/>
<feBlend mode="normal" in2="effect1_dropShadow_372_5146" result="effect2_dropShadow_372_5146"/>
<feBlend mode="normal" in="SourceGraphic" in2="effect2_dropShadow_372_5146" result="shape"/>
</filter>
<linearGradient id="paint0_linear_372_5146" x1="37.5339" y1="8.94981" x2="19.2761" y2="18.7841" gradientUnits="userSpaceOnUse">
<stop offset="0.275" stop-color="#A4BCFD" stop-opacity="0"/>
<stop offset="1" stop-color="#A4BCFD"/>
</linearGradient>
<clipPath id="clip0_372_5146">
<rect x="3" y="3" width="32" height="32" rx="8" fill="white"/>
</clipPath>
</defs>
</svg>
