<svg width="164" height="360" viewBox="0 0 164 360" fill="none" xmlns="http://www.w3.org/2000/svg">
<path fill-rule="evenodd" clip-rule="evenodd" d="M92.9167 256.784L144.893 279.46C147.4 280.899 146.433 288.901 145.976 290.666C145.705 291.742 144.877 292.755 143.476 293.553L97.7072 319.881C94.0156 322.002 87.7624 321.847 83.7303 319.533L33.7743 290.797C31.7466 289.629 30.6709 288.143 30.5703 286.68C30.4697 285.233 29.5255 277.355 31.3597 276.294L78.9321 256.428C82.6236 254.307 88.8769 254.462 92.909 256.784H92.9167Z" fill="#D5D4F2"/>
<path fill-rule="evenodd" clip-rule="evenodd" d="M93.2341 248.496L143.19 277.231C147.215 279.545 147.493 283.144 143.802 285.272L98.0324 311.601C94.3408 313.721 88.0876 313.566 84.0555 311.245L34.0994 282.509C30.0751 280.195 29.7965 276.597 33.488 274.468L79.2572 248.14C82.9488 246.019 89.202 246.174 93.2341 248.496Z" fill="#DFE7FE"/>
<path fill-rule="evenodd" clip-rule="evenodd" d="M61.5173 93.6202C61.2774 94.4019 58.0193 100.988 55.5814 103.503C45.6366 113.788 29.547 121.574 29.872 123.671C30.4989 127.703 28.9279 130.861 39.7626 128.021C50.8296 125.126 67.6699 113.626 71.8026 103.898C75.9353 94.1697 73.7839 90.8496 73.7839 90.8496C73.7839 90.8496 61.765 92.8308 61.5251 93.6202H61.5173Z" fill="#FEDFC6"/>
<path fill-rule="evenodd" clip-rule="evenodd" d="M54.0876 101.546C54.2579 100.548 55.8212 99.9983 56.4635 97.9862C57.1059 95.9817 57.5547 94.0005 58.8394 94.8209C60.1241 95.6412 68.8384 104.007 68.3353 106.685C67.8246 109.363 65.1623 113.766 63.986 113.41C62.8019 113.054 60.4182 112.133 56.4713 108.271C53.2827 105.145 53.8167 103.179 54.0953 101.546H54.0876Z" fill="#E6F6FE"/>
<path fill-rule="evenodd" clip-rule="evenodd" d="M57.1764 96.1738L55.5977 99.7338C55.5977 99.7338 56.5805 102.512 59.5524 104.478C62.5242 106.444 67.067 108.038 67.067 108.038L69.8377 102.899L66.6724 96.971L57.1764 96.1816V96.1738Z" fill="#BDCEF9"/>
<path fill-rule="evenodd" clip-rule="evenodd" d="M115.567 265.05C115.567 265.05 115.907 268.362 116.163 269.074C116.418 269.794 116.789 274.538 117.045 277.912C117.316 281.433 117.184 287.888 116.751 289.149C115.605 292.485 112.835 296.463 110.637 296.091C108.114 295.666 105.452 288.398 105.63 286.982C106.496 280.288 107.665 276.612 107.789 274.158C107.866 272.626 106.179 264.516 106.388 263.943C106.589 263.37 115.567 265.057 115.567 265.057V265.05Z" fill="#31034A"/>
<path fill-rule="evenodd" clip-rule="evenodd" d="M82.5554 250.222C82.1297 249.502 73.4 248.635 73.0595 249.827C72.7189 251.019 72.8969 258.859 72.6648 259.315C72.3397 259.958 66.9765 264.199 64.3607 265.646C61.7448 267.093 55.0892 271.744 56.4513 272.766C57.7824 273.764 62.7277 274.267 67.526 272.371C72.3242 270.475 74.0191 269.732 75.0407 269.6C78.1208 269.214 83.3525 266.59 83.7395 265.251C84.1342 263.912 82.9733 250.941 82.5554 250.222Z" fill="#31034A"/>
<path fill-rule="evenodd" clip-rule="evenodd" d="M82.5515 250.223C82.1258 249.503 73.3961 248.636 73.0556 249.828C72.715 251.02 72.893 258.86 72.6609 259.316C72.3358 259.959 66.9726 264.2 64.3568 265.647C61.7409 267.094 55.0853 271.745 56.4474 272.767C57.7785 273.765 62.7238 274.268 67.5221 272.372C72.3203 270.476 74.0152 269.733 75.0368 269.601C78.1169 269.215 83.3486 266.591 83.7356 265.252C84.1302 263.913 82.9694 250.942 82.5515 250.223Z" fill="#31034A"/>
<mask id="mask0_50_4888" style="mask-type:luminance" maskUnits="userSpaceOnUse" x="56" y="249" width="28" height="25">
<path d="M82.5476 250.222C82.1219 249.502 73.3922 248.635 73.0516 249.827C72.7111 251.019 72.8891 258.859 72.6569 259.315C72.3319 259.958 66.9687 264.199 64.3529 265.646C61.737 267.093 55.0814 271.744 56.4435 272.766C57.7746 273.764 62.7199 274.267 67.5182 272.371C72.3164 270.475 74.0113 269.732 75.0329 269.6C78.113 269.214 83.3447 266.59 83.7316 265.251C84.1263 263.912 82.9655 250.941 82.5476 250.222Z" fill="white"/>
</mask>
<g mask="url(#mask0_50_4888)">
<path fill-rule="evenodd" clip-rule="evenodd" d="M68.5788 260.624C68.5788 260.624 70.947 260.144 72.5335 261.018C74.1277 261.893 75.6291 263.735 74.9094 264.578C74.1819 265.422 73.733 264.973 72.9282 264.184C72.131 263.386 70.5523 262.38 69.3682 262.21C68.1841 262.032 68.5788 260.631 68.5788 260.631V260.624Z" fill="#E6F6FE"/>
<path fill-rule="evenodd" clip-rule="evenodd" d="M66.9929 263.394C66.9929 263.394 72.2401 265.599 71.3423 266.559C70.4523 267.519 69.6784 267.418 68.5717 266.559C67.465 265.7 65.0117 264.585 65.0117 264.585L66.9929 263.401V263.394Z" fill="#E6F6FE"/>
</g>
<path fill-rule="evenodd" clip-rule="evenodd" d="M116.446 279.607C116.283 278.818 114.557 277.626 112.491 277.634C110.425 277.634 108.722 278.98 108.536 279.607C108.351 280.242 108.149 281.055 108.931 280.791C109.713 280.536 111.322 279.267 112.886 279.607C114.449 279.948 116.19 281.898 116.446 281.194C116.701 280.482 116.608 280.397 116.446 279.607Z" fill="#E6F6FE"/>
<path fill-rule="evenodd" clip-rule="evenodd" d="M116.048 283.168C115.754 282.673 113.982 281.566 111.699 281.589C109.416 281.605 108.743 282.123 108.534 282.773C108.325 283.431 107.876 284.414 108.928 284.352C109.741 284.306 110.739 283.563 111.699 283.563C113.262 283.563 114.926 284.731 115.654 284.352C116.335 283.996 116.35 283.663 116.048 283.168Z" fill="#E6F6FE"/>
<path fill-rule="evenodd" clip-rule="evenodd" d="M116.564 262.48C116.905 262.983 117.098 267.248 116.564 268.014C116.03 268.78 115.179 270.552 112.215 270.39C109.251 270.227 107.501 269.531 107.076 268.416C106.65 267.302 105.598 263.262 106.286 262.883C106.975 262.496 116.231 261.985 116.572 262.488L116.564 262.48Z" fill="#E6F6FE"/>
<path fill-rule="evenodd" clip-rule="evenodd" d="M83.3312 249.038C83.5092 249.308 84.2058 254.261 83.7259 254.966C83.2461 255.678 80.847 257.473 77.3953 256.947C73.6109 256.367 72.7905 254.594 72.6512 253.782C72.5119 252.969 71.4672 246.956 73.0459 246.662C74.6247 246.368 83.1532 248.767 83.3312 249.038Z" fill="#E6F6FE"/>
<path fill-rule="evenodd" clip-rule="evenodd" d="M65.8436 151.23C65.8436 151.23 64.9381 181.165 67.0277 203.826C69.125 226.486 69.4578 247.258 70.5877 249.703C71.5861 251.855 73.3119 252.799 76.5236 253.263C79.7354 253.728 83.1793 252.079 83.6436 249.703C84.108 247.327 87.5983 180.895 87.5983 180.895C88.6431 191.582 88.8908 194.748 92.9538 220.728C97.4734 249.657 103.85 264.911 104.609 265.522C105.46 266.203 110.142 268.509 112.913 267.101C115.165 265.955 116.473 262.063 116.473 260.77C116.473 257.883 112.867 239.464 113.308 217.663C113.749 195.87 116.821 158.087 115.289 155.975C113.757 153.862 65.8436 151.23 65.8436 151.23Z" fill="#90A7CF"/>
<mask id="mask1_50_4888" style="mask-type:luminance" maskUnits="userSpaceOnUse" x="65" y="151" width="52" height="117">
<path d="M65.8514 151.23C65.8514 151.23 64.946 181.165 67.0355 203.826C69.1328 226.486 69.4656 247.258 70.5955 249.703C71.5939 251.855 73.3197 252.799 76.5314 253.263C79.7432 253.728 83.1871 252.079 83.6514 249.703C84.1158 247.327 87.6061 180.895 87.6061 180.895C88.6509 191.582 88.8986 194.748 92.9616 220.728C97.4813 249.657 103.858 264.911 104.617 265.522C105.468 266.203 110.15 268.509 112.921 267.101C115.173 265.955 116.481 262.063 116.481 260.77C116.481 257.883 112.874 239.464 113.316 217.663C113.757 195.87 116.829 158.087 115.297 155.975C113.764 153.862 65.8514 151.23 65.8514 151.23Z" fill="white"/>
</mask>
<g mask="url(#mask1_50_4888)">
<path fill-rule="evenodd" clip-rule="evenodd" d="M90.3671 212.145C90.3671 212.145 87.0006 183.007 86.4124 175.369C85.8242 167.73 85.2283 153.219 85.2283 153.219L60.703 147.291C60.703 147.291 51.2071 200.706 51.6018 201.867C51.9965 203.028 55.2624 250.957 56.3459 251.297C57.4294 251.645 84.4312 261.582 84.4312 261.582L90.3671 212.153V212.145Z" fill="#6C86B5"/>
<path d="M83.4793 162.289C83.4793 162.289 79.6097 243.356 80.5771 256.513L91.7989 245.871C91.7989 245.871 85.4141 169.834 87.5424 162.095C89.6706 154.356 83.4793 162.289 83.4793 162.289Z" fill="#839BCE"/>
<path d="M110.179 164.031C110.179 164.031 110.14 174.463 109.792 188.989C109.181 214.11 108.902 251.452 115.403 268.122C115.403 268.122 122.562 271.411 123.142 271.411C123.723 271.411 134.364 263.478 133.977 255.159C133.59 246.839 136.492 243.744 132.429 228.459C128.366 213.174 124.497 230.394 124.497 200.018C124.497 169.641 124.883 171.383 124.497 168.094C124.11 164.804 124.303 162.289 123.142 162.096C121.981 161.902 110.566 151.648 110.179 164.031Z" fill="#A5B9E1"/>
<g style="mix-blend-mode:soft-light">
<path fill-rule="evenodd" clip-rule="evenodd" d="M117.282 165.725C117.282 165.725 109.837 171.375 100.272 170.075C90.714 168.774 85.6371 166.515 85.6371 166.515C85.6371 166.515 86.3336 174.888 86.8212 177.589C87.1695 179.501 87.2159 181.149 87.2159 181.149C87.2159 181.149 86.4884 177.164 85.2347 173.24C83.7255 168.504 82.4641 166.12 82.4641 166.12C82.4641 166.12 76.0328 165.872 70.9947 163.349C65.9565 160.826 64.6641 158.605 64.6641 158.605L65.0588 153.072L98.6775 152.677C98.6775 152.677 108.22 152.383 113.707 156.237C116.733 158.365 117.267 165.725 117.267 165.725H117.282Z" fill="black"/>
</g>
</g>
<path fill-rule="evenodd" clip-rule="evenodd" d="M55.3828 96.3305C55.3828 96.3305 56.8455 82.1446 65.6681 74.9782C74.4907 67.8118 86.3393 59.1517 107.204 70.6288C128.758 82.4852 128.688 90.9673 130.94 105.432C132.17 113.372 126.567 124.454 126.985 124.021C127.45 123.534 124.609 124.416 124.609 124.416C124.609 124.416 120.724 160.906 119.471 161.587C118.209 162.268 109.665 169.519 92.5693 165.936C82.5007 163.823 63.3309 156.51 63.2999 154.862C63.269 153.213 65.4514 113.403 65.6759 110.965C65.8926 108.527 65.6759 106.221 65.6759 106.221C65.6759 106.221 61.6283 104.518 59.7399 102.661C57.8516 100.804 55.3906 96.3305 55.3906 96.3305H55.3828Z" fill="#8098F9"/>
<mask id="mask2_50_4888" style="mask-type:luminance" maskUnits="userSpaceOnUse" x="55" y="65" width="77" height="102">
<path d="M55.3867 96.3305C55.3867 96.3305 56.8494 82.1446 65.672 74.9782C74.4946 67.8118 86.3432 59.1517 107.208 70.6288C128.761 82.4852 128.692 90.9673 130.944 105.432C132.174 113.372 126.571 124.454 126.989 124.021C127.453 123.534 124.613 124.416 124.613 124.416C124.613 124.416 120.728 160.906 119.474 161.587C118.213 162.268 109.669 169.519 92.5732 165.936C82.5046 163.823 63.3348 156.51 63.3038 154.862C63.2729 153.213 65.4553 113.403 65.6798 110.965C65.8965 108.527 65.6798 106.221 65.6798 106.221C65.6798 106.221 61.6322 104.518 59.7438 102.661C57.8555 100.804 55.3945 96.3305 55.3945 96.3305H55.3867Z" fill="white"/>
</mask>
<g mask="url(#mask2_50_4888)">
<g style="mix-blend-mode:soft-light">
<path fill-rule="evenodd" clip-rule="evenodd" d="M127.087 123.543C127.087 123.543 124.719 123.017 122.738 122.359C120.757 121.701 111.663 126.314 111.663 126.314L106.122 133.434C106.122 133.434 86.2865 138.387 84.7618 138.573C83.2372 138.766 81.6739 138.689 80.0178 140.151C78.3616 141.614 72.5959 146.544 73.2925 146.877C73.989 147.209 73.8884 148.099 75.2737 147.666C76.659 147.233 79.6231 145.693 79.6231 145.693C79.6231 145.693 75.2892 148.061 76.0631 148.858C76.837 149.655 81.7823 150.739 83.5778 150.042C85.3732 149.345 90.4656 143.673 91.8818 143.711C93.3059 143.75 108.049 140.322 114.821 135.407C120.091 131.584 127.079 123.543 127.079 123.543H127.087Z" fill="black"/>
</g>
<g style="mix-blend-mode:soft-light">
<path fill-rule="evenodd" clip-rule="evenodd" d="M114.098 88.9805C114.098 88.9805 108.472 93.059 106.978 98.8633C105.485 104.675 104.084 112.925 103.813 113.893C103.55 114.86 104.2 115.224 104.602 115.866C105.005 116.509 102.621 115.472 102.621 115.472C102.621 115.472 103.093 104.877 104.997 98.8633C107.713 90.2497 114.098 88.9805 114.098 88.9805Z" fill="black"/>
<path fill-rule="evenodd" clip-rule="evenodd" d="M65.4421 106.385C65.4421 106.385 66.0612 93.7779 66.2315 92.5474C66.4017 91.3168 66.2315 81.4727 66.2315 81.4727C66.2315 81.4727 65.1093 90.1869 65.0474 91.758C64.9855 93.3213 63.8633 105.998 63.8633 105.998L65.4421 106.393V106.385Z" fill="black"/>
</g>
</g>
<path fill-rule="evenodd" clip-rule="evenodd" d="M100.933 123.913C99.3003 124.54 93.225 128.224 90.2532 128.262C87.2814 128.301 82.0343 127.535 81.152 127.473C80.2775 127.411 74.001 126.815 72.8479 127.473C71.6948 128.131 65.813 131.126 68.1038 132.217C69.5356 132.898 70.4643 132.024 71.6638 131.822C73.0801 131.59 74.0397 132.217 74.0397 132.217C72.5461 133.2 71.9811 134.129 68.901 136.961C67.802 137.967 65.3564 139.817 64.9463 140.521C64.064 142.015 64.5129 143.176 65.341 142.897C67.0358 142.324 72.0663 138.548 72.0663 138.548C72.0663 138.548 70.6423 140.235 68.901 141.713C67.4615 142.936 65.5731 143.926 66.1303 144.484C67.3609 145.714 70.2708 146.596 72.8556 146.062C75.4405 145.528 77.5997 144.089 77.5997 144.089C77.5997 144.089 81.1443 141.016 83.141 140.134C85.1376 139.252 100.252 138.13 104.896 136.18C109.539 134.229 112.519 128.874 112.016 127.875C111.513 126.877 102.566 123.294 100.941 123.921L100.933 123.913Z" fill="#FEDFC6"/>
<mask id="mask3_50_4888" style="mask-type:luminance" maskUnits="userSpaceOnUse" x="64" y="123" width="49" height="24">
<path d="M100.933 123.913C99.3003 124.54 93.225 128.224 90.2532 128.262C87.2814 128.301 82.0343 127.535 81.152 127.473C80.2775 127.411 74.001 126.815 72.8479 127.473C71.6948 128.131 65.813 131.126 68.1038 132.217C69.5356 132.898 70.4643 132.024 71.6638 131.822C73.0801 131.59 74.0397 132.217 74.0397 132.217C72.5461 133.2 71.9811 134.129 68.901 136.961C67.802 137.967 65.3564 139.817 64.9463 140.521C64.064 142.015 64.5129 143.176 65.341 142.897C67.0358 142.324 72.0663 138.548 72.0663 138.548C72.0663 138.548 70.6423 140.235 68.901 141.713C67.4615 142.936 65.5731 143.926 66.1303 144.484C67.3609 145.714 70.2708 146.596 72.8556 146.062C75.4405 145.528 77.5997 144.089 77.5997 144.089C77.5997 144.089 81.1443 141.016 83.141 140.134C85.1376 139.252 100.252 138.13 104.896 136.18C109.539 134.229 112.519 128.874 112.016 127.875C111.513 126.877 102.566 123.294 100.941 123.921L100.933 123.913Z" fill="white"/>
</mask>
<g mask="url(#mask3_50_4888)">
<path fill-rule="evenodd" clip-rule="evenodd" d="M107.378 131.197L102.24 124.866L98.6797 122.893C98.6797 122.893 97.782 123.388 98.285 125.268C98.788 127.141 100.669 130.717 101.056 131.599C101.443 132.474 97.751 133.286 90.7703 134.37C85.678 135.159 83.5729 135.329 83.2556 135.948C82.3501 137.713 78.527 141.691 76.925 143.068C73.7365 145.8 69.0156 146.628 69.0156 146.628L68.2262 146.234C68.2262 146.234 69.7044 145.344 70.9968 144.26C71.9178 143.486 72.6994 142.457 72.978 142.287C73.3418 142.047 72.0029 142.457 70.6021 143.471C69.4722 144.291 67.5452 145.328 67.0421 145.452C65.92 145.715 65.0609 145.057 65.0609 145.057L65.8503 143.084L74.1544 137.156C74.1544 137.156 71.7785 137.179 70.5944 137.945C69.4103 138.711 65.6568 142.395 64.6585 142.295C63.6679 142.194 62.6773 141.9 62.6773 141.9L68.2185 133.596L70.9891 132.806L72.9703 132.412C72.9703 132.412 74.7348 131.738 73.7597 131.228C72.7846 130.717 72.2893 131.019 70.9891 131.228C69.6889 131.437 68.0405 132.257 67.4291 131.622C66.8177 130.988 65.4479 130.833 65.4479 130.833L60.3091 138.742L59.125 147.441L69.4103 153.369L91.9544 149.02C91.9544 149.02 105.374 140.778 105.405 140.716C105.428 140.654 108.176 134.385 108.176 134.385L107.386 131.22L107.378 131.197Z" fill="#FECBB2"/>
</g>
<path fill-rule="evenodd" clip-rule="evenodd" d="M85.6234 88.5507C85.6234 88.5507 91.1259 86.9487 95.1193 83.0172C99.1127 79.078 102.023 76.8105 102.634 74.3185C103.269 71.7491 102.077 70.3792 101.45 69.5744C100.823 68.7618 90.3907 64.2499 86.1574 67.1598C83.2785 69.141 82.1099 70.1393 82.4581 75.8972C82.8064 81.6552 85.6234 88.5507 85.6234 88.5507Z" fill="#FEDFC6"/>
<mask id="mask4_50_4888" style="mask-type:luminance" maskUnits="userSpaceOnUse" x="82" y="66" width="21" height="23">
<path d="M85.6273 88.5507C85.6273 88.5507 91.1298 86.9487 95.1232 83.0172C99.1166 79.078 102.027 76.8105 102.638 74.3185C103.273 71.7491 102.081 70.3792 101.454 69.5744C100.827 68.7618 90.3946 64.2499 86.1613 67.1598C83.2824 69.141 82.1138 70.1393 82.462 75.8972C82.8103 81.6552 85.6273 88.5507 85.6273 88.5507Z" fill="white"/>
</mask>
<g mask="url(#mask4_50_4888)">
<path fill-rule="evenodd" clip-rule="evenodd" d="M104.595 68.6061C104.595 68.6061 98.2493 76.2678 93.9154 76.5155C89.5815 76.7631 86.3001 74.4569 86.4007 71.7714C86.6329 65.6807 89.566 62.2832 89.566 62.2832L104.595 68.6138V68.6061Z" fill="#FECBB2"/>
</g>
<path fill-rule="evenodd" clip-rule="evenodd" d="M82.5015 72.4316C82.5015 72.4316 84.8309 76.1619 89.0952 77.4311C93.3595 78.7003 101.184 76.959 101.184 76.959C101.184 76.959 98.0029 81.6644 93.0499 85.3405C88.0427 89.063 84.3434 94.434 84.3434 94.434C84.3434 94.434 83.1515 85.2244 82.5247 80.8518C81.8901 76.3863 82.4937 72.4316 82.4937 72.4316H82.5015Z" fill="#E6F6FE"/>
<mask id="mask5_50_4888" style="mask-type:luminance" maskUnits="userSpaceOnUse" x="82" y="72" width="20" height="23">
<path d="M82.5008 72.4004C82.5008 72.4004 84.8303 76.1616 89.0946 77.4308C93.3588 78.7 101.121 76.9897 101.121 76.9897C101.121 76.9897 98.0023 81.6641 93.0493 85.3402C88.042 89.0627 84.3427 94.4337 84.3427 94.4337C84.3427 94.4337 82.4157 82.825 82.2841 78.406C82.1526 73.9869 82.4931 72.4004 82.4931 72.4004H82.5008Z" fill="white"/>
</mask>
<g mask="url(#mask5_50_4888)">
<path fill-rule="evenodd" clip-rule="evenodd" d="M87.3584 65.4823C87.3584 65.4823 82.1423 69.4448 84.5878 79.7146C85.3617 82.9728 86.569 86.8346 86.569 86.8346C86.569 86.8346 91.3286 84.7992 93.2943 83.2746C95.2601 81.75 103.982 74.127 103.982 74.127L99.2225 83.2746L83.2257 96.4079L69.9531 74.1734L87.3584 65.4746V65.4823Z" fill="#BDCEF9"/>
</g>
<path fill-rule="evenodd" clip-rule="evenodd" d="M86.9408 43.5568C86.9408 43.5568 84.8977 45.5381 84.1702 48.3009C83.6517 50.2744 83.7755 53.4397 83.7755 53.4397C83.7755 53.4397 81.446 51.4121 80.2155 55.4132C79.2404 58.6017 83.7755 60.9467 83.7755 60.9467C83.7755 60.9467 85.5555 69.5448 91.2902 72.0214C98.24 75.0164 105.53 63.3226 105.53 63.3226C105.53 63.3226 109.291 63.6708 110.274 59.7626C111.095 56.5044 107.504 56.2026 107.504 56.2026C107.504 56.2026 111.698 46.8924 105.128 42.7597C98.5573 38.627 86.9331 43.5491 86.9331 43.5491L86.9408 43.5568Z" fill="#FEDFC6"/>
<path fill-rule="evenodd" clip-rule="evenodd" d="M83.2413 52.9206C83.2413 52.9206 84.9903 59.6072 85.2225 57.6646C85.4469 55.7221 85.6172 52.1312 85.6172 52.1312C85.6172 52.1312 87.2734 46.8376 88.3878 45.8006C90.6554 43.6955 101.405 44.8564 103.417 45.8006C104.872 46.4816 105.445 48.308 105.793 52.1312C106.033 54.8244 105.607 60.7526 106.582 59.2512C107.062 58.5082 107.039 57.5795 108.161 56.8753C108.974 56.3645 109.57 55.8382 109.74 54.9018C110.189 52.5181 111.714 38.4871 104.996 36.3124C96.8157 33.6733 86.7239 34.8652 84.8201 39.4777C82.4596 45.1969 83.2413 52.9206 83.2413 52.9206Z" fill="#31034A"/>
<path fill-rule="evenodd" clip-rule="evenodd" d="M105.793 116.582C106.613 116.605 110.228 119.128 112.913 120.142C116.821 121.62 122.099 122.448 122.409 122.913C123.09 123.927 112.689 135.837 108.564 136.356C106.42 136.626 98.9517 126.674 99.4625 124.886C99.9733 123.098 101.838 122.719 103.022 121.326C104.207 119.933 105.213 116.567 105.793 116.582Z" fill="#E6F6FE"/>
<mask id="mask6_50_4888" style="mask-type:luminance" maskUnits="userSpaceOnUse" x="99" y="116" width="24" height="21">
<path d="M105.797 116.582C106.617 116.605 110.232 119.128 112.917 120.142C116.825 121.62 122.103 122.448 122.413 122.913C123.094 123.927 112.693 135.837 108.568 136.356C106.424 136.626 98.9556 126.674 99.4664 124.886C99.9772 123.098 101.842 122.719 103.026 121.326C104.21 119.933 105.217 116.567 105.797 116.582Z" fill="white"/>
</mask>
<g mask="url(#mask6_50_4888)">
<path fill-rule="evenodd" clip-rule="evenodd" d="M104.258 116.691C104.258 116.691 108.507 119.454 112.562 121.041C113.336 121.342 115.116 122.248 115.333 123.014C115.379 123.192 115.225 125.452 112.168 127.758C108.376 130.622 103.438 133.222 103.469 133.292C110.953 152.817 123.064 124.918 123.25 124.593C123.482 124.167 124.829 119.849 124.829 119.849L118.893 114.315L106.634 112.334L104.258 116.683V116.691Z" fill="#BDCEF9"/>
</g>
<path fill-rule="evenodd" clip-rule="evenodd" d="M47.6882 96.3439L19.5178 101.831C18.7051 102.032 17.8384 104.362 17.9467 105.12C17.9622 105.259 18.0009 105.399 18.0628 105.538L34.4156 144.853C34.7948 145.766 35.886 146.308 36.8457 146.068L65.4108 138.956C65.8674 138.839 66.2157 138.569 66.4169 138.213C66.6336 137.826 67.5778 136.309 67.3765 135.837L50.1105 97.559C49.7313 96.6457 48.6401 96.104 47.6805 96.3439H47.6882Z" fill="#210E30"/>
<path fill-rule="evenodd" clip-rule="evenodd" d="M48.1279 94.1154L19.5937 101.228C18.6341 101.468 18.162 102.404 18.5412 103.309L34.8707 142.632C35.25 143.545 36.3334 144.087 37.3008 143.855L65.835 136.743C66.7947 136.503 67.2668 135.566 66.8875 134.653L50.558 95.3304C50.1788 94.4172 49.0953 93.8755 48.1356 94.1154H48.1279Z" fill="#403949"/>
<path fill-rule="evenodd" clip-rule="evenodd" d="M47.2871 97.4434L23.6054 103.31C22.8082 103.511 22.4135 104.277 22.7309 105.028L36.2898 137.486C36.6071 138.236 37.5048 138.693 38.302 138.492L61.9837 132.625C62.7808 132.432 63.1755 131.658 62.8582 130.907L49.2993 98.4495C48.982 97.6988 48.0842 97.2499 47.2871 97.4434Z" fill="#9EAEC7"/>
<mask id="mask7_50_4888" style="mask-type:luminance" maskUnits="userSpaceOnUse" x="22" y="97" width="41" height="42">
<path d="M47.2871 97.4414L23.6054 103.308C22.8082 103.509 22.4135 104.275 22.7309 105.026L36.2898 137.484C36.6071 138.234 37.5048 138.691 38.302 138.49L61.9837 132.624C62.7808 132.43 63.1755 131.656 62.8582 130.905L49.2993 98.4475C48.982 97.6968 48.0842 97.248 47.2871 97.4414Z" fill="white"/>
</mask>
<g mask="url(#mask7_50_4888)">
<path fill-rule="evenodd" clip-rule="evenodd" d="M60.5421 124.558C59.923 124.071 26.5209 100.83 26.5209 100.83L22.9609 102.811L62.9103 129.31C62.9103 129.31 61.1535 125.054 60.5344 124.566L60.5421 124.558Z" fill="#ADBBD3"/>
<path fill-rule="evenodd" clip-rule="evenodd" d="M63.7081 131.284C63.089 130.789 22.5669 103.602 22.5669 103.602L21.3828 104.391L63.7081 132.074C63.7081 132.074 64.3272 131.772 63.7081 131.284Z" fill="#ADBBD3"/>
</g>
<path fill-rule="evenodd" clip-rule="evenodd" d="M21.8102 128.493C21.8102 128.493 20.363 128.16 20.1463 125.235C19.9296 122.31 21.3768 117.976 24.0391 118.409C25.8036 118.695 26.8174 118.347 26.9567 119.616C27.0806 120.7 25.7107 120.375 25.0452 121.11C23.923 122.348 24.2558 123.881 24.2558 123.881C24.2558 123.881 23.6366 123.261 25.4708 122.642C27.305 122.015 29.3172 123.207 30.0679 124.771C30.8186 126.334 31.9639 127.278 30.5322 128.764C29.1082 130.25 30.1917 133.284 28.9379 133.694C27.6842 134.104 25.6488 134.692 23.3426 133.16C20.3707 131.186 21.8102 128.501 21.8102 128.501V128.493Z" fill="#FEDFC6"/>
</svg>
