<svg width="384" height="360" viewBox="0 0 384 360" fill="none" xmlns="http://www.w3.org/2000/svg">
<path fill-rule="evenodd" clip-rule="evenodd" d="M193.984 144.775L53.7004 63.9644C52.6116 63.341 51.7305 64.0725 51.7305 65.6185V185.446C51.7305 186.983 52.6116 188.737 53.7004 189.369L193.984 270.179C195.072 270.802 195.954 270.063 195.954 268.525V148.698C195.954 147.16 195.072 145.406 193.984 144.775Z" fill="#FECDD6"/>
<path d="M194.733 274.144C193.844 274.144 192.946 273.895 192.123 273.421L51.8402 192.611C49.5793 191.306 48 188.364 48 185.446V65.6107C48 61.9284 50.5019 60 52.9706 60C53.86 60 54.7577 60.2494 55.5806 60.7232L195.864 141.533C198.125 142.838 199.704 145.781 199.704 148.698V268.534C199.704 269.847 199.363 271.044 198.723 271.992C197.8 273.363 196.346 274.144 194.733 274.144ZM55.7469 186.227L192.223 264.851V148.698C192.223 148.474 192.082 148.108 191.957 147.917L55.4726 69.3012V185.446C55.4726 185.67 55.6139 186.036 55.7386 186.227H55.7469Z" fill="#FECDD6"/>
<mask id="mask0_50_5524" style="mask-type:luminance" maskUnits="userSpaceOnUse" x="51" y="63" width="145" height="208">
<path d="M193.991 144.776L53.7083 63.9664C52.6194 63.3429 51.7383 64.0744 51.7383 65.6205V185.448C51.7383 186.985 52.6194 188.739 53.7083 189.371L193.991 270.181C195.08 270.804 195.961 270.065 195.961 268.527V148.7C195.961 147.162 195.08 145.408 193.991 144.776Z" fill="white"/>
</mask>
<g mask="url(#mask0_50_5524)">
<g style="mix-blend-mode:soft-light">
<path fill-rule="evenodd" clip-rule="evenodd" d="M203.169 162.554C203.169 162.554 179.596 139.471 160.221 156.76C140.845 174.049 137.387 186.06 124.753 179.244C112.127 172.437 94.8876 158.905 85.3453 167.134C74.7557 176.269 67.8068 179.203 61.3067 172.794C44.5412 156.27 33.8768 149.728 33.7272 151.889C33.5693 154.05 32.2476 180.882 33.3365 186.218C34.4171 191.555 47.5585 230.987 50.2849 228.859C53.0029 226.74 213.426 303.884 213.426 303.884L203.177 162.545L203.169 162.554Z" fill="#D0D8FD"/>
</g>
<g style="mix-blend-mode:soft-light">
<path fill-rule="evenodd" clip-rule="evenodd" d="M204.024 187.366C204.024 187.366 177.426 166.054 162.647 179.137C147.876 192.22 133.729 189.211 129.149 185.479C124.569 181.747 93.6148 163.244 84.2304 174.648C74.8377 186.053 71.5379 185.67 59.8012 176.178C48.0645 166.694 40.4922 161.715 40.4922 161.715L43.2518 192.287L193.784 303.527C193.784 303.527 223.741 304.55 222.153 302.04C220.565 299.521 204.024 187.374 204.024 187.374V187.366Z" fill="#E2F4FE"/>
</g>
<path d="M170.494 219.617C170.494 219.617 170.469 219.617 170.461 219.617C169.837 219.601 169.322 219.127 169.255 218.512L165.54 185.904L165.432 193.019C165.432 193.459 165.182 193.867 164.8 194.083C164.418 194.299 163.944 194.299 163.562 194.083L152.157 187.516L151.634 199.053C151.6 199.702 151.077 200.225 150.428 200.242C150.42 200.242 150.404 200.242 150.395 200.242C149.764 200.242 149.223 199.76 149.157 199.128L145.616 165.364L140.994 205.828C140.919 206.459 140.387 206.933 139.756 206.933H139.731C139.082 206.917 138.559 206.418 138.517 205.769L136.589 177.99L126.39 172.114L122.691 178.065C122.408 178.514 121.876 178.739 121.361 178.622C120.846 178.506 120.455 178.082 120.397 177.55L118.011 157.476L117.363 177.608C117.346 178.248 116.848 178.764 116.208 178.813C115.584 178.872 115.002 178.414 114.894 177.791L112.234 162.838L104.737 158.515L100.639 165.331C100.381 165.763 99.8826 166.004 99.3756 165.921C98.8769 165.838 98.4696 165.464 98.3532 164.974L94.4299 148.059L91.3461 173.327C91.2713 173.967 90.6895 174.441 90.0744 174.425C89.4343 174.408 88.9107 173.909 88.8608 173.269L86.7745 144.867L86.6332 147.668C86.6082 148.1 86.3672 148.491 85.9848 148.699C85.6025 148.906 85.1453 148.898 84.7629 148.682L78.8198 145.257L76.7501 157.177C76.642 157.8 76.0851 158.233 75.4534 158.208C74.8217 158.174 74.3146 157.667 74.2814 157.036L73.284 140.303L73.2091 140.678C73.1343 141.068 72.8683 141.409 72.5026 141.575C72.1369 141.741 71.713 141.725 71.3638 141.517L55.2052 132.207C54.6067 131.867 54.4072 131.102 54.748 130.504C55.0888 129.905 55.8535 129.706 56.452 130.046L71.0979 138.483L72.7187 130.179C72.8351 129.564 73.4003 129.14 74.0237 129.174C74.6471 129.215 75.1459 129.714 75.1874 130.346L76.1267 146.18L76.667 143.071C76.7335 142.672 76.9994 142.332 77.3652 142.157C77.7309 141.983 78.1631 141.999 78.5206 142.207L84.2476 145.507L85.3115 124.801C85.3448 124.145 85.8851 123.629 86.5417 123.621H86.5583C87.215 123.621 87.7553 124.128 87.8052 124.776L90.4152 160.352L92.809 140.736C92.8839 140.137 93.3743 139.672 93.9811 139.638C94.5878 139.614 95.1281 140.013 95.2611 140.603L100.082 161.4L103.224 156.171C103.573 155.589 104.33 155.398 104.911 155.731L113.972 160.951C114.287 161.134 114.512 161.449 114.578 161.815L115.252 165.589L116.05 140.86C116.075 140.204 116.59 139.68 117.238 139.655C117.887 139.63 118.452 140.104 118.527 140.752L122.442 173.718L124.902 169.762C125.259 169.188 125.999 169.005 126.581 169.338L138.401 176.145C138.758 176.353 138.991 176.727 139.024 177.143L140.055 192.021L144.427 153.761C144.502 153.129 145.034 152.655 145.666 152.655C146.306 152.655 146.838 153.137 146.904 153.769L149.896 182.329L150.329 172.854C150.362 172.197 150.894 171.673 151.551 171.665C152.182 171.648 152.764 172.147 152.822 172.804L153.944 185.654L162.971 190.858L163.337 166.453C163.345 165.797 163.869 165.256 164.526 165.223C165.207 165.198 165.748 165.672 165.822 166.329L170.735 209.485L174.783 185.663C174.883 185.072 175.39 184.64 175.988 184.624H176.013C176.603 184.624 177.11 185.031 177.235 185.613L180.668 201.605L203.834 214.946C204.432 215.287 204.632 216.052 204.291 216.65C203.95 217.248 203.185 217.448 202.587 217.107L178.939 203.484C178.631 203.309 178.415 203.01 178.34 202.661L176.154 192.47L171.724 218.562C171.624 219.16 171.101 219.601 170.494 219.601V219.617Z" fill="white"/>
</g>
<g opacity="0.9">
<path fill-rule="evenodd" clip-rule="evenodd" d="M281.093 84.9492L334.174 54.2942C335.571 53.488 336.701 54.3192 336.701 56.1562V159.758C336.701 161.595 335.571 163.731 334.174 164.538L281.093 195.193C279.697 195.999 278.566 195.168 278.566 193.331V89.7287C278.566 87.8917 279.697 85.7555 281.093 84.9492Z" fill="#E0EAFF"/>
</g>
<g style="mix-blend-mode:soft-light" opacity="0.6">
<path d="M324.863 124.152L308.355 155.297L291.848 143.22L308.355 112.074L324.863 124.152Z" fill="#1A1A1A"/>
<path d="M308.356 156.543C308.09 156.543 307.833 156.46 307.617 156.302L291.109 144.225C290.61 143.859 290.452 143.186 290.743 142.637L307.251 111.492C307.417 111.176 307.716 110.943 308.074 110.86C308.423 110.777 308.797 110.86 309.088 111.068L325.596 123.145C326.094 123.511 326.252 124.184 325.961 124.733L309.454 155.878C309.287 156.194 308.988 156.427 308.631 156.51C308.539 156.535 308.448 156.543 308.348 156.543H308.356ZM293.461 142.845L307.932 153.435L323.26 124.517L308.789 113.927L293.461 142.845Z" fill="white"/>
</g>
<g style="mix-blend-mode:soft-light" opacity="0.6">
<path d="M324.863 101.515L308.355 132.66L291.848 120.583L308.355 89.4375L324.863 101.515Z" fill="white"/>
<path d="M308.356 133.899C308.09 133.899 307.833 133.816 307.617 133.658L291.109 121.58C290.61 121.214 290.452 120.541 290.743 119.993L307.251 88.8472C307.417 88.5313 307.716 88.2986 308.074 88.2154C308.423 88.1323 308.797 88.2154 309.088 88.4232L325.596 100.501C326.094 100.866 326.252 101.54 325.961 102.088L309.454 133.234C309.287 133.55 308.988 133.782 308.631 133.865C308.539 133.89 308.448 133.899 308.348 133.899H308.356ZM293.461 120.2L307.932 130.79L323.26 101.872L308.789 91.2826L293.461 120.2Z" fill="#333333"/>
</g>
<g opacity="0.9">
<path fill-rule="evenodd" clip-rule="evenodd" d="M220.246 150.597L298.089 105.653C300.134 104.473 301.796 105.695 301.796 108.379V264.597C301.796 267.29 300.134 270.424 298.089 271.604L220.246 316.547C218.201 317.728 216.539 316.506 216.539 313.821V157.604C216.539 154.911 218.201 151.777 220.246 150.597Z" fill="#A4BCFD"/>
</g>
<path fill-rule="evenodd" clip-rule="evenodd" d="M227.762 163.904L235.176 159.623V227.782L227.762 232.063V163.904Z" fill="white"/>
<path fill-rule="evenodd" clip-rule="evenodd" d="M239 176.181L246.414 171.9V221.457L239 225.738V176.181Z" fill="white"/>
<path fill-rule="evenodd" clip-rule="evenodd" d="M250.238 181.31L257.653 177.029V215.124L250.238 219.404V181.31Z" fill="white"/>
<path fill-rule="evenodd" clip-rule="evenodd" d="M261.484 152.749L268.899 148.469V208.798L261.484 213.079V152.749Z" fill="white"/>
<path fill-rule="evenodd" clip-rule="evenodd" d="M272.723 176.332L280.137 172.051V202.465L272.723 206.745V176.332Z" fill="white"/>
<path fill-rule="evenodd" clip-rule="evenodd" d="M283.969 160.181L291.383 155.9V196.123L283.969 200.403V160.181Z" fill="white"/>
<g style="mix-blend-mode:soft-light">
<path fill-rule="evenodd" clip-rule="evenodd" d="M225.371 249.504L255.768 231.957V237.967L225.371 255.513V249.504Z" fill="#1A1A1A"/>
</g>
<g style="mix-blend-mode:soft-light">
<path fill-rule="evenodd" clip-rule="evenodd" d="M225.371 258.522L248.445 245.189V251.199L225.371 264.532V258.522Z" fill="#1A1A1A"/>
</g>
<g style="mix-blend-mode:soft-light">
<path fill-rule="evenodd" clip-rule="evenodd" d="M225.371 267.549L270.464 241.523V247.533L225.371 273.558V267.549Z" fill="#1A1A1A"/>
</g>
<g style="mix-blend-mode:soft-light">
<path fill-rule="evenodd" clip-rule="evenodd" d="M225.371 276.567L254.181 259.951V265.961L225.371 282.577V276.567Z" fill="#1A1A1A"/>
</g>
<g style="mix-blend-mode:soft-light">
<path fill-rule="evenodd" clip-rule="evenodd" d="M225.371 285.586L263.125 263.767V269.776L225.371 291.595V285.586Z" fill="#1A1A1A"/>
</g>
<g style="mix-blend-mode:soft-light">
<path fill-rule="evenodd" clip-rule="evenodd" d="M225.371 294.612L275.044 265.985V271.995L225.371 300.622V294.612Z" fill="#1A1A1A"/>
</g>
<path d="M223.033 240.509C222.958 240.509 222.891 240.492 222.825 240.451C222.7 240.376 222.617 240.243 222.617 240.093V156.839C222.617 156.607 222.8 156.424 223.033 156.424C223.266 156.424 223.448 156.607 223.448 156.839V239.378L295.664 197.993C295.863 197.876 296.113 197.943 296.229 198.142C296.345 198.342 296.271 198.599 296.079 198.707L223.241 240.451C223.174 240.484 223.108 240.509 223.033 240.509Z" fill="white"/>
<g style="mix-blend-mode:soft-light">
<path d="M223.033 308.087C222.958 308.087 222.891 308.07 222.825 308.029C222.7 307.954 222.617 307.821 222.617 307.671V247.833C222.617 247.6 222.8 247.417 223.033 247.417C223.266 247.417 223.448 247.6 223.448 247.833V306.948L295.664 265.562C295.863 265.446 296.113 265.512 296.229 265.712C296.345 265.911 296.271 266.169 296.079 266.277L223.241 308.02C223.174 308.054 223.108 308.079 223.033 308.079V308.087Z" fill="#1A1A1A"/>
</g>
</svg>
