<svg width="318" height="361" viewBox="0 0 318 361" fill="none" xmlns="http://www.w3.org/2000/svg">
<path fill-rule="evenodd" clip-rule="evenodd" d="M148.642 262.223C154.036 267.67 167.04 263.267 169.922 263.237C172.767 263.207 204.298 260.877 215.592 257.124C234.808 250.74 250.021 240.761 259.742 233.431C269.463 226.1 279.736 219.383 277.247 215.85C274.759 212.317 253.531 209.245 244.514 211.265C235.504 213.285 198.851 219.783 182.858 229.225C166.866 238.666 171.17 246.155 168.78 248.334C166.382 250.513 145.434 258.985 148.642 262.223Z" fill="#B7BFF2"/>
<path fill-rule="evenodd" clip-rule="evenodd" d="M48.7468 283.617C48.3383 280.039 74.9673 267.08 80.3384 264.13C85.7096 261.179 96.3536 255.006 103.556 259.545C110.757 264.077 147.69 282.362 146.563 285.917C145.436 289.465 104.668 315.587 99.7503 314.959C89.0458 313.598 49.4806 289.957 48.7468 283.625V283.617Z" fill="#B7BFF2"/>
<path fill-rule="evenodd" clip-rule="evenodd" d="M123.309 276.113C120.343 276.082 117.938 278.488 117.938 281.484C117.938 284.479 120.343 286.931 123.309 286.953C126.274 286.976 128.68 284.578 128.68 281.582C128.68 278.586 126.274 276.143 123.309 276.113Z" fill="#31034A"/>
<path fill-rule="evenodd" clip-rule="evenodd" d="M99.3829 294.912C96.4174 294.882 94.0117 297.288 94.0117 300.284C94.0117 303.279 96.4174 305.723 99.3829 305.753C102.348 305.783 104.754 303.378 104.754 300.382C104.754 297.386 102.348 294.943 99.3829 294.912Z" fill="#31034A"/>
<path fill-rule="evenodd" clip-rule="evenodd" d="M76.9845 278.186C74.019 278.156 71.6133 280.561 71.6133 283.557C71.6133 286.553 74.019 288.996 76.9845 289.027C79.95 289.057 82.3556 286.651 82.3556 283.655C82.3556 280.66 79.95 278.216 76.9845 278.186Z" fill="#31034A"/>
<path fill-rule="evenodd" clip-rule="evenodd" d="M75.2813 278.995C72.3158 278.965 69.9102 281.371 69.9102 284.367C69.9102 287.362 72.3158 289.806 75.2813 289.836C78.2468 289.866 80.6525 287.461 80.6525 284.465C80.6525 281.469 78.2468 279.026 75.2813 278.995Z" fill="#31034A"/>
<path fill-rule="evenodd" clip-rule="evenodd" d="M101.09 294.375C98.1244 294.345 95.7188 296.751 95.7188 299.746C95.7188 302.742 98.1244 305.186 101.09 305.216C104.055 305.246 106.461 302.841 106.461 299.845C106.461 296.849 104.055 294.406 101.09 294.375Z" fill="#31034A"/>
<path fill-rule="evenodd" clip-rule="evenodd" d="M125.109 275.939C122.144 275.908 119.738 278.314 119.738 281.31C119.738 284.306 122.144 286.749 125.109 286.779C128.075 286.81 130.481 284.404 130.481 281.408C130.481 278.413 128.075 275.969 125.109 275.939Z" fill="#31034A"/>
<path fill-rule="evenodd" clip-rule="evenodd" d="M122.432 281.378C121.471 281.37 120.699 282.15 120.699 283.11C120.699 284.071 121.478 284.865 122.432 284.873C123.385 284.881 124.164 284.109 124.164 283.141C124.164 282.172 123.385 281.386 122.432 281.378Z" fill="#68395A"/>
<path fill-rule="evenodd" clip-rule="evenodd" d="M78.6816 282.18C77.7284 282.18 76.9492 282.944 76.9492 283.912C76.9492 284.88 77.7284 285.667 78.6816 285.675C79.6348 285.682 80.414 284.911 80.414 283.942C80.414 282.974 79.6348 282.187 78.6816 282.18Z" fill="#68395A"/>
<path d="M126.607 269.433C122.704 268.071 116.243 268.51 103.095 269.463C103.057 268.964 103.012 268.449 102.974 267.927C102.513 261.52 102.429 255.392 101.688 249.839C101.628 249.385 105.319 249.227 105.652 248.939C106.764 247.994 107.105 246.087 106.84 244.06C106.537 241.715 104.926 240.572 104.268 240.224C101.643 238.832 95.5982 240.95 95.0006 242.524C93.4044 246.723 94.0625 253.887 95.2654 269.1C95.2881 269.418 95.3108 269.728 95.341 270.03C82.9873 271.006 75.4525 271.937 73.1906 272.58C69.1887 273.715 69.6653 281.431 70.2932 282.392C70.6185 282.883 71.2993 283.912 74.802 283.844C77.7674 283.791 78.3046 283.095 79.341 282.157C79.7268 281.809 80.7254 278.027 81.2549 278.004C85.4308 277.838 90.4011 277.467 95.8706 277.074C96.2261 281.93 96.4758 285.478 96.7103 288.058C96.9448 290.607 96.6952 291.84 96.7179 293.588C96.7784 297.771 99.5926 298.309 101.665 298.135C103.504 297.976 105.546 297.113 105.471 293.588C105.38 289.215 104.835 288.436 104.707 285.554C104.57 282.445 104.215 279.706 103.837 276.552C109.306 276.249 114.534 276.113 119.33 275.53C119.776 275.477 119.943 278.836 120.222 279.146C121.168 280.16 123.059 280.47 125.079 280.228C127.409 279.948 128.544 278.481 128.892 277.883C130.276 275.492 128.166 269.978 126.6 269.433H126.607Z" fill="#9CABD0"/>
<mask id="mask0_54_62299" style="mask-type:luminance" maskUnits="userSpaceOnUse" x="69" y="239" width="61" height="60">
<path d="M126.611 269.434C122.708 268.072 116.247 268.511 103.099 269.464C103.061 268.965 103.016 268.45 102.978 267.928C102.517 261.521 102.433 255.393 101.692 249.84C101.631 249.386 105.323 249.228 105.656 248.94C106.768 247.994 107.109 246.088 106.844 244.061C106.541 241.716 104.93 240.573 104.272 240.225C101.647 238.833 95.6021 240.951 95.0045 242.525C93.4083 246.724 94.0664 253.888 95.2693 269.101C95.292 269.419 95.3147 269.729 95.3449 270.031C82.9912 271.007 75.4565 271.938 73.1945 272.581C69.1926 273.716 69.6692 281.432 70.2971 282.393C70.6224 282.884 71.3032 283.913 74.8059 283.845C77.7714 283.792 78.3085 283.096 79.3449 282.158C79.7307 281.81 80.7293 278.028 81.2588 278.005C85.4347 277.839 90.405 277.468 95.8745 277.075C96.2301 281.931 96.4797 285.479 96.7142 288.059C96.9487 290.608 96.6991 291.841 96.7218 293.589C96.7823 297.772 99.5965 298.31 101.669 298.136C103.508 297.977 105.55 297.114 105.475 293.589C105.384 289.216 104.839 288.437 104.71 285.555C104.574 282.446 104.219 279.707 103.84 276.553C109.31 276.25 114.537 276.114 119.334 275.531C119.78 275.478 119.946 278.837 120.226 279.147C121.172 280.161 123.063 280.471 125.083 280.229C127.413 279.949 128.548 278.482 128.896 277.884C130.28 275.493 128.17 269.978 126.604 269.434H126.611Z" fill="white"/>
</mask>
<g mask="url(#mask0_54_62299)">
<path fill-rule="evenodd" clip-rule="evenodd" d="M124.03 281.832C124.03 281.832 122.32 280.1 121.942 278.337C121.571 276.575 121.942 274.494 121.942 274.494C121.942 274.494 119.385 275.031 114.99 274.842C110.587 274.653 103.839 275.251 103.839 275.251L104.005 277.316L105.602 291.962C105.602 291.962 103.778 295.328 101.078 294.753C98.3771 294.178 96.2135 291.606 96.2135 291.606L95.8655 275.19C95.8655 275.19 85.8796 275.78 84.0413 275.886C82.203 276 78.708 276.31 78.4734 277.634C78.2389 278.95 78.5415 281.779 77.4295 282.521C76.3174 283.27 73.6016 284.964 73.6016 284.964L79.5174 289.503L91.3416 302.076L117.774 298.581L123.682 289.148L124.03 281.81V281.832Z" fill="#58729E"/>
</g>
<path fill-rule="evenodd" clip-rule="evenodd" d="M104.636 251.399L103.781 265.613C103.781 265.613 101.859 268.057 98.9468 268.17C96.0343 268.284 93.9085 266.052 93.8253 265.326C93.7421 264.607 93.1369 248.721 93.8253 248.274C94.5137 247.82 104.636 251.399 104.636 251.399Z" fill="#3D4183"/>
<path fill-rule="evenodd" clip-rule="evenodd" d="M106.318 241.972L105.274 259.425C105.274 259.425 102.929 262.428 99.3812 262.564C95.8332 262.7 93.2384 259.962 93.1401 259.069C93.0342 258.184 92.3003 238.681 93.1401 238.129C93.9798 237.577 106.318 241.972 106.318 241.972Z" fill="#9CABD0"/>
<path fill-rule="evenodd" clip-rule="evenodd" d="M105.164 263.585C104.71 262.798 103.795 263.237 103.795 263.237V264.985C103.795 264.985 101.949 268.238 98.9987 268.132C95.1784 267.996 93.8621 264.985 93.8621 264.985V263.237C93.8621 263.237 92.7122 263.109 92.4928 264.637C92.2734 266.165 91.3429 269.758 91.4639 270.931C91.706 273.321 96.4342 277.104 102.078 274.774C108.372 272.179 106.45 268.684 106.186 267.428C105.89 265.998 105.535 264.243 105.157 263.585H105.164Z" fill="#31034A"/>
<path fill-rule="evenodd" clip-rule="evenodd" d="M86.7155 209.896C86.7155 209.896 88.584 206.219 86.3675 205.697C84.1509 205.183 75.9958 203.693 75.9353 199.751C75.8748 195.81 77.1079 183.32 74.8913 182.964C72.6747 182.616 71.4265 181.232 70.0194 181.565C68.6123 181.898 63.4454 184.78 63.0596 186.459C62.6738 188.139 59.5494 207.755 64.1036 210.236C71.0104 214.011 74.2558 217.317 77.6677 215.835C81.0795 214.352 86.7155 209.888 86.7155 209.888V209.896Z" fill="#7061A5"/>
<mask id="mask1_54_62299" style="mask-type:luminance" maskUnits="userSpaceOnUse" x="61" y="181" width="27" height="36">
<path d="M86.7076 209.896C86.7076 209.896 88.5762 206.219 86.3597 205.697C84.1431 205.183 75.988 203.693 75.9275 199.751C75.8669 195.81 77.1 183.32 74.8835 182.964C72.6669 182.616 71.4187 181.232 70.0116 181.565C68.6045 181.898 63.4376 184.78 63.0518 186.459C62.666 188.139 59.5416 207.755 64.0957 210.236C71.0026 214.011 74.248 217.317 77.6599 215.835C81.0717 214.352 86.7076 209.888 86.7076 209.888V209.896Z" fill="white"/>
</mask>
<g mask="url(#mask1_54_62299)">
<path d="M76.7487 198.617L77.0967 197.565L66.6645 201.764L65.9685 203.163L68.117 202.256L67.7085 202.46C67.7085 202.46 67.6706 203.443 67.7085 204.207C67.7463 204.971 69.1004 206.303 69.1004 206.303L69.7964 205.955C69.7964 205.955 69.2669 205.221 68.7524 204.555C68.2607 203.912 68.3893 202.263 68.4044 202.127L75.6669 199.063C75.5231 199.441 75.0844 200.765 75.7123 201.401C76.4385 202.142 76.7562 202.097 76.7562 202.097L77.1042 201.749C77.1042 201.749 76.5217 201.318 76.4083 200.349C76.325 199.638 76.3629 199.025 76.3931 198.753L76.7562 198.602L76.7487 198.617ZM65.9609 201.416L76.7487 196.869L77.0967 195.818L66.6645 200.016L65.9685 201.416H65.9609ZM77.0967 194.078L66.6645 198.276L65.9685 199.676L76.7562 195.129L77.1042 194.078H77.0967ZM68.0489 188.48C68.0943 190.447 68.0489 197.573 68.0489 197.573C68.0489 197.573 68.7751 196.945 68.7449 196.877C68.7146 196.809 69.3198 187.481 68.3969 187.088C67.769 186.823 66.8763 186.755 66.3619 186.74C66.9595 186.793 68.0111 187.08 68.0489 188.487V188.48ZM66.3619 186.732C66.1274 186.709 65.9609 186.732 65.9609 186.732C65.9609 186.732 66.1274 186.732 66.3619 186.732ZM75.3491 184.281C75.2811 185.529 75.3491 194.426 75.3491 194.426L76.3931 194.078C76.3931 194.078 76.4536 184.621 75.6971 183.585C74.9406 182.549 72.9132 182.186 72.9132 182.186C72.9132 182.186 75.4172 183.033 75.3491 184.281Z" fill="#878ACA"/>
</g>
<mask id="mask2_54_62299" style="mask-type:luminance" maskUnits="userSpaceOnUse" x="61" y="181" width="27" height="36">
<path d="M86.7076 209.896C86.7076 209.896 88.5762 206.219 86.3597 205.697C84.1431 205.183 75.988 203.693 75.9275 199.751C75.8669 195.81 77.1 183.32 74.8835 182.964C72.6669 182.616 71.4187 181.232 70.0116 181.565C68.6045 181.898 63.4376 184.78 63.0518 186.459C62.666 188.139 59.5416 207.755 64.0957 210.236C71.0026 214.011 74.248 217.317 77.6599 215.835C81.0717 214.352 86.7076 209.888 86.7076 209.888V209.896Z" fill="white"/>
</mask>
<g mask="url(#mask2_54_62299)">
<path fill-rule="evenodd" clip-rule="evenodd" d="M78.4689 212.096C76.9559 210.727 68.3166 207.602 67.893 203.82C67.4769 200.158 69.232 187.457 67.197 187.033C64.8594 186.549 59.5412 184.945 57.8012 184.938C57.8012 184.938 55.2669 203.495 55.0173 204.516C54.7676 205.537 59.5336 222.566 60.2372 222.702C60.9407 222.831 80.8292 229.987 81.1091 229.344C81.389 228.701 78.6731 212.209 78.6731 212.209L77.9772 213.261C77.9772 213.261 78.885 212.474 78.4613 212.096H78.4689Z" fill="#3D4183"/>
<path d="M79.7925 199.968C79.7925 199.968 68.7476 205.823 67.9608 206.262C67.1816 206.701 69.0048 207.314 69.0048 207.314C69.0048 207.314 77.9618 202.29 79.089 202.071C80.2238 201.852 79.785 199.976 79.785 199.976L79.7925 199.968ZM77.175 195.005L66.7429 199.204L66.0469 200.603L76.8271 196.057L77.175 195.005ZM77.175 193.258L66.7429 197.456L66.0469 198.856L76.8271 194.309L77.175 193.265V193.258ZM77.175 196.753L66.7429 200.951L66.0469 202.351L76.8271 197.804L77.175 196.753ZM81.4569 201.012C81.4569 201.012 70.3438 206.867 69.5571 207.306C68.7703 207.745 70.6086 208.358 70.6086 208.358C70.6086 208.358 79.6186 203.334 80.7609 203.115C81.8956 202.896 81.4644 201.02 81.4644 201.02L81.4569 201.012Z" fill="#3D4183"/>
</g>
<path fill-rule="evenodd" clip-rule="evenodd" d="M145.124 213.761C143.104 210.674 127.99 203.609 120.772 200.121C113.555 196.641 107.05 192.662 102.684 193.479C98.3195 194.296 60.691 213.095 59.2007 215.508C57.7103 217.922 56.969 227.272 58.5047 229.148C60.0404 231.024 91.6017 253.787 99.9005 251.874C108.199 249.96 142.605 230.101 144.08 226.349C145.556 222.597 147.144 216.847 145.124 213.761Z" fill="#D3DCFD"/>
<mask id="mask3_54_62299" style="mask-type:luminance" maskUnits="userSpaceOnUse" x="57" y="193" width="90" height="59">
<path d="M145.124 213.761C143.104 210.674 127.99 203.609 120.772 200.121C113.555 196.641 107.05 192.662 102.684 193.479C98.3195 194.296 60.691 213.095 59.2007 215.508C57.7103 217.922 56.969 227.272 58.5047 229.148C60.0404 231.024 91.6017 253.787 99.9005 251.874C108.199 249.96 142.605 230.101 144.08 226.349C145.556 222.597 147.144 216.847 145.124 213.761Z" fill="white"/>
</mask>
<g mask="url(#mask3_54_62299)">
<path fill-rule="evenodd" clip-rule="evenodd" d="M148.403 212.316C148.403 212.316 136.382 225.071 115.358 234.346C103.043 239.778 101.446 241.2 92.0506 238.196C82.6548 235.193 57.1304 220.782 57.2665 213.368C57.4027 205.954 50.6547 212.316 50.6547 212.316C50.6547 212.316 47.8783 227.235 48.5667 228.052C49.2552 228.869 64.2188 253.576 64.2188 253.576C64.2188 253.576 129.694 269.992 131.011 269.659C132.319 269.327 176.643 221.901 174.146 220.01C171.642 218.111 148.403 212.316 148.403 212.316Z" fill="#A8B3F5"/>
</g>
<path fill-rule="evenodd" clip-rule="evenodd" d="M84.6412 172.192C85.1632 171.042 85.9045 168.931 86.1542 166.003C87.7428 154.399 90.3906 133.784 83.7409 124.07C82.1901 121.604 76.9021 118.661 74.9277 117.829C68.626 115.151 61.9234 115.983 56.643 118.298C51.355 120.598 47.6027 124.343 46.415 126.975C42.7763 135.017 40.5219 150.631 40.3781 164.664C40.2798 171.67 40.6807 178.259 41.2557 183.29C41.3238 183.917 41.3994 184.523 41.4751 185.105C41.5507 185.688 41.6264 186.24 41.702 186.762C41.8533 187.813 42.0122 188.744 42.1711 189.546C42.4812 191.157 42.7838 192.239 43.041 192.647C43.3361 193.101 44.6599 194.811 46.5209 196.241C47.4439 196.96 48.503 197.603 49.547 197.988C50.5909 198.374 51.6198 198.503 52.4217 198.185C57.5356 196.256 64.4501 189.735 71.0771 184.243C77.583 178.592 83.8015 173.969 84.6336 172.192H84.6412Z" fill="#A8B3F5"/>
<mask id="mask4_54_62299" style="mask-type:luminance" maskUnits="userSpaceOnUse" x="40" y="116" width="49" height="83">
<path d="M84.6373 172.192C85.1593 171.042 85.9006 168.931 86.1503 166.003C87.7389 154.399 90.3867 133.784 83.737 124.07C82.1862 121.604 76.8982 118.661 74.9238 117.829C68.6221 115.151 61.9195 115.983 56.6391 118.298C51.3511 120.598 47.5988 124.343 46.4111 126.975C42.7723 135.017 40.518 150.631 40.3742 164.664C40.2759 171.67 40.6768 178.259 41.2518 183.29C41.3199 183.917 41.3955 184.523 41.4712 185.105C41.5468 185.688 41.6225 186.24 41.6981 186.762C41.8494 187.813 42.0083 188.744 42.1671 189.546C42.4773 191.157 42.7799 192.239 43.0371 192.647C43.3322 193.101 44.656 194.811 46.517 196.241C47.44 196.96 48.4991 197.603 49.5431 197.988C50.587 198.374 51.6159 198.503 52.4178 198.185C57.5317 196.256 64.4462 189.735 71.0732 184.243C77.5791 178.592 83.7976 173.969 84.6297 172.192H84.6373Z" fill="white"/>
</mask>
<g mask="url(#mask4_54_62299)">
<path fill-rule="evenodd" clip-rule="evenodd" d="M53.7365 142.688C53.7365 142.688 51.535 144.973 51.8074 137.242C51.588 136.296 42.0334 132.052 41.761 132.831C40.6187 134.389 45.5662 122.119 45.6116 122.18C45.0972 122.013 62.5951 112.511 63.5861 112.708C63.6088 112.708 63.6542 112.708 63.7148 112.723C63.7828 112.731 63.8661 112.746 63.972 112.769C64.1838 112.814 64.4637 112.882 64.8193 112.965C65.5228 113.139 66.4911 113.397 67.641 113.714C69.9408 114.35 72.9895 115.227 76.0836 116.188C82.2415 118.072 88.6491 120.568 89.0803 121.136C89.1862 121.272 89.3073 121.567 89.451 121.983C89.5947 122.399 89.746 122.936 89.9049 123.564C90.2226 124.812 90.5631 126.401 90.8581 127.997C91.4557 131.182 91.8491 134.374 91.8416 134.374C78.3531 135.638 64.4486 138.732 53.7365 142.696V142.688Z" fill="#D3DCFD"/>
<path fill-rule="evenodd" clip-rule="evenodd" d="M84.6391 120.121C85.3729 121.097 85.6603 123.163 84.2608 122.648C82.8083 121.687 57.9647 123.896 57.2158 126.385C56.013 128.526 53.925 130.992 52.7297 130.19C51.3378 129.404 43.6063 124.857 44.0072 124.381C44.2191 123.896 48.6749 116.278 52.6843 114.606C56.2399 112.723 78.3071 115.136 80.501 116.362C82.6268 117.33 83.9052 119.138 84.6391 120.121Z" fill="#E6F6FE"/>
</g>
<path fill-rule="evenodd" clip-rule="evenodd" d="M96.2816 178.888C96.7355 177.768 97.3256 175.703 97.2575 172.677C97.3256 165.346 95.6462 152.826 92.4916 142.386C89.3596 131.81 84.7525 123.315 79.6385 121.045C66.6948 114.978 51.8673 124.465 49.8777 129.995C46.5339 138.218 44.968 154.256 45.4597 168.856C45.8228 183.427 48.2436 196.56 49.855 198.247C50.0819 198.489 50.3997 198.64 50.8082 198.701C51.0124 198.738 51.2394 198.746 51.489 198.738C51.7387 198.731 52.011 198.701 52.3061 198.648C53.4786 198.451 55.0144 197.929 56.8678 197.142C60.5595 195.584 65.5298 192.891 70.9236 190.182C81.4012 184.395 95.1696 180.96 96.2816 178.88V178.888Z" fill="#D3DCFD"/>
<path fill-rule="evenodd" clip-rule="evenodd" d="M108.375 158.091C107.104 151.169 101.363 146.456 95.4316 146.244C91.6339 146.108 93.5857 152.871 93.911 156.563C94.2287 160.255 101.491 180.446 105.327 185.605C106.31 186.929 113.436 185.991 113.323 183.313C113.172 179.788 111.144 174.817 110.274 169.938C109.525 165.724 108.807 160.466 108.375 158.091Z" fill="#FED8B7"/>
<path fill-rule="evenodd" clip-rule="evenodd" d="M110.888 185.68C110.888 185.68 109.572 178.652 108.982 174.983C108.399 171.314 108.656 163.068 105.933 157.402C103.142 151.577 99.828 147.953 96.4162 145.941C93.0044 143.921 93.7533 145.563 93.7533 145.563L99.4649 151.297C99.4649 151.297 104.745 163.492 104.791 166.964C104.836 170.437 106.311 183.017 106.311 183.017C106.311 183.017 107.945 188.903 108.21 189.13C108.475 189.357 110.495 189.13 110.495 189.13L110.873 185.688L110.888 185.68Z" fill="#FCB396"/>
<path fill-rule="evenodd" clip-rule="evenodd" d="M107.68 173.001C107.294 170.951 106.87 160.526 104.639 156.184C102.399 151.842 97.7696 145.895 93.6012 145.487C89.4329 145.071 75.2409 149.731 71.9047 154.277C68.5761 158.824 69.8394 172.956 70.7624 179.113C71.6853 185.279 64.1354 212.437 77.6163 221.152C91.0896 229.86 98.231 237.667 104.26 237.205C110.29 236.744 141.775 220.524 142.32 213.898C142.865 207.263 137.441 201.967 127.856 197.845C118.278 193.722 109.889 194.107 109.208 187.148C108.527 180.18 108.255 176.027 107.687 173.008L107.68 173.001Z" fill="#FC97A1"/>
<path fill-rule="evenodd" clip-rule="evenodd" d="M104.368 221.108C104.368 221.108 98.8224 226.305 99.4201 230.277C100.018 234.249 101.795 236.238 104.368 236.39C107.9 236.601 115.783 232.569 115.783 232.569C115.783 232.569 133.221 221.343 137.48 218.044C139.59 216.41 143.237 212.151 140.528 208.876C138.047 205.872 134.431 202.597 126.064 206.198C117.697 209.806 104.368 221.101 104.368 221.101V221.108Z" fill="#FB7077"/>
<g style="mix-blend-mode:soft-light">
<path fill-rule="evenodd" clip-rule="evenodd" d="M104.368 221.108C104.368 221.108 98.8224 226.305 99.4201 230.277C100.018 234.249 101.795 236.238 104.368 236.39C107.9 236.601 115.783 232.569 115.783 232.569C115.783 232.569 133.221 221.343 137.48 218.044C139.59 216.41 143.237 212.151 140.528 208.876C138.047 205.872 134.431 202.597 126.064 206.198C117.697 209.806 104.368 221.101 104.368 221.101V221.108Z" fill="#283E75"/>
</g>
<mask id="mask5_54_62299" style="mask-type:luminance" maskUnits="userSpaceOnUse" x="69" y="145" width="74" height="93">
<path d="M107.68 173.001C107.294 170.951 106.87 160.526 104.639 156.184C102.399 151.842 97.7696 145.895 93.6012 145.487C89.4329 145.071 75.2409 149.731 71.9047 154.277C68.5761 158.824 69.8394 172.956 70.7624 179.113C71.6853 185.279 64.1354 212.437 77.6163 221.152C91.0896 229.86 98.231 237.667 104.26 237.205C110.29 236.744 141.775 220.524 142.32 213.898C142.865 207.263 137.441 201.967 127.856 197.845C118.278 193.722 109.889 194.107 109.208 187.148C108.527 180.18 108.255 176.027 107.687 173.008L107.68 173.001Z" fill="white"/>
</mask>
<g mask="url(#mask5_54_62299)">
<g style="mix-blend-mode:soft-light">
<path fill-rule="evenodd" clip-rule="evenodd" d="M67.207 185.423L67.5853 207.203L71.3905 216.372L99.5551 240.83L104.503 240.444C104.503 240.444 100.024 235.701 96.514 231.653C92.9962 227.606 78.7437 211.977 77.8662 210.638C76.9886 209.299 76.7239 208.724 76.7239 208.724C76.7239 208.724 83.6837 210.872 86.6189 210.252C89.5542 209.631 91.1882 209.102 91.1882 209.102C91.1882 209.102 94.8194 212.067 96.1357 213.308C97.4521 214.541 98.4204 214.072 98.4204 214.072L95.7575 209.866C95.7575 209.866 98.8592 213.187 100.327 213.308C101.794 213.429 104.51 211.78 104.51 211.78L100.705 206.046C100.705 206.046 106.553 210.343 107.173 209.488C107.793 208.625 101.083 202.989 101.083 202.989C101.083 202.989 104.798 203.307 104.124 202.225C103.451 201.143 99.941 200.311 99.941 200.311C99.941 200.311 79.1447 202.573 76.3456 196.105C73.539 189.637 67.2146 185.408 67.2146 185.408L67.207 185.423Z" fill="#1F1A33"/>
</g>
<g style="mix-blend-mode:soft-light">
<path fill-rule="evenodd" clip-rule="evenodd" d="M110.556 186.808C110.556 186.808 109.655 190.061 111.32 193.307C112.976 196.552 114.361 199.419 114.361 199.419C114.361 199.419 115.269 197.498 115.125 196.741C114.981 195.985 115.965 197.074 117.024 198.655C118.09 200.229 120.897 203.92 120.829 202.861C120.761 201.795 119.687 196.749 119.687 196.749C119.687 196.749 121.669 202.589 123.492 202.861C125.315 203.141 128.969 203.815 129.203 202.861C129.43 201.908 128.825 200.183 128.825 200.183C128.825 200.183 130.611 201.265 129.967 199.805C129.324 198.337 123.499 192.543 123.499 192.543L112.84 185.666L110.556 186.808Z" fill="#1F1A33"/>
</g>
</g>
<path fill-rule="evenodd" clip-rule="evenodd" d="M92.6977 140.731L91.1771 145.701C91.1771 145.701 94.71 144.914 97.6452 151.049C100.58 157.184 99.8013 162.261 92.3195 160.218C87.614 158.94 86.1086 156.012 83.1809 153.341C79.8523 150.3 76.8565 150.512 77.091 150.285C78.5738 148.863 78.8083 149.196 80.1397 148.371C81.0551 147.804 82.4244 146.843 82.4244 146.843C82.4244 146.843 83.3473 139.414 84.3308 138.817C85.3142 138.219 92.7053 140.731 92.7053 140.731H92.6977Z" fill="#FED8B7"/>
<mask id="mask6_54_62299" style="mask-type:luminance" maskUnits="userSpaceOnUse" x="77" y="138" width="23" height="23">
<path d="M92.6938 140.732L91.1732 145.703C91.1732 145.703 94.7061 144.916 97.6413 151.051C100.577 157.186 99.7974 162.263 92.3155 160.22C87.6101 158.942 86.1047 156.014 83.177 153.343C79.8484 150.302 76.8526 150.514 77.0871 150.287C78.5699 148.865 78.8044 149.198 80.1358 148.373C81.0512 147.806 82.4205 146.845 82.4205 146.845C82.4205 146.845 83.3434 139.416 84.3269 138.819C85.3103 138.221 92.7014 140.732 92.7014 140.732H92.6938Z" fill="white"/>
</mask>
<g mask="url(#mask6_54_62299)">
<g style="mix-blend-mode:soft-light">
<path fill-rule="evenodd" clip-rule="evenodd" d="M75.7966 148.722C75.7966 148.722 78.8529 148.079 81.5082 150.25C84.1484 152.414 87.9007 157.119 90.7981 157.928C93.7031 158.738 95.9953 158.435 97.4932 156.748C98.991 155.061 98.6355 153.306 98.6355 153.306C98.6355 153.306 100.035 156.552 100.156 156.748C100.285 156.945 99.0137 160.954 99.0137 160.954L84.9276 163.632C84.9276 163.632 77.5063 154.675 75.0326 150.643C74.3139 149.471 75.7966 148.729 75.7966 148.729V148.722Z" fill="#07041A"/>
</g>
<g style="mix-blend-mode:soft-light">
<path fill-rule="evenodd" clip-rule="evenodd" d="M80.8711 141.445C80.8711 141.445 86.1893 149.804 89.2456 150.999C91.9614 152.066 93.535 151.869 93.8149 150.614C94.231 148.722 91.5302 146.029 91.5302 146.029L93.0508 143.737L90.0097 139.153L83.5416 136.475L80.8787 141.445H80.8711Z" fill="#07041A"/>
</g>
<g style="mix-blend-mode:soft-light">
<path d="M75.7966 148.722C75.7966 148.722 78.8529 148.079 81.5082 150.25C84.1484 152.414 87.9007 157.119 90.7981 157.928C93.7031 158.738 95.9953 158.435 97.4932 156.748C98.991 155.061 98.6355 153.306 98.6355 153.306C98.6355 153.306 100.035 156.552 100.156 156.748C100.285 156.945 99.0137 160.954 99.0137 160.954L84.9276 163.632C84.9276 163.632 77.5063 154.675 75.0326 150.643C74.3139 149.471 75.7966 148.729 75.7966 148.729V148.722Z" fill="url(#paint0_linear_54_62299)"/>
<path d="M75.7966 148.722C75.7966 148.722 78.8529 148.079 81.5082 150.25C84.1484 152.414 87.9007 157.119 90.7981 157.928C93.7031 158.738 95.9953 158.435 97.4932 156.748C98.991 155.061 98.6355 153.306 98.6355 153.306C98.6355 153.306 100.035 156.552 100.156 156.748C100.285 156.945 99.0137 160.954 99.0137 160.954L84.9276 163.632C84.9276 163.632 77.5063 154.675 75.0326 150.643C74.3139 149.471 75.7966 148.729 75.7966 148.729V148.722Z" fill="url(#paint1_linear_54_62299)"/>
<path d="M80.8711 141.445C80.8711 141.445 86.1893 149.804 89.2456 150.999C91.9614 152.066 93.535 151.869 93.8149 150.614C94.231 148.722 91.5302 146.029 91.5302 146.029L93.0508 143.737L90.0097 139.153L83.5416 136.475L80.8787 141.445H80.8711Z" fill="url(#paint2_linear_54_62299)"/>
<path d="M80.8711 141.445C80.8711 141.445 86.1893 149.804 89.2456 150.999C91.9614 152.066 93.535 151.869 93.8149 150.614C94.231 148.722 91.5302 146.029 91.5302 146.029L93.0508 143.737L90.0097 139.153L83.5416 136.475L80.8787 141.445H80.8711Z" fill="url(#paint3_linear_54_62299)"/>
</g>
</g>
<path fill-rule="evenodd" clip-rule="evenodd" d="M101.478 135.427C101.478 135.427 105.178 127.325 100.949 119.343C97.1815 112.232 91.5834 107.451 80.9167 109.872C71.5285 112.005 66.6641 114.366 65.31 122.483C64.6594 126.402 69.8642 136.826 69.8642 136.826C69.8642 136.826 58.1762 147.274 63.0329 154.203C67.6476 160.785 70.3937 158.069 72.3682 153.469C75.5833 145.98 72.3758 138.869 72.3758 138.869C72.3758 138.869 73.7375 140.072 79.3658 141.759C82.5129 142.704 87.2259 139.625 85.8718 138.15C80.7881 132.628 101.486 135.427 101.486 135.427H101.478Z" fill="#A35F64"/>
<mask id="mask7_54_62299" style="mask-type:luminance" maskUnits="userSpaceOnUse" x="61" y="109" width="42" height="50">
<path d="M101.475 135.429C101.475 135.429 105.174 127.326 100.945 119.345C97.1776 112.234 91.5795 107.453 80.9128 109.874C71.5246 112.007 66.6602 114.368 65.3061 122.485C64.6555 126.404 69.8603 136.828 69.8603 136.828C69.8603 136.828 58.1723 147.275 63.029 154.205C67.6437 160.787 70.3898 158.071 72.3643 153.471C75.5794 145.982 72.3718 138.871 72.3718 138.871C72.3718 138.871 73.7336 140.074 79.3619 141.761C82.509 142.706 87.222 139.627 85.8679 138.152C80.7842 132.63 101.482 135.429 101.482 135.429H101.475Z" fill="white"/>
</mask>
<g mask="url(#mask7_54_62299)">
<path fill-rule="evenodd" clip-rule="evenodd" d="M80.33 135.89C80.33 135.89 80.7839 137.335 77.8865 138.152C74.9891 138.969 72.3413 138.182 72.3413 138.182H71.5772L70.8132 135.89C70.8132 135.89 70.3668 137.766 70.8132 141.238C71.252 144.635 72.8406 154.265 67.3862 155.763C64.0954 156.663 59.0117 148.122 59.0117 148.122C59.0117 148.122 62.537 162.594 71.5697 158.441C72.1219 158.184 75.3749 147.744 75.3749 147.744L82.9853 143.924L102.775 136.661C102.775 136.661 103.154 128.552 101.633 123.665C100.113 118.778 98.418 113.278 95.6492 114.549C95.4147 115.268 95.687 117.333 95.687 117.333C95.687 117.333 95.8156 113.913 94.8927 115.525C93.5007 117.961 91.0118 124.429 86.7905 127.485C84.3319 129.263 78.4312 131.396 78.4312 131.396L80.3224 135.897L80.33 135.89Z" fill="#72373B"/>
</g>
<path fill-rule="evenodd" clip-rule="evenodd" d="M71.2783 135.721C69.7805 135.721 68.5625 136.908 68.5625 138.368C68.5625 139.829 69.7805 141.016 71.2783 141.016C72.7762 141.016 73.9942 139.829 73.9942 138.368C73.9942 136.908 72.7762 135.721 71.2783 135.721Z" fill="#E9205E"/>
<path fill-rule="evenodd" clip-rule="evenodd" d="M114.61 183.728C116.516 185.824 123.196 190.983 124.505 192.133C125.814 193.291 131.026 199.305 130.595 200.16C130.164 201.015 126.411 196.339 126.411 196.339C126.411 196.339 130.111 203.057 129.074 203.216C128.038 203.382 126.048 203.935 124.891 203.594C123.733 203.261 120.321 197.096 120.321 197.096C120.321 197.096 122.077 202.883 121.085 203.208C120.094 203.534 118.657 200.629 118.037 198.624C117.689 197.489 115.752 195.182 115.752 195.182C115.752 195.182 116.592 200.455 114.988 200.152C113.384 199.842 112.855 196.536 112.703 195.568C112.552 194.592 112.65 192.398 111.939 191.362C111.236 190.325 109.398 189.478 109.276 187.155C109.155 184.833 112.703 179.129 112.703 179.129C112.703 179.129 112.703 181.618 114.61 183.713V183.728Z" fill="#FED8B7"/>
<path fill-rule="evenodd" clip-rule="evenodd" d="M68.5575 159.649C70.8951 152.893 71.871 153.665 75.4114 154.3C78.9519 154.936 80.5254 162.062 80.7372 163.469C80.9491 164.876 77.7264 184.046 77.6961 192.511C77.6885 194.546 78.9897 195.727 81.5013 196.332C83.6422 196.846 90.5567 198.435 91.7746 198.624C92.9926 198.813 97.9023 198.73 100.149 199.002C102.396 199.282 105.127 201.143 104.718 202.444C104.544 202.989 103.553 202.119 102.056 201.68C101.057 201.393 100.149 201.302 100.149 201.302C100.149 201.302 101.806 201.869 103.19 202.83C104.529 203.753 107.374 207.513 107.76 208.179C108.145 208.844 107.623 209.73 106.995 209.707C106.307 209.684 105.089 208.277 103.569 206.651C102.23 205.221 100.527 203.973 100.527 203.973C100.527 203.973 101.541 205.168 102.434 206.265C103.213 207.225 105.914 211.56 105.097 211.999C104.28 212.438 102.313 213.694 101.291 213.527C100.263 213.361 95.5798 208.179 95.5798 208.179C95.5798 208.179 99.7482 213.845 98.6286 214.291C97.5089 214.738 92.8564 209.056 91.7746 208.179C90.7004 207.301 88.3023 208.095 83.4001 207.793C78.498 207.49 72.8166 204.631 68.1717 199.766C63.5268 194.902 66.2124 166.397 68.55 159.641L68.5575 159.649Z" fill="#FED8B7"/>
<mask id="mask8_54_62299" style="mask-type:luminance" maskUnits="userSpaceOnUse" x="65" y="153" width="43" height="62">
<path d="M68.5536 159.647C70.8912 152.891 71.8671 153.663 75.4075 154.299C78.948 154.934 80.5215 162.06 80.7333 163.467C80.9452 164.874 77.7224 184.044 77.6922 192.51C77.6846 194.545 78.9858 195.725 81.4974 196.33C83.6383 196.844 90.5527 198.433 91.7707 198.622C92.9887 198.811 97.8984 198.728 100.145 199C102.392 199.28 105.123 201.141 104.715 202.442C104.541 202.987 103.549 202.117 102.052 201.678C101.053 201.391 100.145 201.3 100.145 201.3C100.145 201.3 101.802 201.867 103.186 202.828C104.525 203.751 107.37 207.511 107.756 208.177C108.141 208.842 107.619 209.728 106.992 209.705C106.303 209.682 105.085 208.275 103.565 206.649C102.226 205.219 100.523 203.971 100.523 203.971C100.523 203.971 101.537 205.166 102.43 206.263C103.209 207.224 105.91 211.558 105.093 211.997C104.276 212.436 102.309 213.692 101.288 213.525C100.259 213.359 95.5759 208.177 95.5759 208.177C95.5759 208.177 99.7443 213.843 98.6246 214.289C97.505 214.736 92.8525 209.054 91.7707 208.177C90.6965 207.299 88.2984 208.094 83.3962 207.791C78.4941 207.488 72.8127 204.629 68.1678 199.764C63.5229 194.9 66.2085 166.395 68.5461 159.639L68.5536 159.647Z" fill="white"/>
</mask>
<g mask="url(#mask8_54_62299)">
<path fill-rule="evenodd" clip-rule="evenodd" d="M75.8387 153.051C75.8387 153.051 69.5446 150.419 68.6065 167.954C67.6685 185.49 65.3233 195.514 71.6552 199.289C77.9872 203.064 87.0047 205.417 89.1607 205.401C91.3168 205.386 91.4227 206.143 92.5877 206.93C93.7527 207.716 96.2492 212.467 97.9135 213.042C99.5778 213.617 99.8123 214.956 99.8123 214.956L97.1494 210.372L94.8648 207.315C94.8648 207.315 96.9603 207.762 98.7835 209.986C100.599 212.202 102.475 213.814 102.475 213.814L103.618 213.05L102.097 210.372C102.097 210.372 104.185 212.724 105.138 212.286C106.099 211.847 106.28 211.136 106.28 211.136L103.996 207.694L100.191 203.487C100.191 203.487 102.014 204.312 103.618 205.78C105.221 207.247 106.56 209.797 107.801 209.222C109.042 208.647 109.322 208.079 109.322 208.079L105.138 203.109L101.333 201.581L98.2917 200.817C98.2917 200.817 99.6307 199.932 104.382 201.581C105.426 201.944 107.044 200.817 107.044 200.817L111.614 206.551L112.378 210.372C112.378 210.372 101.03 221.757 100.576 221.833C100.122 221.916 83.4491 218.391 83.4491 218.391L60.9961 196.989V174.445L67.0859 151.516L75.8387 153.044V153.051Z" fill="#FCB396"/>
<g style="mix-blend-mode:soft-light">
<path d="M75.8387 153.051C75.8387 153.051 69.5446 150.419 68.6065 167.954C67.6685 185.49 65.3233 195.514 71.6552 199.289C77.9872 203.064 87.0047 205.417 89.1607 205.401C91.3168 205.386 91.4227 206.143 92.5877 206.93C93.7527 207.716 96.2492 212.467 97.9135 213.042C99.5778 213.617 99.8123 214.956 99.8123 214.956L97.1494 210.372L94.8648 207.315C94.8648 207.315 96.9603 207.762 98.7835 209.986C100.599 212.202 102.475 213.814 102.475 213.814L103.618 213.05L102.097 210.372C102.097 210.372 104.185 212.724 105.138 212.286C106.099 211.847 106.28 211.136 106.28 211.136L103.996 207.694L100.191 203.487C100.191 203.487 102.014 204.312 103.618 205.78C105.221 207.247 106.56 209.797 107.801 209.222C109.042 208.647 109.322 208.079 109.322 208.079L105.138 203.109L101.333 201.581L98.2917 200.817C98.2917 200.817 99.6307 199.932 104.382 201.581C105.426 201.944 107.044 200.817 107.044 200.817L111.614 206.551L112.378 210.372C112.378 210.372 101.03 221.757 100.576 221.833C100.122 221.916 83.4491 218.391 83.4491 218.391L60.9961 196.989V174.445L67.0859 151.516L75.8387 153.044V153.051Z" fill="url(#paint4_linear_54_62299)"/>
</g>
</g>
<mask id="mask9_54_62299" style="mask-type:luminance" maskUnits="userSpaceOnUse" x="109" y="179" width="22" height="25">
<path d="M114.61 183.726C116.516 185.822 123.196 190.981 124.505 192.131C125.814 193.289 131.026 199.303 130.595 200.158C130.164 201.013 126.411 196.337 126.411 196.337C126.411 196.337 130.111 203.055 129.074 203.214C128.038 203.38 126.048 203.933 124.891 203.592C123.733 203.259 120.321 197.094 120.321 197.094C120.321 197.094 122.077 202.881 121.085 203.206C120.094 203.532 118.657 200.627 118.037 198.622C117.689 197.487 115.752 195.18 115.752 195.18C115.752 195.18 116.592 200.453 114.988 200.15C113.384 199.84 112.855 196.534 112.703 195.566C112.552 194.59 112.65 192.396 111.939 191.36C111.236 190.323 109.398 189.476 109.276 187.153C109.155 184.831 112.703 179.127 112.703 179.127C112.703 179.127 112.703 181.616 114.61 183.711V183.726Z" fill="white"/>
</mask>
<g mask="url(#mask9_54_62299)">
<path fill-rule="evenodd" clip-rule="evenodd" d="M109.374 177.318C109.374 177.318 111.227 188.25 112.203 189.657C113.186 191.064 113.436 192.751 113.345 193.863C113.255 194.967 112.808 197.26 113.724 198.069C114.639 198.878 115.63 199.597 115.63 199.597L116.008 196.155L115.244 193.863C115.244 193.863 116.318 195.035 117.529 196.919C118.732 198.803 119.571 201.836 120.192 201.889C120.82 201.942 121.712 202.268 121.712 202.268L120.948 199.211L120.184 196.919C120.184 196.919 122.317 199.196 123.611 200.739C124.905 202.283 125.003 203.213 125.517 203.417C126.387 203.758 126.66 204.182 126.66 204.182H127.424L126.282 201.504C126.282 201.504 127.5 203.145 128.188 203.796C128.869 204.446 130.473 203.032 130.473 203.032L128.952 200.354L127.431 197.676L125.525 195.383C125.525 195.383 128.468 198.78 129.33 199.204C130.193 199.627 131.615 199.968 131.615 199.968L131.993 203.41L125.903 207.994L106.877 201.496L101.93 185.829L104.214 179.33L109.374 177.311V177.318Z" fill="#FCB396"/>
</g>
<path d="M112.237 214.073C112.358 214.012 112.51 213.982 112.669 213.959C116.92 210.041 127.768 205.955 129.41 205.441C131.77 204.7 141.007 209.473 146.114 219.58C151.659 230.542 143.072 258.933 143.072 258.933C143.072 258.933 146.22 265.175 148.33 267.202C150.274 269.063 151.719 272.346 150.993 273.315C150.274 274.283 140.674 271.378 139.661 269.63C137.414 265.772 134.335 265.386 133.208 263.518C132.595 262.497 133.124 260.545 133.586 256.255C134.131 251.209 132.073 239.62 131.309 232.947C131.082 230.981 130.03 229.142 128.585 227.501C128.706 227.728 128.843 227.947 128.964 228.182C134.516 239.128 125.923 267.474 125.923 267.474C125.923 267.474 129.66 276.076 131.241 278.534C132.837 281.016 132.693 282.279 131.975 283.24C131.248 284.208 123.524 279.896 122.503 278.149C120.256 274.298 117.17 273.905 116.043 272.044C115.43 271.03 115.959 269.078 116.421 264.796C116.966 259.758 114.908 248.191 114.144 241.526C113.372 234.861 100.913 232.252 99.7021 228.938C98.4917 225.617 110.013 215.139 112.237 214.058V214.073Z" fill="#FED8B7"/>
<mask id="mask10_54_62299" style="mask-type:luminance" maskUnits="userSpaceOnUse" x="99" y="205" width="53" height="79">
<path d="M112.237 214.074C112.358 214.013 112.51 213.983 112.669 213.96C116.92 210.042 127.768 205.956 129.41 205.442C131.77 204.701 141.007 209.474 146.114 219.581C151.659 230.543 143.072 258.934 143.072 258.934C143.072 258.934 146.22 265.176 148.33 267.203C150.274 269.064 151.719 272.347 150.993 273.316C150.274 274.284 140.674 271.379 139.661 269.631C137.414 265.773 134.335 265.387 133.208 263.519C132.595 262.497 133.124 260.546 133.586 256.256C134.131 251.21 132.073 239.621 131.309 232.948C131.082 230.982 130.03 229.143 128.585 227.502C128.706 227.729 128.843 227.948 128.964 228.182C134.516 239.129 125.923 267.475 125.923 267.475C125.923 267.475 129.66 276.077 131.241 278.535C132.837 281.017 132.693 282.28 131.975 283.241C131.248 284.209 123.524 279.897 122.503 278.15C120.256 274.299 117.17 273.906 116.043 272.045C115.43 271.031 115.959 269.079 116.421 264.797C116.966 259.759 114.908 248.192 114.144 241.527C113.372 234.862 100.913 232.252 99.7021 228.939C98.4917 225.618 110.013 215.14 112.237 214.059V214.074Z" fill="white"/>
</mask>
<g mask="url(#mask10_54_62299)">
<path fill-rule="evenodd" clip-rule="evenodd" d="M96.761 231.661L94.4688 230.708L94.8697 229.967L94.847 229.944L94.9151 229.876L101.315 218.097L115.401 204.722C115.401 204.722 137.688 203.89 138.24 203.958C138.792 204.026 142.045 213.513 142.045 213.513C142.045 213.513 137.31 205.335 129.101 207.778C126.945 208.421 125.349 209.624 124.207 210.827C126.938 214.118 131.046 219.746 133.285 226.124C136.848 236.268 136.462 240.21 135.57 250.581C134.715 260.446 135.002 265.174 135.191 265.87C135.38 266.566 139.375 274.275 139.375 274.275C139.375 274.275 138.853 284.473 138.611 284.972C138.369 285.479 123.768 291.47 123.768 291.47C123.768 291.47 108.676 278.534 108.547 278.095C108.411 277.657 111.588 255.552 111.588 255.552L102.072 236.442L96.7458 231.661H96.761ZM117.686 236.442C119.736 242.842 120.001 254.409 119.97 257.844C119.94 261.278 119.592 265.106 119.592 265.106C119.592 265.106 118.722 278.663 118.828 278.867C118.934 279.071 127.891 287.393 128.345 287.272C128.791 287.158 136.916 281.084 136.719 280.773C136.515 280.471 131.394 263.956 131.394 263.956L131.772 239.12C131.772 239.12 131.636 234.37 129.994 229.793C127.762 225.034 126.945 224.391 124.162 220.019C122.444 217.325 119.532 215.442 119.592 215.434C119.592 215.434 110.378 213.15 103.986 224.603C103.842 224.868 103.713 225.125 103.592 225.382C107.927 227.395 116.188 231.767 117.686 236.45V236.442Z" fill="url(#paint5_linear_54_62299)"/>
<g style="mix-blend-mode:soft-light">
<path d="M96.761 231.661L94.4688 230.708L94.8697 229.967L94.847 229.944L94.9151 229.876L101.315 218.097L115.401 204.722C115.401 204.722 137.688 203.89 138.24 203.958C138.792 204.026 142.045 213.513 142.045 213.513C142.045 213.513 137.31 205.335 129.101 207.778C126.945 208.421 125.349 209.624 124.207 210.827C126.938 214.118 131.046 219.746 133.285 226.124C136.848 236.268 136.462 240.21 135.57 250.581C134.715 260.446 135.002 265.174 135.191 265.87C135.38 266.566 139.375 274.275 139.375 274.275C139.375 274.275 138.853 284.473 138.611 284.972C138.369 285.479 123.768 291.47 123.768 291.47C123.768 291.47 108.676 278.534 108.547 278.095C108.411 277.657 111.588 255.552 111.588 255.552L102.072 236.442L96.7458 231.661H96.761ZM117.686 236.442C119.736 242.842 120.001 254.409 119.97 257.844C119.94 261.278 119.592 265.106 119.592 265.106C119.592 265.106 118.722 278.663 118.828 278.867C118.934 279.071 127.891 287.393 128.345 287.272C128.791 287.158 136.916 281.084 136.719 280.773C136.515 280.471 131.394 263.956 131.394 263.956L131.772 239.12C131.772 239.12 131.636 234.37 129.994 229.793C127.762 225.034 126.945 224.391 124.162 220.019C122.444 217.325 119.532 215.442 119.592 215.434C119.592 215.434 110.378 213.15 103.986 224.603C103.842 224.868 103.713 225.125 103.592 225.382C107.927 227.395 116.188 231.767 117.686 236.45V236.442Z" fill="url(#paint6_linear_54_62299)"/>
</g>
<path fill-rule="evenodd" clip-rule="evenodd" d="M116.105 258.987C116.105 258.987 120.182 263.542 124.479 262.429C128.776 261.317 129.805 258.987 129.805 258.987L133.232 252.111C133.232 252.111 138.089 257.089 142.749 255.167C147.401 253.246 146.554 251.347 146.554 251.347L153.408 260.137L157.591 273.898L148.46 283.453C148.46 283.453 120.031 289.081 119.532 289.187C119.032 289.293 109.637 272.37 109.637 272.37L116.105 258.995V258.987Z" fill="#E9F3FE"/>
<path fill-rule="evenodd" clip-rule="evenodd" d="M107.051 271.015C107.3 270.864 114.283 263.753 114.283 263.753C114.283 263.753 115.365 267.119 117.324 269.487C118.496 270.901 120.115 272.384 121.628 273.58C122.173 272.967 122.998 272.263 124.178 271.779C126.674 270.743 127.983 271.015 127.983 271.015L128.543 270.796C128.437 270.031 128.361 269.487 128.361 269.487L131.024 257.262C131.024 257.262 136.168 262.845 140.223 265.318C140.692 264.411 141.592 263.178 143.204 262.61C145.927 261.649 146.245 262.61 146.245 262.61L147.289 264.002C147.493 262.724 148.378 261.46 148.53 261.846C148.734 262.368 152.002 266.703 152.335 267.195C152.668 267.686 154.619 275.599 154.619 275.599L128.361 290.124L110.477 281.334C110.477 281.334 106.808 271.174 107.051 271.015ZM147.387 265.281C147.236 264.925 147.213 264.501 147.274 264.078C146.903 263.911 145.647 263.473 143.96 264.517C143.143 265.023 142.614 265.682 142.273 266.294C142.462 266.355 142.644 266.4 142.818 266.431C146.767 267.089 148 266.741 147.387 265.281ZM129.118 274.835C129.065 274.495 129.004 274.071 128.936 273.61C128.376 273.398 126.606 272.921 124.556 274.457C124.238 274.692 123.966 274.911 123.731 275.115C124.39 275.546 124.942 275.857 125.313 275.985C127.915 276.908 129.375 276.5 129.118 274.835Z" fill="#635C78"/>
</g>
<path fill-rule="evenodd" clip-rule="evenodd" d="M95.7589 114.463C95.7589 114.463 103.347 124.048 101.697 133.557C100.517 140.381 98.5806 140.872 98.0435 141.213C96.9239 141.932 93.7541 142.552 88.5267 140.449C84.086 138.656 82.8151 135.1 82.8151 135.1C82.8151 135.1 78.6543 134.102 78.2458 130.516C77.7087 125.826 84.3357 129.366 84.3357 129.366C84.3357 129.366 91.9007 127.127 93.4667 120.197C94.7149 114.697 95.7513 114.463 95.7513 114.463H95.7589Z" fill="#FED8B7"/>
<path fill-rule="evenodd" clip-rule="evenodd" d="M182.146 72.3036C180.05 71.8194 173.401 72.1825 174.536 65.0411C175.663 57.8997 183.977 49.5631 191.663 47.8458C199.349 46.1285 203.971 44.8122 206.884 47.8458C213.238 54.4652 211.907 64.8217 214.88 66.5693C222.672 71.1688 222.922 81.1849 219.449 85.2927C215.977 89.4081 189.711 91.0951 182.91 85.671C176.934 80.905 184.249 72.7802 182.146 72.296V72.3036Z" fill="#2F0246"/>
<mask id="mask11_54_62299" style="mask-type:luminance" maskUnits="userSpaceOnUse" x="174" y="46" width="48" height="44">
<path d="M182.146 72.3036C180.05 71.8194 173.401 72.1825 174.536 65.0411C175.663 57.8997 183.977 49.5631 191.663 47.8458C199.349 46.1285 203.971 44.8122 206.884 47.8458C213.238 54.4652 211.907 64.8217 214.88 66.5693C222.672 71.1688 222.922 81.1849 219.449 85.2927C215.977 89.4081 189.711 91.0951 182.91 85.671C176.934 80.905 184.249 72.7802 182.146 72.296V72.3036Z" fill="white"/>
</mask>
<g mask="url(#mask11_54_62299)">
<path fill-rule="evenodd" clip-rule="evenodd" d="M188.14 56.377C188.14 56.377 176.77 58.6767 177.481 65.5458C177.829 68.9047 181.286 71.2801 181.286 71.2801C181.286 71.2801 182.557 75.5089 182.051 80.0707C181.627 83.838 190.652 85.0787 187.936 86.8489L208.687 90.3894C208.687 90.3894 207.704 87.3331 206.781 83.891C205.865 80.4489 204.451 77.3926 205.26 75.4862C206.062 73.5798 206.781 70.1378 206.781 70.1378C206.781 70.1378 206.259 68.3902 206.402 67.0815C206.629 64.9557 203.618 57.5495 204.118 58.2909C204.942 59.5164 204.647 63.5713 204.496 64.4035C204.352 65.2356 203.732 65.9316 203.732 65.9316L188.125 56.377H188.14Z" fill="#18010C"/>
</g>
<path fill-rule="evenodd" clip-rule="evenodd" d="M192.317 82.7432C192.824 80.7838 197.923 75.0268 199.171 77.0089C200.412 78.9985 202.938 82.7356 204.497 84.2713C206.063 85.807 210.367 88.7422 212.493 89.6198C214.619 90.5049 215.67 91.3824 214.014 91.912C212.357 92.4416 206.834 97.4723 205.639 99.1744C204.444 100.877 199.073 106.558 192.317 104.523C185.561 102.495 182.626 100.181 182.8 96.8822C182.974 93.5839 188.126 89.2415 188.126 89.2415L196.501 88.4775L191.931 83.5072L192.31 82.7432H192.317Z" fill="#FED4B2"/>
<mask id="mask12_54_62299" style="mask-type:luminance" maskUnits="userSpaceOnUse" x="182" y="76" width="33" height="29">
<path d="M192.313 82.7432C192.82 80.7838 197.919 75.0268 199.167 77.0089C200.408 78.9985 202.934 82.7356 204.493 84.2713C206.059 85.807 210.363 88.7422 212.489 89.6198C214.615 90.5049 215.666 91.3824 214.01 91.912C212.353 92.4416 206.83 97.4723 205.635 99.1744C204.44 100.877 199.069 106.558 192.313 104.523C185.558 102.495 182.622 100.181 182.796 96.8822C182.97 93.5839 188.122 89.2415 188.122 89.2415L196.497 88.4775L191.927 83.5072L192.306 82.7432H192.313Z" fill="white"/>
</mask>
<g mask="url(#mask12_54_62299)">
<g opacity="0.8">
<path fill-rule="evenodd" clip-rule="evenodd" d="M179.375 70.9883C179.375 70.9883 181.909 85.1046 186.986 86.6555C191.169 87.934 191.343 88.3879 195.738 85.8914C199.846 83.5614 200.784 81.3524 202.206 79.0148C203.856 76.2989 204.869 74.4304 204.869 74.4304L206.776 79.4006C206.776 79.4006 207.721 80.8682 206.397 85.5132C205.074 90.1581 196.926 100.734 196.124 96.5959C195.322 92.4579 196.502 88.9552 196.502 88.9552L194.982 87.8129C194.982 87.8129 187.061 95.6125 183.18 87.8129C179.299 80.0134 179.375 70.9958 179.375 70.9958V70.9883Z" fill="#F48B76"/>
</g>
</g>
<path fill-rule="evenodd" clip-rule="evenodd" d="M205.591 64.5782C205.591 64.5782 199.395 54.9858 187.322 52.7314C180.445 51.4453 180.854 54.6453 180.854 54.6453C180.854 54.6453 179.219 53.6241 183.138 51.2033C187.057 48.79 188.804 46.8231 191.891 48.147C203.972 53.3139 205.591 64.5782 205.591 64.5782Z" fill="#FC97A1"/>
<path fill-rule="evenodd" clip-rule="evenodd" d="M177.097 128.096C177.097 128.096 176.378 181.974 177.097 190C177.815 198.027 179.185 207.347 180.524 208.346C181.863 209.337 192.575 201.847 199.936 199.941C207.289 198.034 225.816 194.207 225.816 194.207L205.647 132.302L177.104 128.096H177.097Z" fill="#BECCF8"/>
<path fill-rule="evenodd" clip-rule="evenodd" d="M182.034 91.9735C183.675 90.2487 186.24 87.7901 189.266 87.7674C192.292 87.7447 195.401 87.5783 194.592 88.5315C193.782 89.4846 188.812 97.148 191.165 100C193.192 102.451 199.335 101.263 202.202 100.378C205.069 99.4932 212.211 90.4454 213.618 90.8237C215.025 91.2095 230.601 105.954 231.123 122.158C231.653 138.362 233.037 151.238 232.266 153.878C231.486 156.511 221.198 163.433 207.762 157.578C195.356 152.176 189.712 150.867 188.751 148.356C187.836 145.95 186.406 130.631 182.026 121.772C176.314 110.22 180.384 93.6908 182.026 91.966L182.034 91.9735Z" fill="#79ABF4"/>
<path fill-rule="evenodd" clip-rule="evenodd" d="M261.923 195.507C263.557 193.495 266.72 190.31 267.068 190.144C269.708 188.88 272.446 189.425 273.778 191.619C275.117 193.813 275.677 197.035 275.192 201.022C275.094 201.854 277.205 211.984 274.353 215.04C270.933 218.709 264.14 219.579 262.68 217.279C261.84 215.956 262.476 214.39 264.2 212.309C266.054 210.07 267.053 207.816 266.984 207.157C266.886 206.212 264.904 208.996 263.164 207.891C261.424 206.787 257.475 202.164 258.315 200.508C259.155 198.851 260.289 197.504 261.923 195.492V195.507Z" fill="#635C78"/>
<path fill-rule="evenodd" clip-rule="evenodd" d="M154.92 254.233C157.871 251.934 164.074 246.517 164.694 245.707C165.489 244.671 161.434 231.213 161.29 229.08C161.154 226.946 171.564 227.105 173.19 227.377C174.824 227.642 176.799 247.311 177.018 249.543C177.199 251.389 176.261 252.962 174.468 254.233C172.184 255.852 168.364 257.047 163.416 260.626C158.468 264.204 149.973 264.091 148.959 262.328C148.354 261.269 151.645 256.775 154.913 254.226L154.92 254.233Z" fill="#635C78"/>
<mask id="mask13_54_62299" style="mask-type:luminance" maskUnits="userSpaceOnUse" x="148" y="227" width="30" height="37">
<path d="M154.92 254.233C157.871 251.934 164.074 246.517 164.694 245.707C165.489 244.671 161.434 231.213 161.29 229.08C161.154 226.946 171.564 227.105 173.19 227.377C174.824 227.642 176.799 247.311 177.018 249.543C177.199 251.389 176.261 252.962 174.468 254.233C172.184 255.852 168.364 257.047 163.416 260.626C158.468 264.204 149.973 264.091 148.959 262.328C148.354 261.269 151.645 256.775 154.913 254.226L154.92 254.233Z" fill="white"/>
</mask>
<g mask="url(#mask13_54_62299)">
<path fill-rule="evenodd" clip-rule="evenodd" d="M162.122 251.502C164.603 251.978 164.686 254.603 165.617 254.218C167.115 253.59 166.986 252.198 164.452 250.344C161.547 248.203 157.855 249.958 157.855 249.958L156.69 251.509C156.69 251.509 159.648 251.033 162.122 251.509V251.502ZM279.191 192.063L270.816 184.801L266.633 188.243L263.97 192.063C263.97 192.063 266.996 196.443 270.06 196.648C272.7 196.822 274.243 196.269 274.243 196.269C274.243 196.269 274.871 198.622 274.621 200.476C274.372 202.329 275.106 203.524 275 205.06C274.894 206.596 275.892 210.507 275 211.937C274.107 213.366 273.479 213.851 273.479 213.851C273.479 213.851 271.595 212.058 268.91 211.173C266.232 210.287 263.198 210.794 263.198 210.794L260.157 217.293L263.198 221.113L242.266 240.601L211.817 246.335L177.184 242.129C177.184 242.129 175.504 245.934 174.899 248.241C174.302 250.549 173.757 253.59 173.757 253.59C173.757 253.59 168.711 256.184 166.903 257.41C165.102 258.636 162.19 261.102 161.191 261.23C160.193 261.359 159.285 261.609 159.285 261.609C159.285 261.609 158.763 257.198 156.236 256.26C153.709 255.322 151.667 255.496 151.667 255.496L147.098 260.08L149.382 266.579L162.319 271.927L274.599 233.33C274.599 233.33 284.335 220.016 284.116 220.341C283.896 220.659 279.168 192.063 279.168 192.063H279.191ZM157.076 253.491C158.574 253.302 160.231 253.673 161.259 254.634C162.288 255.594 162.803 257.077 163.922 256.162C165.042 255.246 164.066 254.497 162.78 253.106C161.501 251.714 156.69 251.956 156.69 251.956C156.69 251.956 155.57 253.673 157.068 253.484L157.076 253.491Z" fill="#2F0246"/>
</g>
<mask id="mask14_54_62299" style="mask-type:luminance" maskUnits="userSpaceOnUse" x="258" y="189" width="18" height="30">
<path d="M261.923 195.507C263.557 193.495 266.72 190.31 267.068 190.144C269.708 188.88 272.446 189.425 273.778 191.619C275.117 193.813 275.677 197.035 275.192 201.022C275.094 201.854 277.205 211.984 274.353 215.04C270.933 218.709 264.14 219.579 262.68 217.279C261.84 215.956 262.476 214.39 264.2 212.309C266.054 210.07 267.053 207.816 266.984 207.157C266.886 206.212 264.904 208.996 263.164 207.891C261.424 206.787 257.475 202.164 258.315 200.508C259.155 198.851 260.289 197.504 261.923 195.492V195.507Z" fill="white"/>
</mask>
<g mask="url(#mask14_54_62299)">
<path fill-rule="evenodd" clip-rule="evenodd" d="M266.007 207.634C266.007 207.634 269.623 207.256 270.553 207.634C271.484 208.012 273.534 208.277 273.208 209.139C272.876 210.002 272.664 209.775 272.104 209.593C271.544 209.412 271.015 209.571 269.418 209.139C267.822 208.708 265.25 208.761 265.25 208.761L266.007 207.634Z" fill="#2F0246"/>
<path fill-rule="evenodd" clip-rule="evenodd" d="M267.035 205.63C267.035 205.63 271.286 206.477 271.982 206.772C272.678 207.074 273.132 206.674 273.124 206.008C273.117 205.342 273.155 205.017 271.226 204.858C269.296 204.699 266.656 203.708 266.656 203.708L267.035 205.622V205.63Z" fill="#2F0246"/>
<path fill-rule="evenodd" clip-rule="evenodd" d="M177.192 242.123C177.192 242.123 175.512 245.928 174.907 248.235C174.309 250.543 173.765 253.584 173.765 253.584C173.765 253.584 168.719 256.179 166.911 257.404C165.11 258.63 162.198 261.096 161.199 261.224C160.201 261.353 159.293 261.603 159.293 261.603C159.293 261.603 158.771 257.192 156.244 256.254C153.717 255.316 151.675 255.49 151.675 255.49L147.105 260.075L149.39 266.573L162.326 271.921L274.607 233.325C274.607 233.325 284.343 220.01 284.123 220.335C283.904 220.653 279.176 192.057 279.176 192.057L270.801 184.795L266.618 188.237L263.955 192.057C263.955 192.057 266.981 196.438 270.045 196.642C272.685 196.816 274.228 196.264 274.228 196.264C274.228 196.264 274.856 198.616 274.607 200.47C274.357 202.323 275.091 203.518 274.985 205.054C274.879 206.59 275.878 210.501 274.985 211.931C274.092 213.361 273.464 213.845 273.464 213.845C273.464 213.845 271.581 212.052 268.895 211.167C266.217 210.282 263.183 210.788 263.183 210.788L260.142 217.287L263.183 221.107L242.251 240.595L211.802 246.329L177.169 242.123H177.192Z" fill="#2F0246"/>
</g>
<path fill-rule="evenodd" clip-rule="evenodd" d="M188.817 145.193C190.496 147.636 196.942 152.069 203.841 155.035C210.748 158 225.356 157.766 229.343 155.42C233.33 153.075 234.601 148.264 234.29 150.836C233.98 153.401 237.952 175.536 238.096 187.141C238.239 198.745 238.837 212.96 239.238 213.512C239.601 214.004 242.703 211.47 247.612 207.014C253.294 201.862 262.493 193.934 263.597 194.025C266.911 194.29 270.012 202.989 267.403 208.55C265.337 212.953 238.035 245.096 225.538 239.506C213.04 233.915 208.403 213.913 205.747 204.729C203.175 195.84 202.706 188.676 202.706 188.676C202.706 188.676 174.284 197.164 172.257 198.231C169.571 199.638 173.21 213.195 174.542 221.925C175.714 229.603 177.484 239.309 176.826 241.412C176.433 242.683 172.249 245.074 169.216 245.233C164.601 245.475 163.194 243.258 162.362 242.555C161.946 242.199 140.529 198.942 146.755 187.526C149.441 182.594 156.522 174.552 169.972 166.511C180.215 160.391 187.039 158.575 187.478 157.342C189.112 152.742 187.145 142.764 188.817 145.208V145.193Z" fill="#5C81C9"/>
<path fill-rule="evenodd" clip-rule="evenodd" d="M186.898 144.473C186.898 144.473 188.275 148.043 194.895 152.113C206.265 159.111 221.153 159.376 221.153 159.376L232.19 155.17L232.569 160.14C232.569 160.14 224.3 164.187 219.625 163.96C214.95 163.733 199.086 159.868 192.602 155.555C186.119 151.243 187.277 150.585 187.277 150.585L186.898 144.473Z" fill="#3E2A55"/>
<mask id="mask15_54_62299" style="mask-type:luminance" maskUnits="userSpaceOnUse" x="145" y="145" width="124" height="101">
<path d="M190.137 146.244C191.816 148.688 196.938 152.07 203.837 155.035C210.744 158.001 225.352 157.766 229.339 155.421C233.326 153.076 234.597 148.264 234.286 150.836C233.976 153.401 237.948 175.536 238.092 187.141C238.235 198.746 238.833 212.961 239.234 213.513C239.597 214.005 242.699 211.47 247.608 207.014C253.29 201.863 262.489 193.934 263.593 194.025C266.907 194.29 270.009 202.99 267.399 208.55C265.333 212.953 238.031 245.097 225.534 239.506C213.036 233.916 208.399 213.914 205.744 204.73C203.171 195.841 202.702 188.677 202.702 188.677C202.702 188.677 174.281 197.165 172.253 198.231C169.568 199.639 173.206 213.195 174.538 221.925C175.71 229.604 177.481 239.31 176.822 241.413C176.429 242.684 172.246 245.074 169.212 245.233C164.597 245.475 163.19 243.259 162.358 242.555C161.942 242.199 140.525 198.943 146.751 187.527C149.437 182.594 156.518 174.553 169.969 166.511C180.212 160.391 187.035 158.575 187.474 157.342C189.108 152.743 188.465 143.816 190.137 146.26V146.244Z" fill="white"/>
</mask>
<g mask="url(#mask15_54_62299)">
<path fill-rule="evenodd" clip-rule="evenodd" d="M263.772 191.581C265.633 191.944 269.93 193.972 270.626 198.844C271.322 203.716 270.104 210.615 267.963 212.605C265.822 214.594 261.109 217.575 261.109 217.575C261.109 217.575 264.634 213.823 264.914 207.256C265.285 198.496 260.685 197.618 258.446 197.323C256.199 197.021 254.641 196.937 254.641 196.937C254.641 196.937 261.911 191.226 263.772 191.589V191.581Z" fill="#3E5497"/>
<path d="M174.138 247.7C172.912 247.7 171.808 246.837 171.55 245.589C171.535 245.536 170.385 239.968 169.334 236.685C168.131 232.91 163.289 205.139 162.76 200.653C161.966 194.003 168.214 190.742 174.819 187.293C181.801 183.646 216.706 171.595 218.189 171.089C219.021 170.801 219.952 170.945 220.655 171.482L233.213 181.037C233.917 181.574 234.302 182.421 234.249 183.306C234.242 183.48 233.205 200.751 233.115 206.122C232.994 212.749 234.234 223.968 235.588 227.108C237.177 226.442 241.996 223.62 254.531 211.796C258.851 207.718 268.02 197.876 268.111 197.778C269.109 196.711 270.781 196.643 271.855 197.642C272.922 198.64 272.982 200.312 271.991 201.387C271.613 201.795 262.618 211.448 258.17 215.647C253.661 219.898 249.69 223.423 246.369 226.109C238.947 232.116 235.263 233.697 232.759 231.934C227.827 228.469 227.819 206.251 227.827 206.024C227.91 201.394 228.636 188.685 228.886 184.395L218.582 176.558C212.001 178.843 183.17 188.912 177.277 191.991C170.06 195.758 167.715 197.445 168.025 200.032C168.57 204.602 173.374 231.896 174.387 235.081C175.515 238.629 176.695 244.28 176.74 244.522C177.035 245.952 176.112 247.359 174.682 247.654C174.501 247.692 174.319 247.707 174.145 247.707L174.138 247.7Z" fill="#3E5497"/>
<path fill-rule="evenodd" clip-rule="evenodd" d="M180.797 234.385C180.797 234.385 181.591 238.75 178.512 241.647C175.44 244.537 168.133 248.388 165.568 246.996C163.004 245.604 159.804 240.891 159.1 238.969C158.389 237.048 158.336 235.149 158.336 235.149C158.336 235.149 161.211 239.915 168.609 237.827C175.229 235.958 179.647 228.658 179.647 228.658L180.789 234.393L180.797 234.385Z" fill="#3E5497"/>
</g>
<path fill-rule="evenodd" clip-rule="evenodd" d="M189.866 89.2634C186.296 89.1802 180.766 90.7916 176.166 98.054C171.574 105.309 168.238 115.544 163.222 115.249C158.29 114.954 145.656 112.836 144.574 113.335C141.571 114.727 139.748 121.717 141.912 124.796C144.075 127.883 163.374 133.284 171.983 130.145C181.265 126.763 184.541 114.478 184.541 114.478C184.541 114.478 183.882 107.601 185.683 101.103C187.37 95.0204 191.599 89.2937 189.866 89.2559V89.2634Z" fill="#BECCF8"/>
<path fill-rule="evenodd" clip-rule="evenodd" d="M155.954 90.1639C156.347 92.1611 159.215 95.5124 155.954 102.397C154.789 104.855 151.006 105.839 151.006 105.839L159.381 110.809C159.381 110.809 171.621 121.324 169.276 126.476C167.196 131.045 163.163 132.354 160.523 130.682C157.883 129.003 154.812 124.57 154.812 124.57C154.812 124.57 155.606 127.709 155.19 131.446C154.653 136.243 151.385 138.323 151.385 138.323C151.385 138.323 157.777 159.414 155.568 162.017C153.367 164.619 144.841 166.79 142.246 165.073C136.535 161.298 137.299 140.615 137.299 140.615C137.299 140.615 132.941 140.471 131.587 140.229C130.157 139.98 128.16 139.087 128.16 139.087C128.16 139.087 125.928 144.715 125.875 149.406C125.822 154.096 126.791 158.242 123.591 160.103C118.726 162.94 113.257 159.649 111.411 156.282C109.565 152.916 109.338 148.067 112.175 141.757C115.443 134.487 119.786 132.967 119.786 132.967C119.786 132.967 119.286 129.623 119.407 124.176C119.528 118.729 122.448 110.801 122.448 110.801C122.448 110.801 120.111 110.363 115.216 104.303C111.01 99.0982 111.131 91.6769 115.595 90.5422C121.185 89.1275 123.379 93.8556 123.205 96.6547C122.789 103.562 127.396 103.531 127.396 103.531C127.396 103.531 127.683 103.546 128.16 103.153C128.637 102.76 128.924 102.389 128.924 102.389C128.924 102.389 123.175 97.502 126.261 90.5422C129.348 83.5823 131.587 83.2797 131.587 83.2797C131.587 83.2797 129.113 76.7511 135.014 76.7814C140.915 76.8116 138.441 81.7516 138.441 81.7516C138.441 81.7516 143.162 81.1539 146.437 82.5157C149.705 83.8774 150.242 84.8079 150.242 84.8079C150.242 84.8079 151.218 79.5577 155.954 81.7516C158.571 82.962 159.404 85.1407 158.617 87.1001C158.208 88.1289 155.878 89.7705 155.954 90.1563V90.1639Z" fill="#CA7273"/>
<mask id="mask16_54_62299" style="mask-type:luminance" maskUnits="userSpaceOnUse" x="110" y="76" width="60" height="90">
<path d="M155.958 90.1639C156.351 92.1611 159.218 95.5124 155.958 102.397C154.793 104.855 151.01 105.839 151.01 105.839L159.385 110.809C159.385 110.809 171.625 121.324 169.28 126.476C167.2 131.045 163.167 132.354 160.527 130.682C157.887 129.003 154.816 124.57 154.816 124.57C154.816 124.57 155.61 127.709 155.194 131.446C154.657 136.243 151.389 138.323 151.389 138.323C151.389 138.323 157.781 159.414 155.572 162.017C153.371 164.619 144.845 166.79 142.25 165.073C136.538 161.298 137.303 140.615 137.303 140.615C137.303 140.615 132.945 140.471 131.591 140.229C130.161 139.98 128.164 139.087 128.164 139.087C128.164 139.087 125.932 144.715 125.879 149.406C125.826 154.096 126.795 158.242 123.595 160.103C118.73 162.94 113.261 159.649 111.415 156.282C109.569 152.916 109.342 148.067 112.179 141.757C115.447 134.487 119.789 132.967 119.789 132.967C119.789 132.967 119.29 129.623 119.411 124.176C119.532 118.729 122.452 110.801 122.452 110.801C122.452 110.801 120.115 110.363 115.22 104.303C111.014 99.0982 111.135 91.6769 115.598 90.5422C121.189 89.1275 123.383 93.8556 123.209 96.6547C122.793 103.562 127.4 103.531 127.4 103.531C127.4 103.531 127.687 103.546 128.164 103.153C128.641 102.76 128.928 102.389 128.928 102.389C128.928 102.389 123.179 97.502 126.265 90.5422C129.352 83.5823 131.591 83.2797 131.591 83.2797C131.591 83.2797 129.117 76.7511 135.018 76.7814C140.919 76.8116 138.445 81.7516 138.445 81.7516C138.445 81.7516 143.165 81.1539 146.441 82.5157C149.709 83.8774 150.246 84.8079 150.246 84.8079C150.246 84.8079 151.222 79.5577 155.958 81.7516C158.575 82.962 159.408 85.1407 158.621 87.1001C158.212 88.1289 155.882 89.7705 155.958 90.1563V90.1639Z" fill="white"/>
</mask>
<g mask="url(#mask16_54_62299)">
<g style="mix-blend-mode:multiply" opacity="0.7">
<path fill-rule="evenodd" clip-rule="evenodd" d="M156.584 81.8433C156.584 81.8433 158.127 85.8074 155.82 86.4277C153.52 87.048 152.393 87.5776 152.393 87.5776C152.393 87.5776 156.637 90.5431 156.198 93.3119C155.759 96.0807 156.538 101.301 152.771 103.245C149.193 105.091 145.161 106.815 132.603 102.867C128.979 101.724 124.992 91.0197 124.992 91.0197C124.992 91.0197 125.196 100.12 126.899 102.102C128.601 104.084 127.723 110.727 133.367 110.893C139.01 111.059 148.209 108.215 148.209 108.215C148.209 108.215 146.666 109.675 146.787 111.385C146.901 113.094 154.889 125.524 161.531 128.852C165.662 130.918 169.142 128.088 169.142 128.088L163.43 136.493L156.198 146.048L160.003 164.771L143.254 172.034C143.254 172.034 137.868 166.481 142.112 165.535C146.363 164.59 153.217 166.935 151.629 158.273C150.04 149.611 148.466 139.141 147.823 138.021C147.18 136.902 147.158 135.752 148.588 133.437C150.237 130.751 150.01 126.507 149.352 122.354C147.793 112.572 145.002 114.116 145.985 110.409C146.522 108.381 150.94 106.906 154.685 104.773C158.43 102.64 162.84 95.9823 162.681 92.5402C162.515 89.0981 156.591 80.6934 156.591 80.6934L137.179 76.873C137.179 76.873 136.665 77.9775 136.801 79.9293C136.937 81.8811 134.517 82.9856 134.517 82.9856C134.517 82.9856 140.1 81.8962 141.37 81.8433C142.634 81.7828 150.509 81.4575 150.509 81.4575L154.314 81.0792L156.599 81.8433H156.584Z" fill="#AF8CBF"/>
</g>
<g style="mix-blend-mode:multiply" opacity="0.7">
<path fill-rule="evenodd" clip-rule="evenodd" d="M122.61 85.6863C122.61 85.6863 115.121 85.119 112.715 90.6566C110.31 96.1942 112.715 124.669 112.715 124.669L108.91 151.041L111.195 164.03C111.195 164.03 127.687 170.604 128.322 170.528C128.958 170.453 131.749 163.652 131.749 163.652L137.461 140.344C137.461 140.344 132.332 139.141 128.708 137.287C123.813 134.783 120.712 131.553 120.712 131.553C120.712 131.553 121.544 134.519 122.875 135.82C124.01 136.924 126.401 139.141 126.423 139.194C126.423 139.194 122.52 145.874 122.24 149.891C121.952 153.908 122.164 160.194 119.199 160.588C116.226 160.981 113.873 161.73 113.873 161.73C113.873 161.73 108.948 154.725 111.966 139.186C114.985 123.648 119.963 117.021 119.963 117.021C119.963 117.021 121.975 111.861 122.626 110.522C123.276 109.183 118.359 107.103 116.157 102.882C113.941 98.6301 113.305 93.6977 116.157 92.563C120.825 90.7095 122.626 85.6863 122.626 85.6863H122.61Z" fill="#AF8CBF"/>
</g>
</g>
<path fill-rule="evenodd" clip-rule="evenodd" d="M134.157 90.4961C131.078 90.4961 128.582 92.9774 128.582 96.0488C128.582 99.1202 131.078 101.602 134.157 101.602C137.236 101.602 139.74 99.1202 139.74 96.0488C139.74 92.9774 137.244 90.4961 134.157 90.4961Z" fill="#E9F3FE"/>
<mask id="mask17_54_62299" style="mask-type:luminance" maskUnits="userSpaceOnUse" x="128" y="90" width="12" height="12">
<path d="M134.165 90.4961C131.086 90.4961 128.59 92.9774 128.59 96.0488C128.59 99.1202 131.086 101.602 134.165 101.602C137.244 101.602 139.748 99.1202 139.748 96.0488C139.748 92.9774 137.252 90.4961 134.165 90.4961Z" fill="white"/>
</mask>
<g mask="url(#mask17_54_62299)">
<path fill-rule="evenodd" clip-rule="evenodd" d="M129.191 92.531C129.191 92.531 129.062 96.6237 131.097 97.8795C133.722 99.4984 136.938 98.583 137.566 98.2577C139.396 97.3348 140.614 96.3438 140.614 96.3438C140.614 96.3438 137.929 103.531 133.382 102.456C128.843 101.382 127.474 98.6511 128.056 96.3438C128.639 94.0364 129.199 92.5234 129.199 92.5234L129.191 92.531Z" fill="#C1CFF9"/>
</g>
<path fill-rule="evenodd" clip-rule="evenodd" d="M130.556 92.6517C130.639 93.4233 131.623 95.133 132.372 95.1406C133.121 95.1406 136.275 93.8999 135.98 93.1888C135.693 92.4852 134.755 91.29 133.075 91.2143C131.396 91.1387 130.473 91.88 130.556 92.6517Z" fill="#201341"/>
<path fill-rule="evenodd" clip-rule="evenodd" d="M198.539 123.315C198.448 117.785 199.356 96.202 204.629 91.5949C209.523 87.3206 213.177 83.3641 220.614 91.209C227.763 98.7514 234.427 110.084 236.977 147.765C239.057 178.487 240.782 199.737 240.782 199.737C240.782 199.737 238.974 211.296 226.318 214.262C212.141 217.583 198.531 217.704 198.531 217.704C198.531 217.704 199.242 167.033 198.91 158.856C198.312 144.111 198.66 131.629 198.531 123.315H198.539Z" fill="#E9F3FE"/>
<path fill-rule="evenodd" clip-rule="evenodd" d="M176.9 156.728C176.9 156.728 175.266 104.03 178.36 96.9488C182.838 86.7133 192.839 87.0462 195.109 87.78C197.378 88.5138 185.448 92.2055 186.356 106.889C187.756 129.607 189.488 145.501 188.369 156.039C187.922 160.223 176.9 156.735 176.9 156.735V156.728Z" fill="#E9F3FE"/>
<mask id="mask18_54_62299" style="mask-type:luminance" maskUnits="userSpaceOnUse" x="176" y="87" width="20" height="71">
<path d="M177.603 157.327C177.603 157.327 175.265 104.032 178.367 96.9507C182.845 86.7152 192.846 87.0481 195.116 87.7819C197.385 88.5157 185.455 92.2075 186.363 106.891C187.762 129.609 191.674 144.126 190.546 154.657C190.1 158.84 177.603 157.335 177.603 157.335V157.327Z" fill="white"/>
</mask>
<g mask="url(#mask18_54_62299)">
<path fill-rule="evenodd" clip-rule="evenodd" d="M197.746 86.6464C197.746 86.6464 191.119 88.1367 187.087 93.1448C183.017 98.1982 179.583 106.603 179.855 107.67C180.127 108.736 184.803 114.168 184.803 114.168C184.803 114.168 181.777 117.542 181.761 118.752C181.746 119.97 184.303 125.894 186.331 130.985C188.351 136.076 190.514 140.918 190.514 140.918L198.889 146.266C198.889 146.266 201.831 132.279 203.072 129.071C204.184 126.204 205.848 124.055 204.979 122.573C204.441 121.657 201.173 116.838 201.173 116.838C201.173 116.838 207.967 112.383 208.027 111.49C208.186 108.971 204.752 96.8743 207.263 92.3807C210.645 86.3438 213.913 86.6766 212.589 85.1182C211.265 83.5674 197.746 86.6464 197.746 86.6464Z" fill="#CCD9F2"/>
</g>
<mask id="mask19_54_62299" style="mask-type:luminance" maskUnits="userSpaceOnUse" x="198" y="86" width="43" height="132">
<path d="M198.543 123.313C198.452 117.783 199.36 96.2 204.633 91.5929C209.527 87.3187 213.181 83.3622 220.617 91.2071C227.766 98.7494 234.431 110.082 236.981 147.763C239.061 178.485 240.786 199.735 240.786 199.735C240.786 199.735 238.978 211.294 226.322 214.26C212.145 217.581 198.535 217.702 198.535 217.702C198.535 217.702 199.246 167.031 198.913 158.854C198.316 144.109 198.664 131.627 198.535 123.313H198.543Z" fill="white"/>
</mask>
<g mask="url(#mask19_54_62299)">
<path fill-rule="evenodd" clip-rule="evenodd" d="M220.326 91.6166C220.326 91.6166 233.49 137.173 235.169 161.934C236.849 186.694 235.275 194.297 226.416 200.916C217.558 207.536 197.109 216.969 197.109 216.969C197.109 216.969 204.364 228.332 206.24 229.194C208.116 230.057 254.218 219.163 253.817 217.348C253.416 215.532 256.48 143.596 256.48 143.596L223.368 83.5977L220.326 91.6242V91.6166Z" fill="#BECCF8"/>
<path fill-rule="evenodd" clip-rule="evenodd" d="M197.754 86.6464C197.754 86.6464 191.127 88.1367 187.095 93.1448C183.025 98.1982 179.59 106.603 179.863 107.67C180.135 108.736 184.81 114.168 184.81 114.168C184.81 114.168 181.784 117.542 181.769 118.752C181.754 119.97 184.311 125.894 186.338 130.985C188.358 136.076 190.522 140.918 190.522 140.918L198.896 146.266C198.896 146.266 201.839 132.279 203.08 129.071C204.192 126.204 205.856 124.055 204.986 122.573C204.449 121.657 201.181 116.838 201.181 116.838C201.181 116.838 207.975 112.383 208.035 111.49C208.194 108.971 204.759 96.8743 207.271 92.3807C210.653 86.3438 213.921 86.6766 212.597 85.1182C211.273 83.5674 197.754 86.6464 197.754 86.6464Z" fill="#CCD9F2"/>
</g>
<path fill-rule="evenodd" clip-rule="evenodd" d="M181.592 124.645C182.862 125.205 184.217 129.116 183.748 132.029C183.271 134.934 184.043 137.945 180.389 137.128C176.742 136.303 172.264 133.875 168.224 131.182C165.327 129.245 163.829 130.266 161.93 126.506C160.788 124.244 158.836 121.801 156.899 120.56C154.963 119.32 153.661 117.564 154.38 116.74C154.94 116.097 156.445 116.755 157.315 117.587C158.692 118.919 161.09 120.56 161.09 120.56C161.09 120.56 160.092 118.26 158.571 116.316C157.368 114.765 155.908 113.782 156.052 112.92C156.385 111.006 157.58 109.107 158.987 109.946C160.394 110.779 164.6 112.261 165.697 116.316C165.834 116.823 165.773 115.439 164.442 113.767C163.617 112.738 160.493 110.877 161.083 110.794C162.255 110.635 166.113 111.497 166.953 114.19C167.793 116.884 168.565 120.197 169.888 121.407C171.212 122.618 180.305 124.085 181.576 124.645H181.592Z" fill="#FED4B2"/>
<mask id="mask20_54_62299" style="mask-type:luminance" maskUnits="userSpaceOnUse" x="154" y="109" width="30" height="29">
<path d="M181.592 124.645C182.862 125.205 184.217 129.116 183.748 132.029C183.271 134.934 184.043 137.945 180.389 137.128C176.742 136.303 172.264 133.875 168.224 131.182C165.327 129.245 163.829 130.266 161.93 126.506C160.788 124.244 158.836 121.801 156.899 120.56C154.963 119.32 153.661 117.564 154.38 116.74C154.94 116.097 156.445 116.755 157.315 117.587C158.692 118.919 161.09 120.56 161.09 120.56C161.09 120.56 160.092 118.26 158.571 116.316C157.368 114.765 155.908 113.782 156.052 112.92C156.385 111.006 157.58 109.107 158.987 109.946C160.394 110.779 164.6 112.261 165.697 116.316C165.834 116.823 165.773 115.439 164.442 113.767C163.617 112.738 160.493 110.877 161.083 110.794C162.255 110.635 166.113 111.497 166.953 114.19C167.793 116.884 168.565 120.197 169.888 121.407C171.212 122.618 180.305 124.085 181.576 124.645H181.592Z" fill="white"/>
</mask>
<g mask="url(#mask20_54_62299)">
<g opacity="0.8">
<path fill-rule="evenodd" clip-rule="evenodd" d="M181.361 131.047C181.361 131.047 174.046 131.372 170.77 129.534C167.495 127.695 165.051 127.552 163.962 125.751C162.872 123.943 160.323 120.947 157.91 119.699C155.496 118.451 154.755 116.386 154.127 115.917C153.499 115.448 151.858 115.917 151.858 115.917H157.153L159.423 118.943L162.449 120.456C162.449 120.456 158.817 114.593 157.91 113.647C157.002 112.701 155.64 110.621 155.64 110.621L159.423 113.647L157.153 109.108C157.153 109.108 158.22 109.403 159.423 109.865C160.626 110.326 164.718 115.16 164.718 115.16C164.718 115.16 163.409 111.03 163.205 109.865C163.001 108.7 156.904 105.575 155.64 105.325C154.377 105.076 147.372 110.046 146.562 110.621C145.753 111.196 142.825 122.127 143.536 122.725C144.247 123.323 158.462 137.25 158.666 137.099C158.87 136.947 170.929 141.456 171.527 141.638C172.124 141.819 182.874 138.612 182.874 138.612L181.361 131.047Z" fill="#F48B76"/>
</g>
</g>
<path fill-rule="evenodd" clip-rule="evenodd" d="M114.582 108.297C114.582 108.297 112.078 106.92 112.003 102.79C111.934 98.6591 113.266 97.3276 114.151 97.2822C115.165 97.2368 115.104 98.765 114.582 100.671C113.576 104.34 115.445 106.602 115.445 106.602C115.445 106.602 114.401 101.935 116.307 99.8241C118.039 97.9026 118.902 98.8331 119.749 100.248C120.498 101.496 120.74 101.375 120.801 103.017C120.831 103.826 119.363 109.122 119.749 109.568C119.825 109.651 120.112 107.934 120.612 107.026C121.141 106.05 122.314 105.044 122.76 105.331C123.622 105.884 122.367 108.562 121.898 110.415C121.724 111.119 122.783 112.987 121.466 112.957C117.858 112.874 114.915 108.751 114.59 108.297H114.582Z" fill="#FED4B2"/>
<mask id="mask21_54_62299" style="mask-type:luminance" maskUnits="userSpaceOnUse" x="111" y="97" width="13" height="16">
<path d="M114.578 108.297C114.578 108.297 112.074 106.92 111.999 102.79C111.931 98.6591 113.262 97.3276 114.147 97.2822C115.161 97.2368 115.1 98.765 114.578 100.671C113.572 104.34 115.441 106.602 115.441 106.602C115.441 106.602 114.397 101.935 116.303 99.8241C118.036 97.9026 118.898 98.8331 119.745 100.248C120.494 101.496 120.736 101.375 120.797 103.017C120.827 103.826 119.359 109.122 119.745 109.568C119.821 109.651 120.108 107.934 120.608 107.026C121.137 106.05 122.31 105.044 122.756 105.331C123.619 105.884 122.363 108.562 121.894 110.415C121.72 111.119 122.779 112.987 121.462 112.957C117.854 112.874 114.911 108.751 114.586 108.297H114.578Z" fill="white"/>
</mask>
<g mask="url(#mask21_54_62299)">
<g opacity="0.8">
<path fill-rule="evenodd" clip-rule="evenodd" d="M124.132 104.689C124.132 104.689 122.196 106.134 121.863 107.715C121.53 109.296 121.969 111.422 121.106 111.498C120.244 111.573 117.596 110.439 117.324 109.985C117.059 109.531 115.054 107.715 115.054 107.715L112.785 105.446C112.785 105.446 110.122 98.5994 110.515 98.6372C110.909 98.675 113.367 94.8244 113.541 94.8547C113.715 94.8849 118.837 96.3677 118.837 96.3677V98.6372C118.837 98.6372 117.99 100.12 118.08 101.663C118.194 103.494 120.35 99.3937 120.35 99.3937C120.35 99.3937 121.106 98.1682 121.106 96.6249V94.8547L115.054 92.5852V95.6112C115.054 95.6112 113.746 97.9109 113.541 99.3937C113.337 100.876 115.054 104.689 115.054 104.689L116.567 97.1242L124.132 99.3937L126.402 101.663C126.402 101.663 127.998 108.252 127.915 108.472C127.832 108.691 124.306 115.719 123.376 116.037C122.445 116.355 109.827 113.238 109.002 112.254C108.178 111.271 101.899 95.9667 102.95 94.8547C104.002 93.7426 115.395 87.8873 116.567 88.0461C117.74 88.205 126.19 94.4462 126.402 94.8547C126.621 95.2632 124.132 104.689 124.132 104.689Z" fill="#F48B76"/>
</g>
</g>
<path fill-rule="evenodd" clip-rule="evenodd" d="M208.402 97.971C210.808 91.3062 220.991 84.5355 224.765 99.1208C228.071 111.891 224.803 121.339 208.501 131.552C200.383 136.636 190.829 143.906 181.66 139.495C172.491 135.085 176.932 124.267 179.648 123.314C182.363 122.353 190.012 125.334 195.02 119.214C204.31 107.851 207.298 101.035 208.395 97.9785L208.402 97.971Z" fill="#E9F3FE"/>
<mask id="mask22_54_62299" style="mask-type:luminance" maskUnits="userSpaceOnUse" x="176" y="90" width="50" height="51">
<path d="M208.406 97.971C210.812 91.3062 220.994 84.5355 224.769 99.1208C228.075 111.891 224.807 121.339 208.505 131.552C200.387 136.636 190.833 143.906 181.664 139.495C172.495 135.085 176.936 124.267 179.652 123.314C182.367 122.353 190.016 125.334 195.024 119.214C204.314 107.851 207.302 101.035 208.399 97.9785L208.406 97.971Z" fill="white"/>
</mask>
<g mask="url(#mask22_54_62299)">
<path fill-rule="evenodd" clip-rule="evenodd" d="M186.786 136.612C186.786 136.612 186.801 137.111 187.474 136.937C187.611 136.9 187.24 135.213 187.081 134.214C186.869 132.898 187.247 131.612 187.376 131.816C187.724 132.391 187.845 133.488 188.276 134.358C188.768 135.349 189.577 136.09 190.349 136.188C191.915 136.385 193.224 135.629 195.766 134.797C206.644 131.233 215.601 124.19 219.747 117.601C230.035 101.238 216.206 85.0564 216.184 85.0488L228.878 100.02C228.878 100.02 224.051 126.989 223.295 127.769C222.538 128.548 194.169 149.427 194.169 149.427L170.211 139.714C170.211 139.714 170.211 133.087 170.877 130.303C171.149 129.153 173.782 122.972 178.003 121.429C183.987 119.243 192.104 121.8 192.104 121.8C192.104 121.8 190.871 123.525 188.579 123.926C188.11 124.009 186.778 127.799 186.279 127.905C185.757 128.011 185.492 122.866 184.97 123.003C182.754 123.57 180.598 124.379 179.44 125.499C177.557 127.33 177.042 132.118 177.549 133.057C179.115 135.954 178.638 137.21 181.369 137.414C183.397 137.565 183.889 137.21 183.503 133.775C183.117 130.341 183.911 128.472 183.911 128.472C183.911 128.472 184.017 130.938 184.857 133.579C185.5 135.598 186.786 136.612 186.786 136.612Z" fill="#BECCF8"/>
</g>
<path fill-rule="evenodd" clip-rule="evenodd" d="M179.963 64.2916C179.963 64.2916 179.01 74.2623 182.248 80.7228C185.425 87.0699 189.449 89.3092 195.57 86.0713C200.404 83.5143 204.701 73.8387 204.701 73.8387C204.701 73.8387 211.532 72.4921 209.27 67.7261C207.462 63.9133 204.322 68.4902 204.322 68.4902C204.322 68.4902 202.499 71.5919 202.416 70.0183C202.053 63.0736 197.226 55.1152 189.858 55.4935C183.526 55.8263 179.963 64.284 179.963 64.284V64.2916Z" fill="#FED4B2"/>
<mask id="mask23_54_62299" style="mask-type:luminance" maskUnits="userSpaceOnUse" x="179" y="55" width="31" height="33">
<path d="M179.967 64.2916C179.967 64.2916 179.014 74.2623 182.251 80.7228C185.429 87.0699 189.453 89.3092 195.574 86.0713C200.408 83.5143 204.705 73.8387 204.705 73.8387C204.705 73.8387 211.536 72.4921 209.274 67.7261C207.466 63.9133 204.326 68.4902 204.326 68.4902C204.326 68.4902 202.503 71.5919 202.42 70.0183C202.057 63.0736 197.23 55.1152 189.862 55.4935C183.53 55.8263 179.967 64.284 179.967 64.284V64.2916Z" fill="white"/>
</mask>
<g mask="url(#mask23_54_62299)">
<g opacity="0.8">
<path fill-rule="evenodd" clip-rule="evenodd" d="M178.691 69.263C178.691 69.263 179.478 65.9344 183.261 62.0006C187.043 58.0744 193.156 53.9741 193.156 53.9741C193.156 53.9741 195.788 56.2209 198.481 59.7084C201.175 63.1959 203.051 65.4427 203.051 65.4427C203.051 65.4427 207.681 49.7755 198.867 49.3897C190.054 49.0039 178.903 54.7306 177.935 56.2663C176.966 57.8096 178.699 69.2555 178.699 69.2555L178.691 69.263Z" fill="#F48B76"/>
</g>
</g>
<g opacity="0.8">
<path fill-rule="evenodd" clip-rule="evenodd" d="M205.609 71.8865C205.609 71.8865 207.765 67.3475 208.272 68.4444C208.779 69.5489 208.204 70.9863 207.508 71.1225C206.812 71.2586 205.602 71.8865 205.602 71.8865H205.609Z" fill="#F48B76"/>
</g>
<defs>
<linearGradient id="paint0_linear_54_62299" x1="95.67" y1="168.754" x2="82.6959" y2="144.107" gradientUnits="userSpaceOnUse">
<stop stop-color="#808080"/>
<stop offset="1" stop-color="#3E2C66"/>
</linearGradient>
<linearGradient id="paint1_linear_54_62299" x1="95.67" y1="168.754" x2="82.6959" y2="144.107" gradientUnits="userSpaceOnUse">
<stop stop-color="#808080"/>
<stop offset="1" stop-color="#3E2C66"/>
</linearGradient>
<linearGradient id="paint2_linear_54_62299" x1="99.64" y1="166.667" x2="86.6659" y2="142.012" gradientUnits="userSpaceOnUse">
<stop stop-color="#808080"/>
<stop offset="1" stop-color="#3E2C66"/>
</linearGradient>
<linearGradient id="paint3_linear_54_62299" x1="99.64" y1="166.667" x2="86.6659" y2="142.012" gradientUnits="userSpaceOnUse">
<stop stop-color="#808080"/>
<stop offset="1" stop-color="#3E2C66"/>
</linearGradient>
<linearGradient id="paint4_linear_54_62299" x1="89.7886" y1="212.656" x2="63.8708" y2="131.718" gradientUnits="userSpaceOnUse">
<stop stop-color="#808080"/>
<stop offset="1" stop-color="#3E2C66"/>
</linearGradient>
<linearGradient id="paint5_linear_54_62299" x1="133.414" y1="255.022" x2="106.936" y2="217.953" gradientUnits="userSpaceOnUse">
<stop stop-color="#FCB396"/>
<stop offset="1" stop-color="#FCB396"/>
</linearGradient>
<linearGradient id="paint6_linear_54_62299" x1="134.495" y1="263.692" x2="108.963" y2="211.304" gradientUnits="userSpaceOnUse">
<stop stop-color="#808080"/>
<stop offset="1" stop-color="#3E2C66"/>
</linearGradient>
</defs>
</svg>
