<svg width="20" height="20" viewBox="0 0 20 20" fill="none" xmlns="http://www.w3.org/2000/svg">
<g id="printer" clip-path="url(#clip0_210_527)">
<path id="Icon" d="M5.0013 7.49935V1.66602H15.0013V7.49935M5.0013 14.9993H3.33464C2.89261 14.9993 2.46868 14.8238 2.15612 14.5112C1.84356 14.1986 1.66797 13.7747 1.66797 13.3327V9.16602C1.66797 8.72399 1.84356 8.30007 2.15612 7.9875C2.46868 7.67494 2.89261 7.49935 3.33464 7.49935H16.668C17.11 7.49935 17.5339 7.67494 17.8465 7.9875C18.159 8.30007 18.3346 8.72399 18.3346 9.16602V13.3327C18.3346 13.7747 18.159 14.1986 17.8465 14.5112C17.5339 14.8238 17.11 14.9993 16.668 14.9993H15.0013M5.0013 11.666H15.0013V18.3327H5.0013V11.666Z" stroke="#667085" stroke-width="1.67" stroke-linecap="round" stroke-linejoin="round"/>
</g>
<defs>
<clipPath id="clip0_210_527">
<rect width="20" height="20" fill="white"/>
</clipPath>
</defs>
</svg>
