<svg width="20" height="20" viewBox="0 0 20 20" fill="none" xmlns="http://www.w3.org/2000/svg">
<g clip-path="url(#clip0_426_5223)">
<path d="M19.1654 3.33331V8.33332M19.1654 8.33332H14.1654M19.1654 8.33332L15.2987 4.69998C14.4031 3.80391 13.2951 3.14932 12.078 2.79729C10.861 2.44527 9.57462 2.40727 8.33894 2.68686C7.10325 2.96645 5.95853 3.55451 5.01159 4.39616C4.06464 5.23782 3.34634 6.30564 2.9237 7.49998M0.832031 16.6666V11.6666M0.832031 11.6666H5.83203M0.832031 11.6666L4.6987 15.3C5.59432 16.1961 6.70234 16.8506 7.91937 17.2027C9.1364 17.5547 10.4228 17.5927 11.6585 17.3131C12.8941 17.0335 14.0389 16.4455 14.9858 15.6038C15.9328 14.7621 16.6511 13.6943 17.0737 12.5" stroke="#F97066" stroke-width="2" stroke-linecap="round" stroke-linejoin="round"/>
</g>
<defs>
<clipPath id="clip0_426_5223">
<rect width="20" height="20" fill="white"/>
</clipPath>
</defs>
</svg>
